<?xml version="1.0" encoding="utf-8" standalone="no"?>
<!DOCTYPE svg PUBLIC "-//W3C//DTD SVG 1.1//EN"
  "http://www.w3.org/Graphics/SVG/1.1/DTD/svg11.dtd">
<svg xmlns:xlink="http://www.w3.org/1999/xlink" width="653.160937pt" height="565.195625pt" viewBox="0 0 653.160937 565.195625" xmlns="http://www.w3.org/2000/svg" version="1.1">
 <metadata>
  <rdf:RDF xmlns:dc="http://purl.org/dc/elements/1.1/" xmlns:cc="http://creativecommons.org/ns#" xmlns:rdf="http://www.w3.org/1999/02/22-rdf-syntax-ns#">
   <cc:Work>
    <dc:type rdf:resource="http://purl.org/dc/dcmitype/StillImage"/>
    <dc:date>2025-12-31T18:59:54.024169</dc:date>
    <dc:format>image/svg+xml</dc:format>
    <dc:creator>
     <cc:Agent>
      <dc:title>Matplotlib v3.10.8, https://matplotlib.org/</dc:title>
     </cc:Agent>
    </dc:creator>
   </cc:Work>
  </rdf:RDF>
 </metadata>
 <defs>
  <style type="text/css">*{stroke-linejoin: round; stroke-linecap: butt}</style>
 </defs>
 <g id="figure_1">
  <g id="patch_1">
   <path d="M 0 565.195625 
L 653.160937 565.195625 
L 653.160937 0 
L 0 0 
z
" style="fill: #ffffff"/>
  </g>
  <g id="axes_1">
   <g id="patch_2">
    <path d="M 56.840938 169.30125 
L 645.960938 169.30125 
L 645.960938 22.92 
L 56.840938 22.92 
z
" style="fill: #ffffff"/>
   </g>
   <g id="matplotlib.axis_1">
    <g id="xtick_1">
     <g id="line2d_1">
      <path d="M 83.619119 169.30125 
L 83.619119 22.92 
" clip-path="url(#p79fa44abb8)" style="fill: none; stroke: #cccccc; stroke-opacity: 0.6; stroke-width: 0.6; stroke-linecap: square"/>
     </g>
     <g id="line2d_2">
      <defs>
       <path id="m77dd42cc86" d="M 0 0 
L 0 3.5 
" style="stroke: #000000; stroke-width: 0.8"/>
      </defs>
      <g>
       <use xlink:href="#m77dd42cc86" x="83.619119" y="169.30125" style="stroke: #000000; stroke-width: 0.8"/>
      </g>
     </g>
    </g>
    <g id="xtick_2">
     <g id="line2d_3">
      <path d="M 172.879725 169.30125 
L 172.879725 22.92 
" clip-path="url(#p79fa44abb8)" style="fill: none; stroke: #cccccc; stroke-opacity: 0.6; stroke-width: 0.6; stroke-linecap: square"/>
     </g>
     <g id="line2d_4">
      <g>
       <use xlink:href="#m77dd42cc86" x="172.879725" y="169.30125" style="stroke: #000000; stroke-width: 0.8"/>
      </g>
     </g>
    </g>
    <g id="xtick_3">
     <g id="line2d_5">
      <path d="M 262.140331 169.30125 
L 262.140331 22.92 
" clip-path="url(#p79fa44abb8)" style="fill: none; stroke: #cccccc; stroke-opacity: 0.6; stroke-width: 0.6; stroke-linecap: square"/>
     </g>
     <g id="line2d_6">
      <g>
       <use xlink:href="#m77dd42cc86" x="262.140331" y="169.30125" style="stroke: #000000; stroke-width: 0.8"/>
      </g>
     </g>
    </g>
    <g id="xtick_4">
     <g id="line2d_7">
      <path d="M 351.400938 169.30125 
L 351.400938 22.92 
" clip-path="url(#p79fa44abb8)" style="fill: none; stroke: #cccccc; stroke-opacity: 0.6; stroke-width: 0.6; stroke-linecap: square"/>
     </g>
     <g id="line2d_8">
      <g>
       <use xlink:href="#m77dd42cc86" x="351.400938" y="169.30125" style="stroke: #000000; stroke-width: 0.8"/>
      </g>
     </g>
    </g>
    <g id="xtick_5">
     <g id="line2d_9">
      <path d="M 440.661544 169.30125 
L 440.661544 22.92 
" clip-path="url(#p79fa44abb8)" style="fill: none; stroke: #cccccc; stroke-opacity: 0.6; stroke-width: 0.6; stroke-linecap: square"/>
     </g>
     <g id="line2d_10">
      <g>
       <use xlink:href="#m77dd42cc86" x="440.661544" y="169.30125" style="stroke: #000000; stroke-width: 0.8"/>
      </g>
     </g>
    </g>
    <g id="xtick_6">
     <g id="line2d_11">
      <path d="M 529.92215 169.30125 
L 529.92215 22.92 
" clip-path="url(#p79fa44abb8)" style="fill: none; stroke: #cccccc; stroke-opacity: 0.6; stroke-width: 0.6; stroke-linecap: square"/>
     </g>
     <g id="line2d_12">
      <g>
       <use xlink:href="#m77dd42cc86" x="529.92215" y="169.30125" style="stroke: #000000; stroke-width: 0.8"/>
      </g>
     </g>
    </g>
    <g id="xtick_7">
     <g id="line2d_13">
      <path d="M 619.182756 169.30125 
L 619.182756 22.92 
" clip-path="url(#p79fa44abb8)" style="fill: none; stroke: #cccccc; stroke-opacity: 0.6; stroke-width: 0.6; stroke-linecap: square"/>
     </g>
     <g id="line2d_14">
      <g>
       <use xlink:href="#m77dd42cc86" x="619.182756" y="169.30125" style="stroke: #000000; stroke-width: 0.8"/>
      </g>
     </g>
    </g>
   </g>
   <g id="matplotlib.axis_2">
    <g id="ytick_1">
     <g id="line2d_15">
      <path d="M 56.840938 162.647557 
L 645.960938 162.647557 
" clip-path="url(#p79fa44abb8)" style="fill: none; stroke: #cccccc; stroke-opacity: 0.6; stroke-width: 0.6; stroke-linecap: square"/>
     </g>
     <g id="line2d_16">
      <defs>
       <path id="m418b3630d2" d="M 0 0 
L -3.5 0 
" style="stroke: #000000; stroke-width: 0.8"/>
      </defs>
      <g>
       <use xlink:href="#m418b3630d2" x="56.840938" y="162.647557" style="stroke: #000000; stroke-width: 0.8"/>
      </g>
     </g>
     <g id="text_1">
      <!-- 0 -->
      <g transform="translate(42.842188 166.826697) scale(0.11 -0.11)">
       <defs>
        <path id="DejaVuSans-30" d="M 2034 4250 
Q 1547 4250 1301 3770 
Q 1056 3291 1056 2328 
Q 1056 1369 1301 889 
Q 1547 409 2034 409 
Q 2525 409 2770 889 
Q 3016 1369 3016 2328 
Q 3016 3291 2770 3770 
Q 2525 4250 2034 4250 
z
M 2034 4750 
Q 2819 4750 3233 4129 
Q 3647 3509 3647 2328 
Q 3647 1150 3233 529 
Q 2819 -91 2034 -91 
Q 1250 -91 836 529 
Q 422 1150 422 2328 
Q 422 3509 836 4129 
Q 1250 4750 2034 4750 
z
" transform="scale(0.015625)"/>
       </defs>
       <use xlink:href="#DejaVuSans-30"/>
      </g>
     </g>
    </g>
    <g id="ytick_2">
     <g id="line2d_17">
      <path d="M 56.840938 132.518147 
L 645.960938 132.518147 
" clip-path="url(#p79fa44abb8)" style="fill: none; stroke: #cccccc; stroke-opacity: 0.6; stroke-width: 0.6; stroke-linecap: square"/>
     </g>
     <g id="line2d_18">
      <g>
       <use xlink:href="#m418b3630d2" x="56.840938" y="132.518147" style="stroke: #000000; stroke-width: 0.8"/>
      </g>
     </g>
     <g id="text_2">
      <!-- 500 -->
      <g transform="translate(28.844688 136.697288) scale(0.11 -0.11)">
       <defs>
        <path id="DejaVuSans-35" d="M 691 4666 
L 3169 4666 
L 3169 4134 
L 1269 4134 
L 1269 2991 
Q 1406 3038 1543 3061 
Q 1681 3084 1819 3084 
Q 2600 3084 3056 2656 
Q 3513 2228 3513 1497 
Q 3513 744 3044 326 
Q 2575 -91 1722 -91 
Q 1428 -91 1123 -41 
Q 819 9 494 109 
L 494 744 
Q 775 591 1075 516 
Q 1375 441 1709 441 
Q 2250 441 2565 725 
Q 2881 1009 2881 1497 
Q 2881 1984 2565 2268 
Q 2250 2553 1709 2553 
Q 1456 2553 1204 2497 
Q 953 2441 691 2322 
L 691 4666 
z
" transform="scale(0.015625)"/>
       </defs>
       <use xlink:href="#DejaVuSans-35"/>
       <use xlink:href="#DejaVuSans-30" transform="translate(63.623047 0)"/>
       <use xlink:href="#DejaVuSans-30" transform="translate(127.246094 0)"/>
      </g>
     </g>
    </g>
    <g id="ytick_3">
     <g id="line2d_19">
      <path d="M 56.840938 102.388737 
L 645.960938 102.388737 
" clip-path="url(#p79fa44abb8)" style="fill: none; stroke: #cccccc; stroke-opacity: 0.6; stroke-width: 0.6; stroke-linecap: square"/>
     </g>
     <g id="line2d_20">
      <g>
       <use xlink:href="#m418b3630d2" x="56.840938" y="102.388737" style="stroke: #000000; stroke-width: 0.8"/>
      </g>
     </g>
     <g id="text_3">
      <!-- 1000 -->
      <g transform="translate(21.845938 106.567878) scale(0.11 -0.11)">
       <defs>
        <path id="DejaVuSans-31" d="M 794 531 
L 1825 531 
L 1825 4091 
L 703 3866 
L 703 4441 
L 1819 4666 
L 2450 4666 
L 2450 531 
L 3481 531 
L 3481 0 
L 794 0 
L 794 531 
z
" transform="scale(0.015625)"/>
       </defs>
       <use xlink:href="#DejaVuSans-31"/>
       <use xlink:href="#DejaVuSans-30" transform="translate(63.623047 0)"/>
       <use xlink:href="#DejaVuSans-30" transform="translate(127.246094 0)"/>
       <use xlink:href="#DejaVuSans-30" transform="translate(190.869141 0)"/>
      </g>
     </g>
    </g>
    <g id="ytick_4">
     <g id="line2d_21">
      <path d="M 56.840938 72.259328 
L 645.960938 72.259328 
" clip-path="url(#p79fa44abb8)" style="fill: none; stroke: #cccccc; stroke-opacity: 0.6; stroke-width: 0.6; stroke-linecap: square"/>
     </g>
     <g id="line2d_22">
      <g>
       <use xlink:href="#m418b3630d2" x="56.840938" y="72.259328" style="stroke: #000000; stroke-width: 0.8"/>
      </g>
     </g>
     <g id="text_4">
      <!-- 1500 -->
      <g transform="translate(21.845938 76.438468) scale(0.11 -0.11)">
       <use xlink:href="#DejaVuSans-31"/>
       <use xlink:href="#DejaVuSans-35" transform="translate(63.623047 0)"/>
       <use xlink:href="#DejaVuSans-30" transform="translate(127.246094 0)"/>
       <use xlink:href="#DejaVuSans-30" transform="translate(190.869141 0)"/>
      </g>
     </g>
    </g>
    <g id="ytick_5">
     <g id="line2d_23">
      <path d="M 56.840938 42.129918 
L 645.960938 42.129918 
" clip-path="url(#p79fa44abb8)" style="fill: none; stroke: #cccccc; stroke-opacity: 0.6; stroke-width: 0.6; stroke-linecap: square"/>
     </g>
     <g id="line2d_24">
      <g>
       <use xlink:href="#m418b3630d2" x="56.840938" y="42.129918" style="stroke: #000000; stroke-width: 0.8"/>
      </g>
     </g>
     <g id="text_5">
      <!-- 2000 -->
      <g transform="translate(21.845938 46.309059) scale(0.11 -0.11)">
       <defs>
        <path id="DejaVuSans-32" d="M 1228 531 
L 3431 531 
L 3431 0 
L 469 0 
L 469 531 
Q 828 903 1448 1529 
Q 2069 2156 2228 2338 
Q 2531 2678 2651 2914 
Q 2772 3150 2772 3378 
Q 2772 3750 2511 3984 
Q 2250 4219 1831 4219 
Q 1534 4219 1204 4116 
Q 875 4013 500 3803 
L 500 4441 
Q 881 4594 1212 4672 
Q 1544 4750 1819 4750 
Q 2544 4750 2975 4387 
Q 3406 4025 3406 3419 
Q 3406 3131 3298 2873 
Q 3191 2616 2906 2266 
Q 2828 2175 2409 1742 
Q 1991 1309 1228 531 
z
" transform="scale(0.015625)"/>
       </defs>
       <use xlink:href="#DejaVuSans-32"/>
       <use xlink:href="#DejaVuSans-30" transform="translate(63.623047 0)"/>
       <use xlink:href="#DejaVuSans-30" transform="translate(127.246094 0)"/>
       <use xlink:href="#DejaVuSans-30" transform="translate(190.869141 0)"/>
      </g>
     </g>
    </g>
    <g id="text_6">
     <!-- rpm -->
     <g transform="translate(15.558281 107.220625) rotate(-90) scale(0.11 -0.11)">
      <defs>
       <path id="DejaVuSans-72" d="M 2631 2963 
Q 2534 3019 2420 3045 
Q 2306 3072 2169 3072 
Q 1681 3072 1420 2755 
Q 1159 2438 1159 1844 
L 1159 0 
L 581 0 
L 581 3500 
L 1159 3500 
L 1159 2956 
Q 1341 3275 1631 3429 
Q 1922 3584 2338 3584 
Q 2397 3584 2469 3576 
Q 2541 3569 2628 3553 
L 2631 2963 
z
" transform="scale(0.015625)"/>
       <path id="DejaVuSans-70" d="M 1159 525 
L 1159 -1331 
L 581 -1331 
L 581 3500 
L 1159 3500 
L 1159 2969 
Q 1341 3281 1617 3432 
Q 1894 3584 2278 3584 
Q 2916 3584 3314 3078 
Q 3713 2572 3713 1747 
Q 3713 922 3314 415 
Q 2916 -91 2278 -91 
Q 1894 -91 1617 61 
Q 1341 213 1159 525 
z
M 3116 1747 
Q 3116 2381 2855 2742 
Q 2594 3103 2138 3103 
Q 1681 3103 1420 2742 
Q 1159 2381 1159 1747 
Q 1159 1113 1420 752 
Q 1681 391 2138 391 
Q 2594 391 2855 752 
Q 3116 1113 3116 1747 
z
" transform="scale(0.015625)"/>
       <path id="DejaVuSans-6d" d="M 3328 2828 
Q 3544 3216 3844 3400 
Q 4144 3584 4550 3584 
Q 5097 3584 5394 3201 
Q 5691 2819 5691 2113 
L 5691 0 
L 5113 0 
L 5113 2094 
Q 5113 2597 4934 2840 
Q 4756 3084 4391 3084 
Q 3944 3084 3684 2787 
Q 3425 2491 3425 1978 
L 3425 0 
L 2847 0 
L 2847 2094 
Q 2847 2600 2669 2842 
Q 2491 3084 2119 3084 
Q 1678 3084 1418 2786 
Q 1159 2488 1159 1978 
L 1159 0 
L 581 0 
L 581 3500 
L 1159 3500 
L 1159 2956 
Q 1356 3278 1631 3431 
Q 1906 3584 2284 3584 
Q 2666 3584 2933 3390 
Q 3200 3197 3328 2828 
z
" transform="scale(0.015625)"/>
      </defs>
      <use xlink:href="#DejaVuSans-72"/>
      <use xlink:href="#DejaVuSans-70" transform="translate(41.113281 0)"/>
      <use xlink:href="#DejaVuSans-6d" transform="translate(104.589844 0)"/>
     </g>
    </g>
   </g>
   <g id="line2d_25">
    <path d="M 83.619119 162.647557 
L 136.996962 162.647557 
L 137.175483 72.259328 
L 619.182756 72.259328 
L 619.182756 72.259328 
" clip-path="url(#p79fa44abb8)" style="fill: none; stroke-dasharray: 7.4,3.2; stroke-dashoffset: 0; stroke: #1f77b4; stroke-width: 2"/>
   </g>
   <g id="line2d_26">
    <path d="M 83.619119 162.647557 
L 136.996962 162.647557 
L 137.175483 162.463375 
L 137.889568 160.675798 
L 142.709641 148.211445 
L 157.526901 109.936274 
L 178.949447 53.861647 
L 187.339944 32.019202 
L 188.054028 30.816048 
L 188.768113 30.046378 
L 189.482198 29.652647 
L 190.017762 29.573693 
L 190.731847 29.721078 
L 191.445931 30.1207 
L 192.338538 30.9208 
L 193.409665 32.241325 
L 194.659313 34.163949 
L 196.266004 37.054601 
L 198.943822 42.408812 
L 203.406853 51.316338 
L 205.727628 55.459294 
L 207.869883 58.850751 
L 209.833616 61.566677 
L 211.79735 63.906791 
L 213.761083 65.887165 
L 215.724816 67.534068 
L 217.68855 68.879766 
L 219.652283 69.959344 
L 221.794538 70.87532 
L 224.115313 71.609539 
L 226.61461 72.158228 
L 229.47095 72.54959 
L 232.862853 72.781793 
L 237.325883 72.848683 
L 244.823774 72.697012 
L 261.783289 72.332652 
L 278.742804 72.252736 
L 351.222416 72.259356 
L 352.650586 73.29817 
L 354.078756 74.06225 
L 355.685447 74.655889 
L 357.470659 75.055766 
L 359.434392 75.254733 
L 361.755168 75.255649 
L 364.790028 75.012435 
L 369.788622 74.342012 
L 378.000598 73.260636 
L 383.713277 72.75307 
L 389.961519 72.429418 
L 397.994974 72.254139 
L 411.562586 72.22018 
L 499.395022 72.25933 
L 619.182756 72.259328 
L 619.182756 72.259328 
" clip-path="url(#p79fa44abb8)" style="fill: none; stroke-dasharray: 12.8,3.2,2,3.2; stroke-dashoffset: 0; stroke: #ff7f0e; stroke-width: 2"/>
   </g>
   <g id="line2d_27">
    <path d="M 83.619119 162.647557 
L 136.996962 162.647557 
L 137.175483 162.463375 
L 137.889568 160.675798 
L 142.709641 148.211445 
L 157.526901 109.936274 
L 171.808598 72.973213 
L 172.344162 72.433207 
L 172.879725 72.258127 
L 173.950853 72.281004 
L 176.093107 72.289855 
L 183.948041 72.260481 
L 351.222416 72.259277 
L 351.75798 72.484007 
L 352.472065 72.412108 
L 353.900234 72.243492 
L 358.541786 72.25719 
L 619.182756 72.257664 
L 619.182756 72.257664 
" clip-path="url(#p79fa44abb8)" style="fill: none; stroke: #2ca02c; stroke-width: 2; stroke-linecap: square"/>
   </g>
   <g id="patch_3">
    <path d="M 56.840938 169.30125 
L 56.840938 22.92 
" style="fill: none; stroke: #000000; stroke-width: 0.8; stroke-linejoin: miter; stroke-linecap: square"/>
   </g>
   <g id="patch_4">
    <path d="M 645.960938 169.30125 
L 645.960938 22.92 
" style="fill: none; stroke: #000000; stroke-width: 0.8; stroke-linejoin: miter; stroke-linecap: square"/>
   </g>
   <g id="patch_5">
    <path d="M 56.840938 169.30125 
L 645.960938 169.30125 
" style="fill: none; stroke: #000000; stroke-width: 0.8; stroke-linejoin: miter; stroke-linecap: square"/>
   </g>
   <g id="patch_6">
    <path d="M 56.840938 22.92 
L 645.960938 22.92 
" style="fill: none; stroke: #000000; stroke-width: 0.8; stroke-linejoin: miter; stroke-linecap: square"/>
   </g>
   <g id="text_7">
    <!-- Kịch bản S8_Lm_MINUS10: ω và ω* -->
    <g transform="translate(245.4925 16.92) scale(0.12 -0.12)">
     <defs>
      <path id="DejaVuSans-4b" d="M 628 4666 
L 1259 4666 
L 1259 2694 
L 3353 4666 
L 4166 4666 
L 1850 2491 
L 4331 0 
L 3500 0 
L 1259 2247 
L 1259 0 
L 628 0 
L 628 4666 
z
" transform="scale(0.015625)"/>
      <path id="DejaVuSans-1ecb" d="M 603 3500 
L 1178 3500 
L 1178 0 
L 603 0 
L 603 3500 
z
M 603 4863 
L 1178 4863 
L 1178 4134 
L 603 4134 
L 603 4863 
z
M 594 -441 
L 1169 -441 
L 1169 -1172 
L 594 -1172 
L 594 -441 
z
" transform="scale(0.015625)"/>
      <path id="DejaVuSans-63" d="M 3122 3366 
L 3122 2828 
Q 2878 2963 2633 3030 
Q 2388 3097 2138 3097 
Q 1578 3097 1268 2742 
Q 959 2388 959 1747 
Q 959 1106 1268 751 
Q 1578 397 2138 397 
Q 2388 397 2633 464 
Q 2878 531 3122 666 
L 3122 134 
Q 2881 22 2623 -34 
Q 2366 -91 2075 -91 
Q 1284 -91 818 406 
Q 353 903 353 1747 
Q 353 2603 823 3093 
Q 1294 3584 2113 3584 
Q 2378 3584 2631 3529 
Q 2884 3475 3122 3366 
z
" transform="scale(0.015625)"/>
      <path id="DejaVuSans-68" d="M 3513 2113 
L 3513 0 
L 2938 0 
L 2938 2094 
Q 2938 2591 2744 2837 
Q 2550 3084 2163 3084 
Q 1697 3084 1428 2787 
Q 1159 2491 1159 1978 
L 1159 0 
L 581 0 
L 581 4863 
L 1159 4863 
L 1159 2956 
Q 1366 3272 1645 3428 
Q 1925 3584 2291 3584 
Q 2894 3584 3203 3211 
Q 3513 2838 3513 2113 
z
" transform="scale(0.015625)"/>
      <path id="DejaVuSans-20" transform="scale(0.015625)"/>
      <path id="DejaVuSans-62" d="M 3116 1747 
Q 3116 2381 2855 2742 
Q 2594 3103 2138 3103 
Q 1681 3103 1420 2742 
Q 1159 2381 1159 1747 
Q 1159 1113 1420 752 
Q 1681 391 2138 391 
Q 2594 391 2855 752 
Q 3116 1113 3116 1747 
z
M 1159 2969 
Q 1341 3281 1617 3432 
Q 1894 3584 2278 3584 
Q 2916 3584 3314 3078 
Q 3713 2572 3713 1747 
Q 3713 922 3314 415 
Q 2916 -91 2278 -91 
Q 1894 -91 1617 61 
Q 1341 213 1159 525 
L 1159 0 
L 581 0 
L 581 4863 
L 1159 4863 
L 1159 2969 
z
" transform="scale(0.015625)"/>
      <path id="DejaVuSans-1ea3" d="M 2194 1759 
Q 1497 1759 1228 1600 
Q 959 1441 959 1056 
Q 959 750 1161 570 
Q 1363 391 1709 391 
Q 2188 391 2477 730 
Q 2766 1069 2766 1631 
L 2766 1759 
L 2194 1759 
z
M 3341 1997 
L 3341 0 
L 2766 0 
L 2766 531 
Q 2569 213 2275 61 
Q 1981 -91 1556 -91 
Q 1019 -91 701 211 
Q 384 513 384 1019 
Q 384 1609 779 1909 
Q 1175 2209 1959 2209 
L 2766 2209 
L 2766 2266 
Q 2766 2663 2505 2880 
Q 2244 3097 1772 3097 
Q 1472 3097 1187 3025 
Q 903 2953 641 2809 
L 641 3341 
Q 956 3463 1253 3523 
Q 1550 3584 1831 3584 
Q 2591 3584 2966 3190 
Q 3341 2797 3341 1997 
z
M 1236 5025 
Q 1586 5184 1914 5184 
Q 2239 5184 2437 5051 
Q 2636 4919 2636 4709 
Q 2636 4519 2361 4316 
L 2223 4216 
Q 2114 4134 2102 4106 
Q 2080 4056 2080 3956 
L 1708 3956 
L 1708 3994 
Q 1708 4119 1755 4203 
Q 1802 4288 1961 4403 
L 2102 4509 
Q 2245 4616 2245 4741 
Q 2245 4806 2148 4862 
Q 2052 4919 1830 4919 
Q 1548 4919 1236 4756 
L 1236 5025 
z
" transform="scale(0.015625)"/>
      <path id="DejaVuSans-6e" d="M 3513 2113 
L 3513 0 
L 2938 0 
L 2938 2094 
Q 2938 2591 2744 2837 
Q 2550 3084 2163 3084 
Q 1697 3084 1428 2787 
Q 1159 2491 1159 1978 
L 1159 0 
L 581 0 
L 581 3500 
L 1159 3500 
L 1159 2956 
Q 1366 3272 1645 3428 
Q 1925 3584 2291 3584 
Q 2894 3584 3203 3211 
Q 3513 2838 3513 2113 
z
" transform="scale(0.015625)"/>
      <path id="DejaVuSans-53" d="M 3425 4513 
L 3425 3897 
Q 3066 4069 2747 4153 
Q 2428 4238 2131 4238 
Q 1616 4238 1336 4038 
Q 1056 3838 1056 3469 
Q 1056 3159 1242 3001 
Q 1428 2844 1947 2747 
L 2328 2669 
Q 3034 2534 3370 2195 
Q 3706 1856 3706 1288 
Q 3706 609 3251 259 
Q 2797 -91 1919 -91 
Q 1588 -91 1214 -16 
Q 841 59 441 206 
L 441 856 
Q 825 641 1194 531 
Q 1563 422 1919 422 
Q 2459 422 2753 634 
Q 3047 847 3047 1241 
Q 3047 1584 2836 1778 
Q 2625 1972 2144 2069 
L 1759 2144 
Q 1053 2284 737 2584 
Q 422 2884 422 3419 
Q 422 4038 858 4394 
Q 1294 4750 2059 4750 
Q 2388 4750 2728 4690 
Q 3069 4631 3425 4513 
z
" transform="scale(0.015625)"/>
      <path id="DejaVuSans-38" d="M 2034 2216 
Q 1584 2216 1326 1975 
Q 1069 1734 1069 1313 
Q 1069 891 1326 650 
Q 1584 409 2034 409 
Q 2484 409 2743 651 
Q 3003 894 3003 1313 
Q 3003 1734 2745 1975 
Q 2488 2216 2034 2216 
z
M 1403 2484 
Q 997 2584 770 2862 
Q 544 3141 544 3541 
Q 544 4100 942 4425 
Q 1341 4750 2034 4750 
Q 2731 4750 3128 4425 
Q 3525 4100 3525 3541 
Q 3525 3141 3298 2862 
Q 3072 2584 2669 2484 
Q 3125 2378 3379 2068 
Q 3634 1759 3634 1313 
Q 3634 634 3220 271 
Q 2806 -91 2034 -91 
Q 1263 -91 848 271 
Q 434 634 434 1313 
Q 434 1759 690 2068 
Q 947 2378 1403 2484 
z
M 1172 3481 
Q 1172 3119 1398 2916 
Q 1625 2713 2034 2713 
Q 2441 2713 2670 2916 
Q 2900 3119 2900 3481 
Q 2900 3844 2670 4047 
Q 2441 4250 2034 4250 
Q 1625 4250 1398 4047 
Q 1172 3844 1172 3481 
z
" transform="scale(0.015625)"/>
      <path id="DejaVuSans-5f" d="M 3263 -1063 
L 3263 -1509 
L -63 -1509 
L -63 -1063 
L 3263 -1063 
z
" transform="scale(0.015625)"/>
      <path id="DejaVuSans-4c" d="M 628 4666 
L 1259 4666 
L 1259 531 
L 3531 531 
L 3531 0 
L 628 0 
L 628 4666 
z
" transform="scale(0.015625)"/>
      <path id="DejaVuSans-4d" d="M 628 4666 
L 1569 4666 
L 2759 1491 
L 3956 4666 
L 4897 4666 
L 4897 0 
L 4281 0 
L 4281 4097 
L 3078 897 
L 2444 897 
L 1241 4097 
L 1241 0 
L 628 0 
L 628 4666 
z
" transform="scale(0.015625)"/>
      <path id="DejaVuSans-49" d="M 628 4666 
L 1259 4666 
L 1259 0 
L 628 0 
L 628 4666 
z
" transform="scale(0.015625)"/>
      <path id="DejaVuSans-4e" d="M 628 4666 
L 1478 4666 
L 3547 763 
L 3547 4666 
L 4159 4666 
L 4159 0 
L 3309 0 
L 1241 3903 
L 1241 0 
L 628 0 
L 628 4666 
z
" transform="scale(0.015625)"/>
      <path id="DejaVuSans-55" d="M 556 4666 
L 1191 4666 
L 1191 1831 
Q 1191 1081 1462 751 
Q 1734 422 2344 422 
Q 2950 422 3222 751 
Q 3494 1081 3494 1831 
L 3494 4666 
L 4128 4666 
L 4128 1753 
Q 4128 841 3676 375 
Q 3225 -91 2344 -91 
Q 1459 -91 1007 375 
Q 556 841 556 1753 
L 556 4666 
z
" transform="scale(0.015625)"/>
      <path id="DejaVuSans-3a" d="M 750 794 
L 1409 794 
L 1409 0 
L 750 0 
L 750 794 
z
M 750 3309 
L 1409 3309 
L 1409 2516 
L 750 2516 
L 750 3309 
z
" transform="scale(0.015625)"/>
      <path id="DejaVuSans-3c9" d="M 1719 -91 
Q 422 -91 422 1766 
Q 422 2500 906 3500 
L 1525 3500 
Q 1078 2500 1078 1750 
Q 1078 397 1772 397 
Q 2406 397 2406 2078 
L 2938 2078 
Q 2938 397 3572 397 
Q 4266 397 4266 1750 
Q 4266 2500 3819 3500 
L 4438 3500 
Q 4922 2500 4922 1766 
Q 4922 -91 3625 -91 
Q 2775 -91 2672 844 
Q 2544 -91 1719 -91 
z
" transform="scale(0.015625)"/>
      <path id="DejaVuSans-76" d="M 191 3500 
L 800 3500 
L 1894 563 
L 2988 3500 
L 3597 3500 
L 2284 0 
L 1503 0 
L 191 3500 
z
" transform="scale(0.015625)"/>
      <path id="DejaVuSans-e0" d="M 2194 1759 
Q 1497 1759 1228 1600 
Q 959 1441 959 1056 
Q 959 750 1161 570 
Q 1363 391 1709 391 
Q 2188 391 2477 730 
Q 2766 1069 2766 1631 
L 2766 1759 
L 2194 1759 
z
M 3341 1997 
L 3341 0 
L 2766 0 
L 2766 531 
Q 2569 213 2275 61 
Q 1981 -91 1556 -91 
Q 1019 -91 701 211 
Q 384 513 384 1019 
Q 384 1609 779 1909 
Q 1175 2209 1959 2209 
L 2766 2209 
L 2766 2266 
Q 2766 2663 2505 2880 
Q 2244 3097 1772 3097 
Q 1472 3097 1187 3025 
Q 903 2953 641 2809 
L 641 3341 
Q 956 3463 1253 3523 
Q 1550 3584 1831 3584 
Q 2591 3584 2966 3190 
Q 3341 2797 3341 1997 
z
M 1403 5119 
L 2284 3950 
L 1806 3950 
L 787 5119 
L 1403 5119 
z
" transform="scale(0.015625)"/>
      <path id="DejaVuSans-2a" d="M 3009 3897 
L 1888 3291 
L 3009 2681 
L 2828 2375 
L 1778 3009 
L 1778 1831 
L 1422 1831 
L 1422 3009 
L 372 2375 
L 191 2681 
L 1313 3291 
L 191 3897 
L 372 4206 
L 1422 3572 
L 1422 4750 
L 1778 4750 
L 1778 3572 
L 2828 4206 
L 3009 3897 
z
" transform="scale(0.015625)"/>
     </defs>
     <use xlink:href="#DejaVuSans-4b"/>
     <use xlink:href="#DejaVuSans-1ecb" transform="translate(65.576172 0)"/>
     <use xlink:href="#DejaVuSans-63" transform="translate(93.359375 0)"/>
     <use xlink:href="#DejaVuSans-68" transform="translate(148.339844 0)"/>
     <use xlink:href="#DejaVuSans-20" transform="translate(211.71875 0)"/>
     <use xlink:href="#DejaVuSans-62" transform="translate(243.505859 0)"/>
     <use xlink:href="#DejaVuSans-1ea3" transform="translate(306.982422 0)"/>
     <use xlink:href="#DejaVuSans-6e" transform="translate(368.261719 0)"/>
     <use xlink:href="#DejaVuSans-20" transform="translate(431.640625 0)"/>
     <use xlink:href="#DejaVuSans-53" transform="translate(463.427734 0)"/>
     <use xlink:href="#DejaVuSans-38" transform="translate(526.904297 0)"/>
     <use xlink:href="#DejaVuSans-5f" transform="translate(590.527344 0)"/>
     <use xlink:href="#DejaVuSans-4c" transform="translate(640.527344 0)"/>
     <use xlink:href="#DejaVuSans-6d" transform="translate(696.240234 0)"/>
     <use xlink:href="#DejaVuSans-5f" transform="translate(793.652344 0)"/>
     <use xlink:href="#DejaVuSans-4d" transform="translate(843.652344 0)"/>
     <use xlink:href="#DejaVuSans-49" transform="translate(929.931641 0)"/>
     <use xlink:href="#DejaVuSans-4e" transform="translate(959.423828 0)"/>
     <use xlink:href="#DejaVuSans-55" transform="translate(1034.228516 0)"/>
     <use xlink:href="#DejaVuSans-53" transform="translate(1107.421875 0)"/>
     <use xlink:href="#DejaVuSans-31" transform="translate(1170.898438 0)"/>
     <use xlink:href="#DejaVuSans-30" transform="translate(1234.521484 0)"/>
     <use xlink:href="#DejaVuSans-3a" transform="translate(1298.144531 0)"/>
     <use xlink:href="#DejaVuSans-20" transform="translate(1331.835938 0)"/>
     <use xlink:href="#DejaVuSans-3c9" transform="translate(1363.623047 0)"/>
     <use xlink:href="#DejaVuSans-20" transform="translate(1447.363281 0)"/>
     <use xlink:href="#DejaVuSans-76" transform="translate(1479.150391 0)"/>
     <use xlink:href="#DejaVuSans-e0" transform="translate(1538.330078 0)"/>
     <use xlink:href="#DejaVuSans-20" transform="translate(1599.609375 0)"/>
     <use xlink:href="#DejaVuSans-3c9" transform="translate(1631.396484 0)"/>
     <use xlink:href="#DejaVuSans-2a" transform="translate(1715.136719 0)"/>
    </g>
   </g>
   <g id="legend_1">
    <g id="patch_7">
     <path d="M 562.40625 164.30125 
L 638.960938 164.30125 
Q 640.960938 164.30125 640.960938 162.30125 
L 640.960938 119.266875 
Q 640.960938 117.266875 638.960938 117.266875 
L 562.40625 117.266875 
Q 560.40625 117.266875 560.40625 119.266875 
L 560.40625 162.30125 
Q 560.40625 164.30125 562.40625 164.30125 
z
" style="fill: #ffffff; opacity: 0.8; stroke: #cccccc; stroke-linejoin: miter"/>
    </g>
    <g id="line2d_28">
     <path d="M 564.40625 125.365312 
L 574.40625 125.365312 
L 584.40625 125.365312 
" style="fill: none; stroke-dasharray: 7.4,3.2; stroke-dashoffset: 0; stroke: #1f77b4; stroke-width: 2"/>
    </g>
    <g id="text_8">
     <!-- ω* (rpm) -->
     <g transform="translate(592.40625 128.865312) scale(0.1 -0.1)">
      <defs>
       <path id="DejaVuSans-28" d="M 1984 4856 
Q 1566 4138 1362 3434 
Q 1159 2731 1159 2009 
Q 1159 1288 1364 580 
Q 1569 -128 1984 -844 
L 1484 -844 
Q 1016 -109 783 600 
Q 550 1309 550 2009 
Q 550 2706 781 3412 
Q 1013 4119 1484 4856 
L 1984 4856 
z
" transform="scale(0.015625)"/>
       <path id="DejaVuSans-29" d="M 513 4856 
L 1013 4856 
Q 1481 4119 1714 3412 
Q 1947 2706 1947 2009 
Q 1947 1309 1714 600 
Q 1481 -109 1013 -844 
L 513 -844 
Q 928 -128 1133 580 
Q 1338 1288 1338 2009 
Q 1338 2731 1133 3434 
Q 928 4138 513 4856 
z
" transform="scale(0.015625)"/>
      </defs>
      <use xlink:href="#DejaVuSans-3c9"/>
      <use xlink:href="#DejaVuSans-2a" transform="translate(83.740234 0)"/>
      <use xlink:href="#DejaVuSans-20" transform="translate(133.740234 0)"/>
      <use xlink:href="#DejaVuSans-28" transform="translate(165.527344 0)"/>
      <use xlink:href="#DejaVuSans-72" transform="translate(204.541016 0)"/>
      <use xlink:href="#DejaVuSans-70" transform="translate(245.654297 0)"/>
      <use xlink:href="#DejaVuSans-6d" transform="translate(309.130859 0)"/>
      <use xlink:href="#DejaVuSans-29" transform="translate(406.542969 0)"/>
     </g>
    </g>
    <g id="line2d_29">
     <path d="M 564.40625 140.043437 
L 574.40625 140.043437 
L 584.40625 140.043437 
" style="fill: none; stroke-dasharray: 12.8,3.2,2,3.2; stroke-dashoffset: 0; stroke: #ff7f0e; stroke-width: 2"/>
    </g>
    <g id="text_9">
     <!-- PID ω -->
     <g transform="translate(592.40625 143.543437) scale(0.1 -0.1)">
      <defs>
       <path id="DejaVuSans-50" d="M 1259 4147 
L 1259 2394 
L 2053 2394 
Q 2494 2394 2734 2622 
Q 2975 2850 2975 3272 
Q 2975 3691 2734 3919 
Q 2494 4147 2053 4147 
L 1259 4147 
z
M 628 4666 
L 2053 4666 
Q 2838 4666 3239 4311 
Q 3641 3956 3641 3272 
Q 3641 2581 3239 2228 
Q 2838 1875 2053 1875 
L 1259 1875 
L 1259 0 
L 628 0 
L 628 4666 
z
" transform="scale(0.015625)"/>
       <path id="DejaVuSans-44" d="M 1259 4147 
L 1259 519 
L 2022 519 
Q 2988 519 3436 956 
Q 3884 1394 3884 2338 
Q 3884 3275 3436 3711 
Q 2988 4147 2022 4147 
L 1259 4147 
z
M 628 4666 
L 1925 4666 
Q 3281 4666 3915 4102 
Q 4550 3538 4550 2338 
Q 4550 1131 3912 565 
Q 3275 0 1925 0 
L 628 0 
L 628 4666 
z
" transform="scale(0.015625)"/>
      </defs>
      <use xlink:href="#DejaVuSans-50"/>
      <use xlink:href="#DejaVuSans-49" transform="translate(60.302734 0)"/>
      <use xlink:href="#DejaVuSans-44" transform="translate(89.794922 0)"/>
      <use xlink:href="#DejaVuSans-20" transform="translate(166.796875 0)"/>
      <use xlink:href="#DejaVuSans-3c9" transform="translate(198.583984 0)"/>
     </g>
    </g>
    <g id="line2d_30">
     <path d="M 564.40625 154.721562 
L 574.40625 154.721562 
L 584.40625 154.721562 
" style="fill: none; stroke: #2ca02c; stroke-width: 2; stroke-linecap: square"/>
    </g>
    <g id="text_10">
     <!-- MPC ω -->
     <g transform="translate(592.40625 158.221562) scale(0.1 -0.1)">
      <defs>
       <path id="DejaVuSans-43" d="M 4122 4306 
L 4122 3641 
Q 3803 3938 3442 4084 
Q 3081 4231 2675 4231 
Q 1875 4231 1450 3742 
Q 1025 3253 1025 2328 
Q 1025 1406 1450 917 
Q 1875 428 2675 428 
Q 3081 428 3442 575 
Q 3803 722 4122 1019 
L 4122 359 
Q 3791 134 3420 21 
Q 3050 -91 2638 -91 
Q 1578 -91 968 557 
Q 359 1206 359 2328 
Q 359 3453 968 4101 
Q 1578 4750 2638 4750 
Q 3056 4750 3426 4639 
Q 3797 4528 4122 4306 
z
" transform="scale(0.015625)"/>
      </defs>
      <use xlink:href="#DejaVuSans-4d"/>
      <use xlink:href="#DejaVuSans-50" transform="translate(86.279297 0)"/>
      <use xlink:href="#DejaVuSans-43" transform="translate(146.582031 0)"/>
      <use xlink:href="#DejaVuSans-20" transform="translate(216.40625 0)"/>
      <use xlink:href="#DejaVuSans-3c9" transform="translate(248.193359 0)"/>
     </g>
    </g>
   </g>
  </g>
  <g id="axes_2">
   <g id="patch_8">
    <path d="M 56.840938 347.5025 
L 645.960938 347.5025 
L 645.960938 201.12125 
L 56.840938 201.12125 
z
" style="fill: #ffffff"/>
   </g>
   <g id="matplotlib.axis_3">
    <g id="xtick_8">
     <g id="line2d_31">
      <path d="M 83.619119 347.5025 
L 83.619119 201.12125 
" clip-path="url(#pa144159a3d)" style="fill: none; stroke: #cccccc; stroke-opacity: 0.6; stroke-width: 0.6; stroke-linecap: square"/>
     </g>
     <g id="line2d_32">
      <g>
       <use xlink:href="#m77dd42cc86" x="83.619119" y="347.5025" style="stroke: #000000; stroke-width: 0.8"/>
      </g>
     </g>
    </g>
    <g id="xtick_9">
     <g id="line2d_33">
      <path d="M 172.879725 347.5025 
L 172.879725 201.12125 
" clip-path="url(#pa144159a3d)" style="fill: none; stroke: #cccccc; stroke-opacity: 0.6; stroke-width: 0.6; stroke-linecap: square"/>
     </g>
     <g id="line2d_34">
      <g>
       <use xlink:href="#m77dd42cc86" x="172.879725" y="347.5025" style="stroke: #000000; stroke-width: 0.8"/>
      </g>
     </g>
    </g>
    <g id="xtick_10">
     <g id="line2d_35">
      <path d="M 262.140331 347.5025 
L 262.140331 201.12125 
" clip-path="url(#pa144159a3d)" style="fill: none; stroke: #cccccc; stroke-opacity: 0.6; stroke-width: 0.6; stroke-linecap: square"/>
     </g>
     <g id="line2d_36">
      <g>
       <use xlink:href="#m77dd42cc86" x="262.140331" y="347.5025" style="stroke: #000000; stroke-width: 0.8"/>
      </g>
     </g>
    </g>
    <g id="xtick_11">
     <g id="line2d_37">
      <path d="M 351.400938 347.5025 
L 351.400938 201.12125 
" clip-path="url(#pa144159a3d)" style="fill: none; stroke: #cccccc; stroke-opacity: 0.6; stroke-width: 0.6; stroke-linecap: square"/>
     </g>
     <g id="line2d_38">
      <g>
       <use xlink:href="#m77dd42cc86" x="351.400938" y="347.5025" style="stroke: #000000; stroke-width: 0.8"/>
      </g>
     </g>
    </g>
    <g id="xtick_12">
     <g id="line2d_39">
      <path d="M 440.661544 347.5025 
L 440.661544 201.12125 
" clip-path="url(#pa144159a3d)" style="fill: none; stroke: #cccccc; stroke-opacity: 0.6; stroke-width: 0.6; stroke-linecap: square"/>
     </g>
     <g id="line2d_40">
      <g>
       <use xlink:href="#m77dd42cc86" x="440.661544" y="347.5025" style="stroke: #000000; stroke-width: 0.8"/>
      </g>
     </g>
    </g>
    <g id="xtick_13">
     <g id="line2d_41">
      <path d="M 529.92215 347.5025 
L 529.92215 201.12125 
" clip-path="url(#pa144159a3d)" style="fill: none; stroke: #cccccc; stroke-opacity: 0.6; stroke-width: 0.6; stroke-linecap: square"/>
     </g>
     <g id="line2d_42">
      <g>
       <use xlink:href="#m77dd42cc86" x="529.92215" y="347.5025" style="stroke: #000000; stroke-width: 0.8"/>
      </g>
     </g>
    </g>
    <g id="xtick_14">
     <g id="line2d_43">
      <path d="M 619.182756 347.5025 
L 619.182756 201.12125 
" clip-path="url(#pa144159a3d)" style="fill: none; stroke: #cccccc; stroke-opacity: 0.6; stroke-width: 0.6; stroke-linecap: square"/>
     </g>
     <g id="line2d_44">
      <g>
       <use xlink:href="#m77dd42cc86" x="619.182756" y="347.5025" style="stroke: #000000; stroke-width: 0.8"/>
      </g>
     </g>
    </g>
   </g>
   <g id="matplotlib.axis_4">
    <g id="ytick_6">
     <g id="line2d_45">
      <path d="M 56.840938 340.848807 
L 645.960938 340.848807 
" clip-path="url(#pa144159a3d)" style="fill: none; stroke: #cccccc; stroke-opacity: 0.6; stroke-width: 0.6; stroke-linecap: square"/>
     </g>
     <g id="line2d_46">
      <g>
       <use xlink:href="#m418b3630d2" x="56.840938" y="340.848807" style="stroke: #000000; stroke-width: 0.8"/>
      </g>
     </g>
     <g id="text_11">
      <!-- −20 -->
      <g transform="translate(26.625781 345.027947) scale(0.11 -0.11)">
       <defs>
        <path id="DejaVuSans-2212" d="M 678 2272 
L 4684 2272 
L 4684 1741 
L 678 1741 
L 678 2272 
z
" transform="scale(0.015625)"/>
       </defs>
       <use xlink:href="#DejaVuSans-2212"/>
       <use xlink:href="#DejaVuSans-32" transform="translate(83.789062 0)"/>
       <use xlink:href="#DejaVuSans-30" transform="translate(147.412109 0)"/>
      </g>
     </g>
    </g>
    <g id="ytick_7">
     <g id="line2d_47">
      <path d="M 56.840938 307.580341 
L 645.960938 307.580341 
" clip-path="url(#pa144159a3d)" style="fill: none; stroke: #cccccc; stroke-opacity: 0.6; stroke-width: 0.6; stroke-linecap: square"/>
     </g>
     <g id="line2d_48">
      <g>
       <use xlink:href="#m418b3630d2" x="56.840938" y="307.580341" style="stroke: #000000; stroke-width: 0.8"/>
      </g>
     </g>
     <g id="text_12">
      <!-- −10 -->
      <g transform="translate(26.625781 311.759482) scale(0.11 -0.11)">
       <use xlink:href="#DejaVuSans-2212"/>
       <use xlink:href="#DejaVuSans-31" transform="translate(83.789062 0)"/>
       <use xlink:href="#DejaVuSans-30" transform="translate(147.412109 0)"/>
      </g>
     </g>
    </g>
    <g id="ytick_8">
     <g id="line2d_49">
      <path d="M 56.840938 274.311875 
L 645.960938 274.311875 
" clip-path="url(#pa144159a3d)" style="fill: none; stroke: #cccccc; stroke-opacity: 0.6; stroke-width: 0.6; stroke-linecap: square"/>
     </g>
     <g id="line2d_50">
      <g>
       <use xlink:href="#m418b3630d2" x="56.840938" y="274.311875" style="stroke: #000000; stroke-width: 0.8"/>
      </g>
     </g>
     <g id="text_13">
      <!-- 0 -->
      <g transform="translate(42.842188 278.491016) scale(0.11 -0.11)">
       <use xlink:href="#DejaVuSans-30"/>
      </g>
     </g>
    </g>
    <g id="ytick_9">
     <g id="line2d_51">
      <path d="M 56.840938 241.043409 
L 645.960938 241.043409 
" clip-path="url(#pa144159a3d)" style="fill: none; stroke: #cccccc; stroke-opacity: 0.6; stroke-width: 0.6; stroke-linecap: square"/>
     </g>
     <g id="line2d_52">
      <g>
       <use xlink:href="#m418b3630d2" x="56.840938" y="241.043409" style="stroke: #000000; stroke-width: 0.8"/>
      </g>
     </g>
     <g id="text_14">
      <!-- 10 -->
      <g transform="translate(35.843438 245.22255) scale(0.11 -0.11)">
       <use xlink:href="#DejaVuSans-31"/>
       <use xlink:href="#DejaVuSans-30" transform="translate(63.623047 0)"/>
      </g>
     </g>
    </g>
    <g id="ytick_10">
     <g id="line2d_53">
      <path d="M 56.840938 207.774943 
L 645.960938 207.774943 
" clip-path="url(#pa144159a3d)" style="fill: none; stroke: #cccccc; stroke-opacity: 0.6; stroke-width: 0.6; stroke-linecap: square"/>
     </g>
     <g id="line2d_54">
      <g>
       <use xlink:href="#m418b3630d2" x="56.840938" y="207.774943" style="stroke: #000000; stroke-width: 0.8"/>
      </g>
     </g>
     <g id="text_15">
      <!-- 20 -->
      <g transform="translate(35.843438 211.954084) scale(0.11 -0.11)">
       <use xlink:href="#DejaVuSans-32"/>
       <use xlink:href="#DejaVuSans-30" transform="translate(63.623047 0)"/>
      </g>
     </g>
    </g>
    <g id="text_16">
     <!-- A -->
     <g transform="translate(20.338125 278.074219) rotate(-90) scale(0.11 -0.11)">
      <defs>
       <path id="DejaVuSans-41" d="M 2188 4044 
L 1331 1722 
L 3047 1722 
L 2188 4044 
z
M 1831 4666 
L 2547 4666 
L 4325 0 
L 3669 0 
L 3244 1197 
L 1141 1197 
L 716 0 
L 50 0 
L 1831 4666 
z
" transform="scale(0.015625)"/>
      </defs>
      <use xlink:href="#DejaVuSans-41"/>
     </g>
    </g>
   </g>
   <g id="line2d_55">
    <path d="M 83.619119 274.311875 
L 136.996962 274.311875 
L 137.175483 207.774943 
L 186.625859 207.774943 
L 186.982901 215.064793 
L 188.23255 242.530023 
L 189.303677 261.749487 
L 190.374804 277.550323 
L 191.445931 290.3931 
L 192.517059 300.669449 
L 193.588186 308.720657 
L 194.480792 313.948817 
L 195.373398 317.998395 
L 196.266004 321.01187 
L 196.980089 322.764184 
L 197.694174 323.997527 
L 198.408259 324.768341 
L 198.943822 325.07448 
L 199.479386 325.170454 
L 200.01495 325.075611 
L 200.729034 324.683625 
L 201.443119 324.024749 
L 202.335725 322.881642 
L 203.406853 321.126347 
L 204.835022 318.295344 
L 206.798756 313.815764 
L 214.653689 295.258346 
L 216.795944 291.021496 
L 218.759677 287.604142 
L 220.72341 284.640678 
L 222.508622 282.328887 
L 224.293834 280.359837 
L 226.079047 278.70654 
L 227.864259 277.338548 
L 229.827992 276.125227 
L 231.791725 275.176302 
L 233.93398 274.395213 
L 236.254756 273.793772 
L 238.932574 273.346794 
L 241.967434 273.074817 
L 245.894901 272.965342 
L 251.60758 273.058172 
L 274.458295 273.621988 
L 292.310416 273.683548 
L 351.400938 273.673239 
L 353.007628 268.080711 
L 354.435798 264.000478 
L 355.863968 260.63705 
L 357.292138 257.887882 
L 358.720307 255.669074 
L 359.969956 254.105034 
L 361.398125 252.689848 
L 362.826295 251.614939 
L 364.254465 250.826894 
L 365.682634 250.278046 
L 367.289325 249.894155 
L 369.074538 249.696786 
L 371.216792 249.696568 
L 373.89461 249.939025 
L 377.822077 250.547588 
L 387.640744 252.143343 
L 392.817859 252.711178 
L 398.352016 253.089373 
L 405.135822 253.31748 
L 414.954489 253.402348 
L 467.082683 253.346815 
L 619.182756 253.347429 
L 619.182756 253.347429 
" clip-path="url(#pa144159a3d)" style="fill: none; stroke-dasharray: 12.8,3.2,2,3.2; stroke-dashoffset: 0; stroke: #1f77b4; stroke-width: 2"/>
   </g>
   <g id="line2d_56">
    <path d="M 83.619119 274.311875 
L 136.996962 274.311875 
L 137.175483 207.774943 
L 170.915992 207.774943 
L 171.094513 208.531476 
L 171.451556 220.967006 
L 172.344162 258.24542 
L 172.701204 266.525749 
L 173.058247 271.062707 
L 173.415289 273.025382 
L 173.772331 273.516718 
L 174.129374 273.346979 
L 175.02198 272.655753 
L 175.557544 272.617308 
L 176.45015 272.921918 
L 177.699798 273.322116 
L 179.127968 273.508925 
L 182.162828 273.626516 
L 191.26741 273.663139 
L 351.222416 273.673318 
L 351.579459 259.173777 
L 351.936501 251.997144 
L 352.293544 249.412647 
L 352.472065 249.180119 
L 352.650586 249.370777 
L 353.007628 250.404471 
L 353.721713 252.635363 
L 354.257277 253.492333 
L 354.614319 253.705799 
L 355.149883 253.725292 
L 357.64918 253.377534 
L 364.96855 253.349737 
L 619.182756 253.347417 
L 619.182756 253.347417 
" clip-path="url(#pa144159a3d)" style="fill: none; stroke: #ff7f0e; stroke-width: 2; stroke-linecap: square"/>
   </g>
   <g id="line2d_57">
    <path d="M 83.619119 207.774943 
L 619.182756 207.774943 
L 619.182756 207.774943 
" clip-path="url(#pa144159a3d)" style="fill: none; stroke-dasharray: 2,3.3; stroke-dashoffset: 0; stroke: #2ca02c; stroke-width: 2"/>
   </g>
   <g id="line2d_58">
    <path d="M 83.619119 340.848807 
L 619.182756 340.848807 
L 619.182756 340.848807 
" clip-path="url(#pa144159a3d)" style="fill: none; stroke-dasharray: 2,3.3; stroke-dashoffset: 0; stroke: #d62728; stroke-width: 2"/>
   </g>
   <g id="patch_9">
    <path d="M 56.840938 347.5025 
L 56.840938 201.12125 
" style="fill: none; stroke: #000000; stroke-width: 0.8; stroke-linejoin: miter; stroke-linecap: square"/>
   </g>
   <g id="patch_10">
    <path d="M 645.960938 347.5025 
L 645.960938 201.12125 
" style="fill: none; stroke: #000000; stroke-width: 0.8; stroke-linejoin: miter; stroke-linecap: square"/>
   </g>
   <g id="patch_11">
    <path d="M 56.840938 347.5025 
L 645.960938 347.5025 
" style="fill: none; stroke: #000000; stroke-width: 0.8; stroke-linejoin: miter; stroke-linecap: square"/>
   </g>
   <g id="patch_12">
    <path d="M 56.840938 201.12125 
L 645.960938 201.12125 
" style="fill: none; stroke: #000000; stroke-width: 0.8; stroke-linejoin: miter; stroke-linecap: square"/>
   </g>
   <g id="text_17">
    <!-- Lệnh dòng i_q* và giới hạn -->
    <g transform="translate(271.334687 195.12125) scale(0.12 -0.12)">
     <defs>
      <path id="DejaVuSans-1ec7" d="M 1738 -441 
L 2313 -441 
L 2313 -1172 
L 1738 -1172 
L 1738 -441 
z
M 3597 1894 
L 3597 1613 
L 953 1613 
Q 991 1019 1311 708 
Q 1631 397 2203 397 
Q 2534 397 2845 478 
Q 3156 559 3463 722 
L 3463 178 
Q 3153 47 2828 -22 
Q 2503 -91 2169 -91 
Q 1331 -91 842 396 
Q 353 884 353 1716 
Q 353 2575 817 3079 
Q 1281 3584 2069 3584 
Q 2775 3584 3186 3129 
Q 3597 2675 3597 1894 
z
M 3022 2063 
Q 3016 2534 2758 2815 
Q 2500 3097 2075 3097 
Q 1594 3097 1305 2825 
Q 1016 2553 972 2059 
L 3022 2063 
z
M 1738 -441 
L 2313 -441 
L 2313 -1172 
L 1738 -1172 
L 1738 -441 
z
M 1801 5119 
L 2263 5119 
L 3029 3944 
L 2595 3944 
L 2032 4709 
L 1470 3944 
L 1035 3944 
L 1801 5119 
z
" transform="scale(0.015625)"/>
      <path id="DejaVuSans-64" d="M 2906 2969 
L 2906 4863 
L 3481 4863 
L 3481 0 
L 2906 0 
L 2906 525 
Q 2725 213 2448 61 
Q 2172 -91 1784 -91 
Q 1150 -91 751 415 
Q 353 922 353 1747 
Q 353 2572 751 3078 
Q 1150 3584 1784 3584 
Q 2172 3584 2448 3432 
Q 2725 3281 2906 2969 
z
M 947 1747 
Q 947 1113 1208 752 
Q 1469 391 1925 391 
Q 2381 391 2643 752 
Q 2906 1113 2906 1747 
Q 2906 2381 2643 2742 
Q 2381 3103 1925 3103 
Q 1469 3103 1208 2742 
Q 947 2381 947 1747 
z
" transform="scale(0.015625)"/>
      <path id="DejaVuSans-f2" d="M 1959 3097 
Q 1497 3097 1228 2736 
Q 959 2375 959 1747 
Q 959 1119 1226 758 
Q 1494 397 1959 397 
Q 2419 397 2687 759 
Q 2956 1122 2956 1747 
Q 2956 2369 2687 2733 
Q 2419 3097 1959 3097 
z
M 1959 3584 
Q 2709 3584 3137 3096 
Q 3566 2609 3566 1747 
Q 3566 888 3137 398 
Q 2709 -91 1959 -91 
Q 1206 -91 779 398 
Q 353 888 353 1747 
Q 353 2609 779 3096 
Q 1206 3584 1959 3584 
z
M 1507 5119 
L 2388 3950 
L 1910 3950 
L 891 5119 
L 1507 5119 
z
" transform="scale(0.015625)"/>
      <path id="DejaVuSans-67" d="M 2906 1791 
Q 2906 2416 2648 2759 
Q 2391 3103 1925 3103 
Q 1463 3103 1205 2759 
Q 947 2416 947 1791 
Q 947 1169 1205 825 
Q 1463 481 1925 481 
Q 2391 481 2648 825 
Q 2906 1169 2906 1791 
z
M 3481 434 
Q 3481 -459 3084 -895 
Q 2688 -1331 1869 -1331 
Q 1566 -1331 1297 -1286 
Q 1028 -1241 775 -1147 
L 775 -588 
Q 1028 -725 1275 -790 
Q 1522 -856 1778 -856 
Q 2344 -856 2625 -561 
Q 2906 -266 2906 331 
L 2906 616 
Q 2728 306 2450 153 
Q 2172 0 1784 0 
Q 1141 0 747 490 
Q 353 981 353 1791 
Q 353 2603 747 3093 
Q 1141 3584 1784 3584 
Q 2172 3584 2450 3431 
Q 2728 3278 2906 2969 
L 2906 3500 
L 3481 3500 
L 3481 434 
z
" transform="scale(0.015625)"/>
      <path id="DejaVuSans-69" d="M 603 3500 
L 1178 3500 
L 1178 0 
L 603 0 
L 603 3500 
z
M 603 4863 
L 1178 4863 
L 1178 4134 
L 603 4134 
L 603 4863 
z
" transform="scale(0.015625)"/>
      <path id="DejaVuSans-71" d="M 947 1747 
Q 947 1113 1208 752 
Q 1469 391 1925 391 
Q 2381 391 2643 752 
Q 2906 1113 2906 1747 
Q 2906 2381 2643 2742 
Q 2381 3103 1925 3103 
Q 1469 3103 1208 2742 
Q 947 2381 947 1747 
z
M 2906 525 
Q 2725 213 2448 61 
Q 2172 -91 1784 -91 
Q 1150 -91 751 415 
Q 353 922 353 1747 
Q 353 2572 751 3078 
Q 1150 3584 1784 3584 
Q 2172 3584 2448 3432 
Q 2725 3281 2906 2969 
L 2906 3500 
L 3481 3500 
L 3481 -1331 
L 2906 -1331 
L 2906 525 
z
" transform="scale(0.015625)"/>
      <path id="DejaVuSans-1edb" d="M 2394 5119 
L 3016 5119 
L 1998 3944 
L 1519 3944 
L 2394 5119 
z
M 2622 3136 
L 2622 3508 
Q 2813 3367 2950 3300 
Q 3088 3233 3185 3233 
Q 3328 3233 3400 3319 
Q 3472 3405 3472 3573 
Q 3472 3673 3448 3770 
Q 3425 3867 3378 3964 
L 3794 3964 
Q 3825 3845 3840 3739 
Q 3856 3633 3856 3539 
Q 3856 3158 3720 2978 
Q 3585 2798 3294 2798 
Q 3144 2798 2980 2881 
Q 2816 2964 2622 3136 
z
M 1975 3097 
Q 1513 3097 1244 2736 
Q 975 2375 975 1747 
Q 975 1119 1242 758 
Q 1510 397 1975 397 
Q 2435 397 2703 759 
Q 2972 1122 2972 1747 
Q 2972 2369 2703 2733 
Q 2435 3097 1975 3097 
z
M 1975 3584 
Q 2725 3584 3153 3096 
Q 3582 2609 3582 1747 
Q 3582 888 3153 398 
Q 2725 -91 1975 -91 
Q 1222 -91 795 398 
Q 369 888 369 1747 
Q 369 2609 795 3096 
Q 1222 3584 1975 3584 
z
" transform="scale(0.015625)"/>
      <path id="DejaVuSans-1ea1" d="M 1410 -441 
L 1985 -441 
L 1985 -1172 
L 1410 -1172 
L 1410 -441 
z
M 2194 1759 
Q 1497 1759 1228 1600 
Q 959 1441 959 1056 
Q 959 750 1161 570 
Q 1363 391 1709 391 
Q 2188 391 2477 730 
Q 2766 1069 2766 1631 
L 2766 1759 
L 2194 1759 
z
M 3341 1997 
L 3341 0 
L 2766 0 
L 2766 531 
Q 2569 213 2275 61 
Q 1981 -91 1556 -91 
Q 1019 -91 701 211 
Q 384 513 384 1019 
Q 384 1609 779 1909 
Q 1175 2209 1959 2209 
L 2766 2209 
L 2766 2266 
Q 2766 2663 2505 2880 
Q 2244 3097 1772 3097 
Q 1472 3097 1187 3025 
Q 903 2953 641 2809 
L 641 3341 
Q 956 3463 1253 3523 
Q 1550 3584 1831 3584 
Q 2591 3584 2966 3190 
Q 3341 2797 3341 1997 
z
" transform="scale(0.015625)"/>
     </defs>
     <use xlink:href="#DejaVuSans-4c"/>
     <use xlink:href="#DejaVuSans-1ec7" transform="translate(55.712891 0)"/>
     <use xlink:href="#DejaVuSans-6e" transform="translate(117.236328 0)"/>
     <use xlink:href="#DejaVuSans-68" transform="translate(180.615234 0)"/>
     <use xlink:href="#DejaVuSans-20" transform="translate(243.994141 0)"/>
     <use xlink:href="#DejaVuSans-64" transform="translate(275.78125 0)"/>
     <use xlink:href="#DejaVuSans-f2" transform="translate(339.257812 0)"/>
     <use xlink:href="#DejaVuSans-6e" transform="translate(400.439453 0)"/>
     <use xlink:href="#DejaVuSans-67" transform="translate(463.818359 0)"/>
     <use xlink:href="#DejaVuSans-20" transform="translate(527.294922 0)"/>
     <use xlink:href="#DejaVuSans-69" transform="translate(559.082031 0)"/>
     <use xlink:href="#DejaVuSans-5f" transform="translate(586.865234 0)"/>
     <use xlink:href="#DejaVuSans-71" transform="translate(636.865234 0)"/>
     <use xlink:href="#DejaVuSans-2a" transform="translate(700.341797 0)"/>
     <use xlink:href="#DejaVuSans-20" transform="translate(750.341797 0)"/>
     <use xlink:href="#DejaVuSans-76" transform="translate(782.128906 0)"/>
     <use xlink:href="#DejaVuSans-e0" transform="translate(841.308594 0)"/>
     <use xlink:href="#DejaVuSans-20" transform="translate(902.587891 0)"/>
     <use xlink:href="#DejaVuSans-67" transform="translate(934.375 0)"/>
     <use xlink:href="#DejaVuSans-69" transform="translate(997.851562 0)"/>
     <use xlink:href="#DejaVuSans-1edb" transform="translate(1025.634766 0)"/>
     <use xlink:href="#DejaVuSans-69" transform="translate(1086.816406 0)"/>
     <use xlink:href="#DejaVuSans-20" transform="translate(1114.599609 0)"/>
     <use xlink:href="#DejaVuSans-68" transform="translate(1146.386719 0)"/>
     <use xlink:href="#DejaVuSans-1ea1" transform="translate(1209.765625 0)"/>
     <use xlink:href="#DejaVuSans-6e" transform="translate(1271.044922 0)"/>
    </g>
   </g>
   <g id="legend_2">
    <g id="patch_13">
     <path d="M 484.640625 290.768125 
L 638.960938 290.768125 
Q 640.960938 290.768125 640.960938 288.768125 
L 640.960938 259.855625 
Q 640.960938 257.855625 638.960938 257.855625 
L 484.640625 257.855625 
Q 482.640625 257.855625 482.640625 259.855625 
L 482.640625 288.768125 
Q 482.640625 290.768125 484.640625 290.768125 
z
" style="fill: #ffffff; opacity: 0.8; stroke: #cccccc; stroke-linejoin: miter"/>
    </g>
    <g id="line2d_59">
     <path d="M 486.640625 265.954062 
L 496.640625 265.954062 
L 506.640625 265.954062 
" style="fill: none; stroke-dasharray: 12.8,3.2,2,3.2; stroke-dashoffset: 0; stroke: #1f77b4; stroke-width: 2"/>
    </g>
    <g id="text_18">
     <!-- PID i_q* -->
     <g transform="translate(514.640625 269.454062) scale(0.1 -0.1)">
      <use xlink:href="#DejaVuSans-50"/>
      <use xlink:href="#DejaVuSans-49" transform="translate(60.302734 0)"/>
      <use xlink:href="#DejaVuSans-44" transform="translate(89.794922 0)"/>
      <use xlink:href="#DejaVuSans-20" transform="translate(166.796875 0)"/>
      <use xlink:href="#DejaVuSans-69" transform="translate(198.583984 0)"/>
      <use xlink:href="#DejaVuSans-5f" transform="translate(226.367188 0)"/>
      <use xlink:href="#DejaVuSans-71" transform="translate(276.367188 0)"/>
      <use xlink:href="#DejaVuSans-2a" transform="translate(339.84375 0)"/>
     </g>
    </g>
    <g id="line2d_60">
     <path d="M 486.640625 280.910312 
L 496.640625 280.910312 
L 506.640625 280.910312 
" style="fill: none; stroke: #ff7f0e; stroke-width: 2; stroke-linecap: square"/>
    </g>
    <g id="text_19">
     <!-- MPC i_q* -->
     <g transform="translate(514.640625 284.410312) scale(0.1 -0.1)">
      <use xlink:href="#DejaVuSans-4d"/>
      <use xlink:href="#DejaVuSans-50" transform="translate(86.279297 0)"/>
      <use xlink:href="#DejaVuSans-43" transform="translate(146.582031 0)"/>
      <use xlink:href="#DejaVuSans-20" transform="translate(216.40625 0)"/>
      <use xlink:href="#DejaVuSans-69" transform="translate(248.193359 0)"/>
      <use xlink:href="#DejaVuSans-5f" transform="translate(275.976562 0)"/>
      <use xlink:href="#DejaVuSans-71" transform="translate(325.976562 0)"/>
      <use xlink:href="#DejaVuSans-2a" transform="translate(389.453125 0)"/>
     </g>
    </g>
    <g id="line2d_61">
     <path d="M 578.585938 265.954062 
L 588.585938 265.954062 
L 598.585938 265.954062 
" style="fill: none; stroke-dasharray: 2,3.3; stroke-dashoffset: 0; stroke: #2ca02c; stroke-width: 2"/>
    </g>
    <g id="text_20">
     <!-- +limit -->
     <g transform="translate(606.585938 269.454062) scale(0.1 -0.1)">
      <defs>
       <path id="DejaVuSans-2b" d="M 2944 4013 
L 2944 2272 
L 4684 2272 
L 4684 1741 
L 2944 1741 
L 2944 0 
L 2419 0 
L 2419 1741 
L 678 1741 
L 678 2272 
L 2419 2272 
L 2419 4013 
L 2944 4013 
z
" transform="scale(0.015625)"/>
       <path id="DejaVuSans-6c" d="M 603 4863 
L 1178 4863 
L 1178 0 
L 603 0 
L 603 4863 
z
" transform="scale(0.015625)"/>
       <path id="DejaVuSans-74" d="M 1172 4494 
L 1172 3500 
L 2356 3500 
L 2356 3053 
L 1172 3053 
L 1172 1153 
Q 1172 725 1289 603 
Q 1406 481 1766 481 
L 2356 481 
L 2356 0 
L 1766 0 
Q 1100 0 847 248 
Q 594 497 594 1153 
L 594 3053 
L 172 3053 
L 172 3500 
L 594 3500 
L 594 4494 
L 1172 4494 
z
" transform="scale(0.015625)"/>
      </defs>
      <use xlink:href="#DejaVuSans-2b"/>
      <use xlink:href="#DejaVuSans-6c" transform="translate(83.789062 0)"/>
      <use xlink:href="#DejaVuSans-69" transform="translate(111.572266 0)"/>
      <use xlink:href="#DejaVuSans-6d" transform="translate(139.355469 0)"/>
      <use xlink:href="#DejaVuSans-69" transform="translate(236.767578 0)"/>
      <use xlink:href="#DejaVuSans-74" transform="translate(264.550781 0)"/>
     </g>
    </g>
    <g id="line2d_62">
     <path d="M 578.585938 280.632187 
L 588.585938 280.632187 
L 598.585938 280.632187 
" style="fill: none; stroke-dasharray: 2,3.3; stroke-dashoffset: 0; stroke: #d62728; stroke-width: 2"/>
    </g>
    <g id="text_21">
     <!-- -limit -->
     <g transform="translate(606.585938 284.132187) scale(0.1 -0.1)">
      <defs>
       <path id="DejaVuSans-2d" d="M 313 2009 
L 1997 2009 
L 1997 1497 
L 313 1497 
L 313 2009 
z
" transform="scale(0.015625)"/>
      </defs>
      <use xlink:href="#DejaVuSans-2d"/>
      <use xlink:href="#DejaVuSans-6c" transform="translate(36.083984 0)"/>
      <use xlink:href="#DejaVuSans-69" transform="translate(63.867188 0)"/>
      <use xlink:href="#DejaVuSans-6d" transform="translate(91.650391 0)"/>
      <use xlink:href="#DejaVuSans-69" transform="translate(189.0625 0)"/>
      <use xlink:href="#DejaVuSans-74" transform="translate(216.845703 0)"/>
     </g>
    </g>
   </g>
  </g>
  <g id="axes_3">
   <g id="patch_14">
    <path d="M 56.840938 525.70375 
L 645.960938 525.70375 
L 645.960938 379.3225 
L 56.840938 379.3225 
z
" style="fill: #ffffff"/>
   </g>
   <g id="matplotlib.axis_5">
    <g id="xtick_15">
     <g id="line2d_63">
      <path d="M 83.619119 525.70375 
L 83.619119 379.3225 
" clip-path="url(#p2384aebde3)" style="fill: none; stroke: #cccccc; stroke-opacity: 0.6; stroke-width: 0.6; stroke-linecap: square"/>
     </g>
     <g id="line2d_64">
      <g>
       <use xlink:href="#m77dd42cc86" x="83.619119" y="525.70375" style="stroke: #000000; stroke-width: 0.8"/>
      </g>
     </g>
     <g id="text_22">
      <!-- 0.0 -->
      <g transform="translate(74.872401 541.062031) scale(0.11 -0.11)">
       <defs>
        <path id="DejaVuSans-2e" d="M 684 794 
L 1344 794 
L 1344 0 
L 684 0 
L 684 794 
z
" transform="scale(0.015625)"/>
       </defs>
       <use xlink:href="#DejaVuSans-30"/>
       <use xlink:href="#DejaVuSans-2e" transform="translate(63.623047 0)"/>
       <use xlink:href="#DejaVuSans-30" transform="translate(95.410156 0)"/>
      </g>
     </g>
    </g>
    <g id="xtick_16">
     <g id="line2d_65">
      <path d="M 172.879725 525.70375 
L 172.879725 379.3225 
" clip-path="url(#p2384aebde3)" style="fill: none; stroke: #cccccc; stroke-opacity: 0.6; stroke-width: 0.6; stroke-linecap: square"/>
     </g>
     <g id="line2d_66">
      <g>
       <use xlink:href="#m77dd42cc86" x="172.879725" y="525.70375" style="stroke: #000000; stroke-width: 0.8"/>
      </g>
     </g>
     <g id="text_23">
      <!-- 0.5 -->
      <g transform="translate(164.133007 541.062031) scale(0.11 -0.11)">
       <use xlink:href="#DejaVuSans-30"/>
       <use xlink:href="#DejaVuSans-2e" transform="translate(63.623047 0)"/>
       <use xlink:href="#DejaVuSans-35" transform="translate(95.410156 0)"/>
      </g>
     </g>
    </g>
    <g id="xtick_17">
     <g id="line2d_67">
      <path d="M 262.140331 525.70375 
L 262.140331 379.3225 
" clip-path="url(#p2384aebde3)" style="fill: none; stroke: #cccccc; stroke-opacity: 0.6; stroke-width: 0.6; stroke-linecap: square"/>
     </g>
     <g id="line2d_68">
      <g>
       <use xlink:href="#m77dd42cc86" x="262.140331" y="525.70375" style="stroke: #000000; stroke-width: 0.8"/>
      </g>
     </g>
     <g id="text_24">
      <!-- 1.0 -->
      <g transform="translate(253.393613 541.062031) scale(0.11 -0.11)">
       <use xlink:href="#DejaVuSans-31"/>
       <use xlink:href="#DejaVuSans-2e" transform="translate(63.623047 0)"/>
       <use xlink:href="#DejaVuSans-30" transform="translate(95.410156 0)"/>
      </g>
     </g>
    </g>
    <g id="xtick_18">
     <g id="line2d_69">
      <path d="M 351.400938 525.70375 
L 351.400938 379.3225 
" clip-path="url(#p2384aebde3)" style="fill: none; stroke: #cccccc; stroke-opacity: 0.6; stroke-width: 0.6; stroke-linecap: square"/>
     </g>
     <g id="line2d_70">
      <g>
       <use xlink:href="#m77dd42cc86" x="351.400938" y="525.70375" style="stroke: #000000; stroke-width: 0.8"/>
      </g>
     </g>
     <g id="text_25">
      <!-- 1.5 -->
      <g transform="translate(342.654219 541.062031) scale(0.11 -0.11)">
       <use xlink:href="#DejaVuSans-31"/>
       <use xlink:href="#DejaVuSans-2e" transform="translate(63.623047 0)"/>
       <use xlink:href="#DejaVuSans-35" transform="translate(95.410156 0)"/>
      </g>
     </g>
    </g>
    <g id="xtick_19">
     <g id="line2d_71">
      <path d="M 440.661544 525.70375 
L 440.661544 379.3225 
" clip-path="url(#p2384aebde3)" style="fill: none; stroke: #cccccc; stroke-opacity: 0.6; stroke-width: 0.6; stroke-linecap: square"/>
     </g>
     <g id="line2d_72">
      <g>
       <use xlink:href="#m77dd42cc86" x="440.661544" y="525.70375" style="stroke: #000000; stroke-width: 0.8"/>
      </g>
     </g>
     <g id="text_26">
      <!-- 2.0 -->
      <g transform="translate(431.914825 541.062031) scale(0.11 -0.11)">
       <use xlink:href="#DejaVuSans-32"/>
       <use xlink:href="#DejaVuSans-2e" transform="translate(63.623047 0)"/>
       <use xlink:href="#DejaVuSans-30" transform="translate(95.410156 0)"/>
      </g>
     </g>
    </g>
    <g id="xtick_20">
     <g id="line2d_73">
      <path d="M 529.92215 525.70375 
L 529.92215 379.3225 
" clip-path="url(#p2384aebde3)" style="fill: none; stroke: #cccccc; stroke-opacity: 0.6; stroke-width: 0.6; stroke-linecap: square"/>
     </g>
     <g id="line2d_74">
      <g>
       <use xlink:href="#m77dd42cc86" x="529.92215" y="525.70375" style="stroke: #000000; stroke-width: 0.8"/>
      </g>
     </g>
     <g id="text_27">
      <!-- 2.5 -->
      <g transform="translate(521.175431 541.062031) scale(0.11 -0.11)">
       <use xlink:href="#DejaVuSans-32"/>
       <use xlink:href="#DejaVuSans-2e" transform="translate(63.623047 0)"/>
       <use xlink:href="#DejaVuSans-35" transform="translate(95.410156 0)"/>
      </g>
     </g>
    </g>
    <g id="xtick_21">
     <g id="line2d_75">
      <path d="M 619.182756 525.70375 
L 619.182756 379.3225 
" clip-path="url(#p2384aebde3)" style="fill: none; stroke: #cccccc; stroke-opacity: 0.6; stroke-width: 0.6; stroke-linecap: square"/>
     </g>
     <g id="line2d_76">
      <g>
       <use xlink:href="#m77dd42cc86" x="619.182756" y="525.70375" style="stroke: #000000; stroke-width: 0.8"/>
      </g>
     </g>
     <g id="text_28">
      <!-- 3.0 -->
      <g transform="translate(610.436037 541.062031) scale(0.11 -0.11)">
       <defs>
        <path id="DejaVuSans-33" d="M 2597 2516 
Q 3050 2419 3304 2112 
Q 3559 1806 3559 1356 
Q 3559 666 3084 287 
Q 2609 -91 1734 -91 
Q 1441 -91 1130 -33 
Q 819 25 488 141 
L 488 750 
Q 750 597 1062 519 
Q 1375 441 1716 441 
Q 2309 441 2620 675 
Q 2931 909 2931 1356 
Q 2931 1769 2642 2001 
Q 2353 2234 1838 2234 
L 1294 2234 
L 1294 2753 
L 1863 2753 
Q 2328 2753 2575 2939 
Q 2822 3125 2822 3475 
Q 2822 3834 2567 4026 
Q 2313 4219 1838 4219 
Q 1578 4219 1281 4162 
Q 984 4106 628 3988 
L 628 4550 
Q 988 4650 1302 4700 
Q 1616 4750 1894 4750 
Q 2613 4750 3031 4423 
Q 3450 4097 3450 3541 
Q 3450 3153 3228 2886 
Q 3006 2619 2597 2516 
z
" transform="scale(0.015625)"/>
       </defs>
       <use xlink:href="#DejaVuSans-33"/>
       <use xlink:href="#DejaVuSans-2e" transform="translate(63.623047 0)"/>
       <use xlink:href="#DejaVuSans-30" transform="translate(95.410156 0)"/>
      </g>
     </g>
    </g>
    <g id="text_29">
     <!-- t (s) -->
     <g transform="translate(340.339922 555.707969) scale(0.11 -0.11)">
      <defs>
       <path id="DejaVuSans-73" d="M 2834 3397 
L 2834 2853 
Q 2591 2978 2328 3040 
Q 2066 3103 1784 3103 
Q 1356 3103 1142 2972 
Q 928 2841 928 2578 
Q 928 2378 1081 2264 
Q 1234 2150 1697 2047 
L 1894 2003 
Q 2506 1872 2764 1633 
Q 3022 1394 3022 966 
Q 3022 478 2636 193 
Q 2250 -91 1575 -91 
Q 1294 -91 989 -36 
Q 684 19 347 128 
L 347 722 
Q 666 556 975 473 
Q 1284 391 1588 391 
Q 1994 391 2212 530 
Q 2431 669 2431 922 
Q 2431 1156 2273 1281 
Q 2116 1406 1581 1522 
L 1381 1569 
Q 847 1681 609 1914 
Q 372 2147 372 2553 
Q 372 3047 722 3315 
Q 1072 3584 1716 3584 
Q 2034 3584 2315 3537 
Q 2597 3491 2834 3397 
z
" transform="scale(0.015625)"/>
      </defs>
      <use xlink:href="#DejaVuSans-74"/>
      <use xlink:href="#DejaVuSans-20" transform="translate(39.208984 0)"/>
      <use xlink:href="#DejaVuSans-28" transform="translate(70.996094 0)"/>
      <use xlink:href="#DejaVuSans-73" transform="translate(110.009766 0)"/>
      <use xlink:href="#DejaVuSans-29" transform="translate(162.109375 0)"/>
     </g>
    </g>
   </g>
   <g id="matplotlib.axis_6">
    <g id="ytick_11">
     <g id="line2d_77">
      <path d="M 56.840938 507.468462 
L 645.960938 507.468462 
" clip-path="url(#p2384aebde3)" style="fill: none; stroke: #cccccc; stroke-opacity: 0.6; stroke-width: 0.6; stroke-linecap: square"/>
     </g>
     <g id="line2d_78">
      <g>
       <use xlink:href="#m418b3630d2" x="56.840938" y="507.468462" style="stroke: #000000; stroke-width: 0.8"/>
      </g>
     </g>
     <g id="text_30">
      <!-- −10 -->
      <g transform="translate(26.625781 511.647603) scale(0.11 -0.11)">
       <use xlink:href="#DejaVuSans-2212"/>
       <use xlink:href="#DejaVuSans-31" transform="translate(83.789062 0)"/>
       <use xlink:href="#DejaVuSans-30" transform="translate(147.412109 0)"/>
      </g>
     </g>
    </g>
    <g id="ytick_12">
     <g id="line2d_79">
      <path d="M 56.840938 461.664491 
L 645.960938 461.664491 
" clip-path="url(#p2384aebde3)" style="fill: none; stroke: #cccccc; stroke-opacity: 0.6; stroke-width: 0.6; stroke-linecap: square"/>
     </g>
     <g id="line2d_80">
      <g>
       <use xlink:href="#m418b3630d2" x="56.840938" y="461.664491" style="stroke: #000000; stroke-width: 0.8"/>
      </g>
     </g>
     <g id="text_31">
      <!-- 0 -->
      <g transform="translate(42.842188 465.843632) scale(0.11 -0.11)">
       <use xlink:href="#DejaVuSans-30"/>
      </g>
     </g>
    </g>
    <g id="ytick_13">
     <g id="line2d_81">
      <path d="M 56.840938 415.86052 
L 645.960938 415.86052 
" clip-path="url(#p2384aebde3)" style="fill: none; stroke: #cccccc; stroke-opacity: 0.6; stroke-width: 0.6; stroke-linecap: square"/>
     </g>
     <g id="line2d_82">
      <g>
       <use xlink:href="#m418b3630d2" x="56.840938" y="415.86052" style="stroke: #000000; stroke-width: 0.8"/>
      </g>
     </g>
     <g id="text_32">
      <!-- 10 -->
      <g transform="translate(35.843438 420.03966) scale(0.11 -0.11)">
       <use xlink:href="#DejaVuSans-31"/>
       <use xlink:href="#DejaVuSans-30" transform="translate(63.623047 0)"/>
      </g>
     </g>
    </g>
    <g id="text_33">
     <!-- N·m -->
     <g transform="translate(20.338125 463.733125) rotate(-90) scale(0.11 -0.11)">
      <defs>
       <path id="DejaVuSans-b7" d="M 684 2619 
L 1344 2619 
L 1344 1825 
L 684 1825 
L 684 2619 
z
" transform="scale(0.015625)"/>
      </defs>
      <use xlink:href="#DejaVuSans-4e"/>
      <use xlink:href="#DejaVuSans-b7" transform="translate(74.804688 0)"/>
      <use xlink:href="#DejaVuSans-6d" transform="translate(106.591797 0)"/>
     </g>
    </g>
   </g>
   <g id="line2d_83">
    <path d="M 83.619119 461.664491 
L 351.222416 461.664491 
L 351.400938 438.762505 
L 619.182756 438.762505 
L 619.182756 438.762505 
" clip-path="url(#p2384aebde3)" style="fill: none; stroke-dasharray: 7.4,3.2; stroke-dashoffset: 0; stroke: #1f77b4; stroke-width: 2"/>
   </g>
   <g id="line2d_84">
    <path d="M 83.619119 461.664491 
L 136.996962 461.664491 
L 137.175483 409.77094 
L 137.354004 392.516959 
L 137.532525 387.578149 
L 137.711047 386.358082 
L 137.889568 386.240325 
L 138.425131 386.946861 
L 139.139216 387.750287 
L 139.853301 388.236984 
L 140.745907 388.560869 
L 141.817034 388.70594 
L 143.423725 388.680424 
L 146.815628 388.335907 
L 155.563168 387.429695 
L 163.596622 386.841546 
L 173.236768 386.366374 
L 185.37621 386.003119 
L 186.625859 385.976193 
L 186.80438 388.462045 
L 189.303677 448.099369 
L 190.374804 466.26416 
L 191.445931 480.825941 
L 192.517059 492.35165 
L 193.588186 501.29769 
L 194.480792 507.059236 
L 195.373398 511.486515 
L 196.266004 514.749253 
L 196.980089 516.623388 
L 197.694174 517.919823 
L 198.408259 518.703041 
L 198.943822 518.989449 
L 199.479386 519.043727 
L 200.01495 518.887592 
L 200.729034 518.387096 
L 201.443119 517.59329 
L 202.335725 516.250586 
L 203.406853 514.219655 
L 204.835022 510.976965 
L 206.798756 505.883629 
L 214.296647 485.816035 
L 216.438901 480.970122 
L 218.402634 477.053084 
L 220.366368 473.650451 
L 222.15158 470.992161 
L 223.936792 468.724984 
L 225.722004 466.818844 
L 227.507216 465.23944 
L 229.292428 463.950647 
L 231.077641 462.916303 
L 233.041374 462.030785 
L 235.183628 461.316743 
L 237.504404 460.782535 
L 240.182222 460.403827 
L 243.395604 460.189216 
L 247.501592 460.152797 
L 254.285398 460.351157 
L 269.28118 460.812437 
L 282.313228 460.941317 
L 314.804089 460.947092 
L 351.400938 460.93357 
L 351.936501 458.854285 
L 353.18615 453.90335 
L 354.435798 449.840437 
L 355.685447 446.474455 
L 356.935095 443.680307 
L 358.184744 441.371618 
L 359.434392 439.481696 
L 360.684041 437.954888 
L 361.933689 436.742646 
L 363.361859 435.687141 
L 364.790028 434.928631 
L 366.218198 434.416276 
L 367.824889 434.078651 
L 369.610101 433.935919 
L 371.752356 434.001882 
L 374.430174 434.323128 
L 378.714683 435.10206 
L 386.569616 436.543942 
L 391.389689 437.187164 
L 396.566804 437.645406 
L 402.458004 437.934898 
L 410.312938 438.082152 
L 424.951677 438.086166 
L 478.686562 438.042623 
L 619.182756 438.043018 
L 619.182756 438.043018 
" clip-path="url(#p2384aebde3)" style="fill: none; stroke-dasharray: 12.8,3.2,2,3.2; stroke-dashoffset: 0; stroke: #ff7f0e; stroke-width: 2"/>
   </g>
   <g id="line2d_85">
    <path d="M 83.619119 461.664491 
L 136.996962 461.664491 
L 137.175483 409.77094 
L 137.354004 392.516959 
L 137.532525 387.578149 
L 137.711047 386.358082 
L 137.889568 386.240325 
L 138.425131 386.946861 
L 139.139216 387.750287 
L 139.853301 388.236984 
L 140.745907 388.560869 
L 141.817034 388.70594 
L 143.423725 388.680424 
L 146.815628 388.335907 
L 155.563168 387.429695 
L 163.596622 386.841546 
L 170.915992 386.46238 
L 171.094513 387.092247 
L 171.273034 391.531804 
L 171.808598 418.137945 
L 172.344162 443.341339 
L 172.701204 453.906729 
L 173.058247 459.756986 
L 173.415289 462.237013 
L 173.59381 462.655765 
L 173.772331 462.72914 
L 174.129374 462.297184 
L 175.02198 460.792668 
L 175.557544 460.439207 
L 176.093107 460.419186 
L 179.306489 460.880132 
L 185.019168 460.940395 
L 252.500186 460.944983 
L 351.222416 460.945003 
L 351.936501 437.099493 
L 352.293544 433.118661 
L 352.472065 432.579842 
L 352.650586 432.649541 
L 353.007628 433.79274 
L 353.900234 437.2067 
L 354.257277 437.922541 
L 354.614319 438.278392 
L 354.971362 438.391209 
L 355.685447 438.294073 
L 356.935095 438.080624 
L 359.07735 438.050431 
L 619.182756 438.043005 
L 619.182756 438.043005 
" clip-path="url(#p2384aebde3)" style="fill: none; stroke: #2ca02c; stroke-width: 2; stroke-linecap: square"/>
   </g>
   <g id="patch_15">
    <path d="M 56.840938 525.70375 
L 56.840938 379.3225 
" style="fill: none; stroke: #000000; stroke-width: 0.8; stroke-linejoin: miter; stroke-linecap: square"/>
   </g>
   <g id="patch_16">
    <path d="M 645.960938 525.70375 
L 645.960938 379.3225 
" style="fill: none; stroke: #000000; stroke-width: 0.8; stroke-linejoin: miter; stroke-linecap: square"/>
   </g>
   <g id="patch_17">
    <path d="M 56.840938 525.70375 
L 645.960938 525.70375 
" style="fill: none; stroke: #000000; stroke-width: 0.8; stroke-linejoin: miter; stroke-linecap: square"/>
   </g>
   <g id="patch_18">
    <path d="M 56.840938 379.3225 
L 645.960938 379.3225 
" style="fill: none; stroke: #000000; stroke-width: 0.8; stroke-linejoin: miter; stroke-linecap: square"/>
   </g>
   <g id="text_34">
    <!-- Mô-men tải và mô-men điện từ -->
    <g transform="translate(258.221875 373.3225) scale(0.12 -0.12)">
     <defs>
      <path id="DejaVuSans-f4" d="M 1959 3097 
Q 1497 3097 1228 2736 
Q 959 2375 959 1747 
Q 959 1119 1226 758 
Q 1494 397 1959 397 
Q 2419 397 2687 759 
Q 2956 1122 2956 1747 
Q 2956 2369 2687 2733 
Q 2419 3097 1959 3097 
z
M 1959 3584 
Q 2709 3584 3137 3096 
Q 3566 2609 3566 1747 
Q 3566 888 3137 398 
Q 2709 -91 1959 -91 
Q 1206 -91 779 398 
Q 353 888 353 1747 
Q 353 2609 779 3096 
Q 1206 3584 1959 3584 
z
M 1729 5119 
L 2191 5119 
L 2957 3944 
L 2523 3944 
L 1960 4709 
L 1398 3944 
L 963 3944 
L 1729 5119 
z
" transform="scale(0.015625)"/>
      <path id="DejaVuSans-65" d="M 3597 1894 
L 3597 1613 
L 953 1613 
Q 991 1019 1311 708 
Q 1631 397 2203 397 
Q 2534 397 2845 478 
Q 3156 559 3463 722 
L 3463 178 
Q 3153 47 2828 -22 
Q 2503 -91 2169 -91 
Q 1331 -91 842 396 
Q 353 884 353 1716 
Q 353 2575 817 3079 
Q 1281 3584 2069 3584 
Q 2775 3584 3186 3129 
Q 3597 2675 3597 1894 
z
M 3022 2063 
Q 3016 2534 2758 2815 
Q 2500 3097 2075 3097 
Q 1594 3097 1305 2825 
Q 1016 2553 972 2059 
L 3022 2063 
z
" transform="scale(0.015625)"/>
      <path id="DejaVuSans-111" d="M 2906 2969 
L 2906 4013 
L 1888 4013 
L 1888 4403 
L 2906 4403 
L 2906 4863 
L 3481 4863 
L 3481 4403 
L 3963 4403 
L 3963 4013 
L 3481 4013 
L 3481 0 
L 2906 0 
L 2906 525 
Q 2725 213 2448 61 
Q 2172 -91 1784 -91 
Q 1150 -91 751 415 
Q 353 922 353 1747 
Q 353 2572 751 3078 
Q 1150 3584 1784 3584 
Q 2172 3584 2448 3432 
Q 2725 3281 2906 2969 
z
M 947 1747 
Q 947 1113 1208 752 
Q 1469 391 1925 391 
Q 2381 391 2643 752 
Q 2906 1113 2906 1747 
Q 2906 2381 2643 2742 
Q 2381 3103 1925 3103 
Q 1469 3103 1208 2742 
Q 947 2381 947 1747 
z
" transform="scale(0.015625)"/>
      <path id="DejaVuSans-1eeb" d="M 1531 5119 
L 2412 3950 
L 1934 3950 
L 915 5119 
L 1531 5119 
z
M 3094 3136 
L 3094 3508 
Q 3285 3367 3422 3300 
Q 3560 3233 3657 3233 
Q 3800 3233 3872 3319 
Q 3944 3405 3944 3573 
Q 3944 3673 3920 3770 
Q 3897 3867 3850 3964 
L 4266 3964 
Q 4297 3845 4312 3739 
Q 4328 3633 4328 3539 
Q 4328 3158 4192 2978 
Q 4057 2798 3766 2798 
Q 3616 2798 3452 2881 
Q 3288 2964 3094 3136 
z
M 552 1381 
L 552 3500 
L 1127 3500 
L 1127 1403 
Q 1127 906 1320 657 
Q 1514 409 1902 409 
Q 2367 409 2637 706 
Q 2908 1003 2908 1516 
L 2908 3500 
L 3483 3500 
L 3483 0 
L 2908 0 
L 2908 538 
Q 2699 219 2422 64 
Q 2146 -91 1780 -91 
Q 1177 -91 864 284 
Q 552 659 552 1381 
z
M 1999 3584 
L 1999 3584 
z
" transform="scale(0.015625)"/>
     </defs>
     <use xlink:href="#DejaVuSans-4d"/>
     <use xlink:href="#DejaVuSans-f4" transform="translate(86.279297 0)"/>
     <use xlink:href="#DejaVuSans-2d" transform="translate(149.335938 0)"/>
     <use xlink:href="#DejaVuSans-6d" transform="translate(185.419922 0)"/>
     <use xlink:href="#DejaVuSans-65" transform="translate(282.832031 0)"/>
     <use xlink:href="#DejaVuSans-6e" transform="translate(344.355469 0)"/>
     <use xlink:href="#DejaVuSans-20" transform="translate(407.734375 0)"/>
     <use xlink:href="#DejaVuSans-74" transform="translate(439.521484 0)"/>
     <use xlink:href="#DejaVuSans-1ea3" transform="translate(478.730469 0)"/>
     <use xlink:href="#DejaVuSans-69" transform="translate(540.009766 0)"/>
     <use xlink:href="#DejaVuSans-20" transform="translate(567.792969 0)"/>
     <use xlink:href="#DejaVuSans-76" transform="translate(599.580078 0)"/>
     <use xlink:href="#DejaVuSans-e0" transform="translate(658.759766 0)"/>
     <use xlink:href="#DejaVuSans-20" transform="translate(720.039062 0)"/>
     <use xlink:href="#DejaVuSans-6d" transform="translate(751.826172 0)"/>
     <use xlink:href="#DejaVuSans-f4" transform="translate(849.238281 0)"/>
     <use xlink:href="#DejaVuSans-2d" transform="translate(912.294922 0)"/>
     <use xlink:href="#DejaVuSans-6d" transform="translate(948.378906 0)"/>
     <use xlink:href="#DejaVuSans-65" transform="translate(1045.791016 0)"/>
     <use xlink:href="#DejaVuSans-6e" transform="translate(1107.314453 0)"/>
     <use xlink:href="#DejaVuSans-20" transform="translate(1170.693359 0)"/>
     <use xlink:href="#DejaVuSans-111" transform="translate(1202.480469 0)"/>
     <use xlink:href="#DejaVuSans-69" transform="translate(1265.957031 0)"/>
     <use xlink:href="#DejaVuSans-1ec7" transform="translate(1293.740234 0)"/>
     <use xlink:href="#DejaVuSans-6e" transform="translate(1355.263672 0)"/>
     <use xlink:href="#DejaVuSans-20" transform="translate(1418.642578 0)"/>
     <use xlink:href="#DejaVuSans-74" transform="translate(1450.429688 0)"/>
     <use xlink:href="#DejaVuSans-1eeb" transform="translate(1489.638672 0)"/>
    </g>
   </g>
   <g id="legend_3">
    <g id="patch_19">
     <path d="M 564.88125 432.19125 
L 638.960938 432.19125 
Q 640.960938 432.19125 640.960938 430.19125 
L 640.960938 386.3225 
Q 640.960938 384.3225 638.960938 384.3225 
L 564.88125 384.3225 
Q 562.88125 384.3225 562.88125 386.3225 
L 562.88125 430.19125 
Q 562.88125 432.19125 564.88125 432.19125 
z
" style="fill: #ffffff; opacity: 0.8; stroke: #cccccc; stroke-linejoin: miter"/>
    </g>
    <g id="line2d_86">
     <path d="M 566.88125 392.420937 
L 576.88125 392.420937 
L 586.88125 392.420937 
" style="fill: none; stroke-dasharray: 7.4,3.2; stroke-dashoffset: 0; stroke: #1f77b4; stroke-width: 2"/>
    </g>
    <g id="text_35">
     <!-- T_L -->
     <g transform="translate(594.88125 395.920937) scale(0.1 -0.1)">
      <defs>
       <path id="DejaVuSans-54" d="M -19 4666 
L 3928 4666 
L 3928 4134 
L 2272 4134 
L 2272 0 
L 1638 0 
L 1638 4134 
L -19 4134 
L -19 4666 
z
" transform="scale(0.015625)"/>
      </defs>
      <use xlink:href="#DejaVuSans-54"/>
      <use xlink:href="#DejaVuSans-5f" transform="translate(61.083984 0)"/>
      <use xlink:href="#DejaVuSans-4c" transform="translate(111.083984 0)"/>
     </g>
    </g>
    <g id="line2d_87">
     <path d="M 566.88125 407.377187 
L 576.88125 407.377187 
L 586.88125 407.377187 
" style="fill: none; stroke-dasharray: 12.8,3.2,2,3.2; stroke-dashoffset: 0; stroke: #ff7f0e; stroke-width: 2"/>
    </g>
    <g id="text_36">
     <!-- PID T_e -->
     <g transform="translate(594.88125 410.877187) scale(0.1 -0.1)">
      <use xlink:href="#DejaVuSans-50"/>
      <use xlink:href="#DejaVuSans-49" transform="translate(60.302734 0)"/>
      <use xlink:href="#DejaVuSans-44" transform="translate(89.794922 0)"/>
      <use xlink:href="#DejaVuSans-20" transform="translate(166.796875 0)"/>
      <use xlink:href="#DejaVuSans-54" transform="translate(198.583984 0)"/>
      <use xlink:href="#DejaVuSans-5f" transform="translate(259.667969 0)"/>
      <use xlink:href="#DejaVuSans-65" transform="translate(309.667969 0)"/>
     </g>
    </g>
    <g id="line2d_88">
     <path d="M 566.88125 422.333437 
L 576.88125 422.333437 
L 586.88125 422.333437 
" style="fill: none; stroke: #2ca02c; stroke-width: 2; stroke-linecap: square"/>
    </g>
    <g id="text_37">
     <!-- MPC T_e -->
     <g transform="translate(594.88125 425.833437) scale(0.1 -0.1)">
      <use xlink:href="#DejaVuSans-4d"/>
      <use xlink:href="#DejaVuSans-50" transform="translate(86.279297 0)"/>
      <use xlink:href="#DejaVuSans-43" transform="translate(146.582031 0)"/>
      <use xlink:href="#DejaVuSans-20" transform="translate(216.40625 0)"/>
      <use xlink:href="#DejaVuSans-54" transform="translate(248.193359 0)"/>
      <use xlink:href="#DejaVuSans-5f" transform="translate(309.277344 0)"/>
      <use xlink:href="#DejaVuSans-65" transform="translate(359.277344 0)"/>
     </g>
    </g>
   </g>
  </g>
 </g>
 <defs>
  <clipPath id="p79fa44abb8">
   <rect x="56.840938" y="22.92" width="589.12" height="146.38125"/>
  </clipPath>
  <clipPath id="pa144159a3d">
   <rect x="56.840938" y="201.12125" width="589.12" height="146.38125"/>
  </clipPath>
  <clipPath id="p2384aebde3">
   <rect x="56.840938" y="379.3225" width="589.12" height="146.38125"/>
  </clipPath>
 </defs>
</svg>
