<?xml version="1.0" encoding="utf-8" standalone="no"?>
<!DOCTYPE svg PUBLIC "-//W3C//DTD SVG 1.1//EN"
  "http://www.w3.org/Graphics/SVG/1.1/DTD/svg11.dtd">
<svg xmlns:xlink="http://www.w3.org/1999/xlink" width="628.2pt" height="586.14pt" viewBox="0 0 628.2 586.14" xmlns="http://www.w3.org/2000/svg" version="1.1">
 <metadata>
  <rdf:RDF xmlns:dc="http://purl.org/dc/elements/1.1/" xmlns:cc="http://creativecommons.org/ns#" xmlns:rdf="http://www.w3.org/1999/02/22-rdf-syntax-ns#">
   <cc:Work>
    <dc:type rdf:resource="http://purl.org/dc/dcmitype/StillImage"/>
    <dc:date>2025-12-31T12:08:43.106135</dc:date>
    <dc:format>image/svg+xml</dc:format>
    <dc:creator>
     <cc:Agent>
      <dc:title>Matplotlib v3.7.5, https://matplotlib.org/</dc:title>
     </cc:Agent>
    </dc:creator>
   </cc:Work>
  </rdf:RDF>
 </metadata>
 <defs>
  <style type="text/css">*{stroke-linejoin: round; stroke-linecap: butt}</style>
 </defs>
 <g id="figure_1">
  <g id="patch_1">
   <path d="M 0 586.14 
L 628.2 586.14 
L 628.2 0 
L 0 0 
z
" style="fill: #ffffff"/>
  </g>
  <g id="axes_1">
   <g id="patch_2">
    <path d="M 33.886957 94.512816 
L 567.626087 94.512816 
L 567.626087 46.070097 
L 33.886957 46.070097 
L 33.886957 94.512816 
z
" clip-path="url(#p6ad4c5a364)" style="fill: none; stroke: #000000; stroke-width: 2; stroke-linejoin: miter"/>
   </g>
   <g id="patch_3">
    <path d="M 33.886957 169.868155 
L 567.626087 169.868155 
L 567.626087 121.425437 
L 33.886957 121.425437 
L 33.886957 169.868155 
z
" clip-path="url(#p6ad4c5a364)" style="fill: none; stroke: #000000; stroke-width: 2; stroke-linejoin: miter"/>
   </g>
   <g id="patch_4">
    <path d="M 33.886957 245.223495 
L 567.626087 245.223495 
L 567.626087 196.780777 
L 33.886957 196.780777 
L 33.886957 245.223495 
z
" clip-path="url(#p6ad4c5a364)" style="fill: none; stroke: #000000; stroke-width: 2; stroke-linejoin: miter"/>
   </g>
   <g id="patch_5">
    <path d="M 33.886957 320.578835 
L 567.626087 320.578835 
L 567.626087 272.136117 
L 33.886957 272.136117 
L 33.886957 320.578835 
z
" clip-path="url(#p6ad4c5a364)" style="fill: none; stroke: #000000; stroke-width: 2; stroke-linejoin: miter"/>
   </g>
   <g id="patch_6">
    <path d="M 33.886957 395.934175 
L 567.626087 395.934175 
L 567.626087 347.491456 
L 33.886957 347.491456 
L 33.886957 395.934175 
z
" clip-path="url(#p6ad4c5a364)" style="fill: none; stroke: #000000; stroke-width: 2; stroke-linejoin: miter"/>
   </g>
   <g id="patch_7">
    <path d="M 33.886957 471.289515 
L 567.626087 471.289515 
L 567.626087 422.846796 
L 33.886957 422.846796 
L 33.886957 471.289515 
z
" clip-path="url(#p6ad4c5a364)" style="fill: none; stroke: #000000; stroke-width: 2; stroke-linejoin: miter"/>
   </g>
   <g id="patch_8">
    <path d="M 33.886957 546.644854 
L 567.626087 546.644854 
L 567.626087 498.202136 
L 33.886957 498.202136 
L 33.886957 546.644854 
z
" clip-path="url(#p6ad4c5a364)" style="fill: none; stroke: #000000; stroke-width: 2; stroke-linejoin: miter"/>
   </g>
   <g id="text_1">
    <!-- Khởi tạo: -->
    <g transform="translate(276.278084 60.022269) scale(0.11 -0.11)">
     <defs>
      <path id="DejaVuSans-4b" d="M 628 4666 
L 1259 4666 
L 1259 2694 
L 3353 4666 
L 4166 4666 
L 1850 2491 
L 4331 0 
L 3500 0 
L 1259 2247 
L 1259 0 
L 628 0 
L 628 4666 
z
" transform="scale(0.015625)"/>
      <path id="DejaVuSans-68" d="M 3513 2113 
L 3513 0 
L 2938 0 
L 2938 2094 
Q 2938 2591 2744 2837 
Q 2550 3084 2163 3084 
Q 1697 3084 1428 2787 
Q 1159 2491 1159 1978 
L 1159 0 
L 581 0 
L 581 4863 
L 1159 4863 
L 1159 2956 
Q 1366 3272 1645 3428 
Q 1925 3584 2291 3584 
Q 2894 3584 3203 3211 
Q 3513 2838 3513 2113 
z
" transform="scale(0.015625)"/>
      <path id="DejaVuSans-1edf" d="M 2622 3136 
L 2622 3508 
Q 2813 3367 2950 3300 
Q 3088 3233 3185 3233 
Q 3328 3233 3400 3319 
Q 3472 3405 3472 3573 
Q 3472 3673 3448 3770 
Q 3425 3867 3378 3964 
L 3794 3964 
Q 3825 3845 3840 3739 
Q 3856 3633 3856 3539 
Q 3856 3158 3720 2978 
Q 3585 2798 3294 2798 
Q 3144 2798 2980 2881 
Q 2816 2964 2622 3136 
z
M 1975 3097 
Q 1513 3097 1244 2736 
Q 975 2375 975 1747 
Q 975 1119 1242 758 
Q 1510 397 1975 397 
Q 2435 397 2703 759 
Q 2972 1122 2972 1747 
Q 2972 2369 2703 2733 
Q 2435 3097 1975 3097 
z
M 1975 3584 
Q 2725 3584 3153 3096 
Q 3582 2609 3582 1747 
Q 3582 888 3153 398 
Q 2725 -91 1975 -91 
Q 1222 -91 795 398 
Q 369 888 369 1747 
Q 369 2609 795 3096 
Q 1222 3584 1975 3584 
z
M 1364 5025 
Q 1714 5184 2042 5184 
Q 2367 5184 2565 5051 
Q 2764 4919 2764 4709 
Q 2764 4519 2489 4316 
L 2351 4216 
Q 2242 4134 2230 4106 
Q 2208 4056 2208 3956 
L 1836 3956 
L 1836 3994 
Q 1836 4119 1883 4203 
Q 1930 4288 2089 4403 
L 2230 4509 
Q 2373 4616 2373 4741 
Q 2373 4806 2276 4862 
Q 2180 4919 1958 4919 
Q 1676 4919 1364 4756 
L 1364 5025 
z
" transform="scale(0.015625)"/>
      <path id="DejaVuSans-69" d="M 603 3500 
L 1178 3500 
L 1178 0 
L 603 0 
L 603 3500 
z
M 603 4863 
L 1178 4863 
L 1178 4134 
L 603 4134 
L 603 4863 
z
" transform="scale(0.015625)"/>
      <path id="DejaVuSans-20" transform="scale(0.015625)"/>
      <path id="DejaVuSans-74" d="M 1172 4494 
L 1172 3500 
L 2356 3500 
L 2356 3053 
L 1172 3053 
L 1172 1153 
Q 1172 725 1289 603 
Q 1406 481 1766 481 
L 2356 481 
L 2356 0 
L 1766 0 
Q 1100 0 847 248 
Q 594 497 594 1153 
L 594 3053 
L 172 3053 
L 172 3500 
L 594 3500 
L 594 4494 
L 1172 4494 
z
" transform="scale(0.015625)"/>
      <path id="DejaVuSans-1ea1" d="M 1410 -441 
L 1985 -441 
L 1985 -1172 
L 1410 -1172 
L 1410 -441 
z
M 2194 1759 
Q 1497 1759 1228 1600 
Q 959 1441 959 1056 
Q 959 750 1161 570 
Q 1363 391 1709 391 
Q 2188 391 2477 730 
Q 2766 1069 2766 1631 
L 2766 1759 
L 2194 1759 
z
M 3341 1997 
L 3341 0 
L 2766 0 
L 2766 531 
Q 2569 213 2275 61 
Q 1981 -91 1556 -91 
Q 1019 -91 701 211 
Q 384 513 384 1019 
Q 384 1609 779 1909 
Q 1175 2209 1959 2209 
L 2766 2209 
L 2766 2266 
Q 2766 2663 2505 2880 
Q 2244 3097 1772 3097 
Q 1472 3097 1187 3025 
Q 903 2953 641 2809 
L 641 3341 
Q 956 3463 1253 3523 
Q 1550 3584 1831 3584 
Q 2591 3584 2966 3190 
Q 3341 2797 3341 1997 
z
" transform="scale(0.015625)"/>
      <path id="DejaVuSans-6f" d="M 1959 3097 
Q 1497 3097 1228 2736 
Q 959 2375 959 1747 
Q 959 1119 1226 758 
Q 1494 397 1959 397 
Q 2419 397 2687 759 
Q 2956 1122 2956 1747 
Q 2956 2369 2687 2733 
Q 2419 3097 1959 3097 
z
M 1959 3584 
Q 2709 3584 3137 3096 
Q 3566 2609 3566 1747 
Q 3566 888 3137 398 
Q 2709 -91 1959 -91 
Q 1206 -91 779 398 
Q 353 888 353 1747 
Q 353 2609 779 3096 
Q 1206 3584 1959 3584 
z
" transform="scale(0.015625)"/>
      <path id="DejaVuSans-3a" d="M 750 794 
L 1409 794 
L 1409 0 
L 750 0 
L 750 794 
z
M 750 3309 
L 1409 3309 
L 1409 2516 
L 750 2516 
L 750 3309 
z
" transform="scale(0.015625)"/>
     </defs>
     <use xlink:href="#DejaVuSans-4b"/>
     <use xlink:href="#DejaVuSans-68" x="65.576172"/>
     <use xlink:href="#DejaVuSans-1edf" x="128.955078"/>
     <use xlink:href="#DejaVuSans-69" x="190.136719"/>
     <use xlink:href="#DejaVuSans-20" x="217.919922"/>
     <use xlink:href="#DejaVuSans-74" x="249.707031"/>
     <use xlink:href="#DejaVuSans-1ea1" x="288.916016"/>
     <use xlink:href="#DejaVuSans-6f" x="350.195312"/>
     <use xlink:href="#DejaVuSans-3a" x="411.376953"/>
    </g>
    <!-- Tham số động cơ + trạng thái x(0) -->
    <g transform="translate(205.533475 73.465988) scale(0.11 -0.11)">
     <defs>
      <path id="DejaVuSans-54" d="M -19 4666 
L 3928 4666 
L 3928 4134 
L 2272 4134 
L 2272 0 
L 1638 0 
L 1638 4134 
L -19 4134 
L -19 4666 
z
" transform="scale(0.015625)"/>
      <path id="DejaVuSans-61" d="M 2194 1759 
Q 1497 1759 1228 1600 
Q 959 1441 959 1056 
Q 959 750 1161 570 
Q 1363 391 1709 391 
Q 2188 391 2477 730 
Q 2766 1069 2766 1631 
L 2766 1759 
L 2194 1759 
z
M 3341 1997 
L 3341 0 
L 2766 0 
L 2766 531 
Q 2569 213 2275 61 
Q 1981 -91 1556 -91 
Q 1019 -91 701 211 
Q 384 513 384 1019 
Q 384 1609 779 1909 
Q 1175 2209 1959 2209 
L 2766 2209 
L 2766 2266 
Q 2766 2663 2505 2880 
Q 2244 3097 1772 3097 
Q 1472 3097 1187 3025 
Q 903 2953 641 2809 
L 641 3341 
Q 956 3463 1253 3523 
Q 1550 3584 1831 3584 
Q 2591 3584 2966 3190 
Q 3341 2797 3341 1997 
z
" transform="scale(0.015625)"/>
      <path id="DejaVuSans-6d" d="M 3328 2828 
Q 3544 3216 3844 3400 
Q 4144 3584 4550 3584 
Q 5097 3584 5394 3201 
Q 5691 2819 5691 2113 
L 5691 0 
L 5113 0 
L 5113 2094 
Q 5113 2597 4934 2840 
Q 4756 3084 4391 3084 
Q 3944 3084 3684 2787 
Q 3425 2491 3425 1978 
L 3425 0 
L 2847 0 
L 2847 2094 
Q 2847 2600 2669 2842 
Q 2491 3084 2119 3084 
Q 1678 3084 1418 2786 
Q 1159 2488 1159 1978 
L 1159 0 
L 581 0 
L 581 3500 
L 1159 3500 
L 1159 2956 
Q 1356 3278 1631 3431 
Q 1906 3584 2284 3584 
Q 2666 3584 2933 3390 
Q 3200 3197 3328 2828 
z
" transform="scale(0.015625)"/>
      <path id="DejaVuSans-73" d="M 2834 3397 
L 2834 2853 
Q 2591 2978 2328 3040 
Q 2066 3103 1784 3103 
Q 1356 3103 1142 2972 
Q 928 2841 928 2578 
Q 928 2378 1081 2264 
Q 1234 2150 1697 2047 
L 1894 2003 
Q 2506 1872 2764 1633 
Q 3022 1394 3022 966 
Q 3022 478 2636 193 
Q 2250 -91 1575 -91 
Q 1294 -91 989 -36 
Q 684 19 347 128 
L 347 722 
Q 666 556 975 473 
Q 1284 391 1588 391 
Q 1994 391 2212 530 
Q 2431 669 2431 922 
Q 2431 1156 2273 1281 
Q 2116 1406 1581 1522 
L 1381 1569 
Q 847 1681 609 1914 
Q 372 2147 372 2553 
Q 372 3047 722 3315 
Q 1072 3584 1716 3584 
Q 2034 3584 2315 3537 
Q 2597 3491 2834 3397 
z
" transform="scale(0.015625)"/>
      <path id="DejaVuSans-1ed1" d="M 1658 4775 
L 2246 4775 
L 2905 3944 
L 2471 3944 
L 1952 4500 
L 1433 3944 
L 999 3944 
L 1658 4775 
z
M 3268 5409 
L 3846 5409 
L 3134 4584 
L 2655 4584 
L 3268 5409 
z
M 1959 3097 
Q 1497 3097 1228 2736 
Q 959 2375 959 1747 
Q 959 1119 1226 758 
Q 1494 397 1959 397 
Q 2419 397 2687 759 
Q 2956 1122 2956 1747 
Q 2956 2369 2687 2733 
Q 2419 3097 1959 3097 
z
M 1959 3584 
Q 2709 3584 3137 3096 
Q 3566 2609 3566 1747 
Q 3566 888 3137 398 
Q 2709 -91 1959 -91 
Q 1206 -91 779 398 
Q 353 888 353 1747 
Q 353 2609 779 3096 
Q 1206 3584 1959 3584 
z
" transform="scale(0.015625)"/>
      <path id="DejaVuSans-111" d="M 2906 2969 
L 2906 4013 
L 1888 4013 
L 1888 4403 
L 2906 4403 
L 2906 4863 
L 3481 4863 
L 3481 4403 
L 3963 4403 
L 3963 4013 
L 3481 4013 
L 3481 0 
L 2906 0 
L 2906 525 
Q 2725 213 2448 61 
Q 2172 -91 1784 -91 
Q 1150 -91 751 415 
Q 353 922 353 1747 
Q 353 2572 751 3078 
Q 1150 3584 1784 3584 
Q 2172 3584 2448 3432 
Q 2725 3281 2906 2969 
z
M 947 1747 
Q 947 1113 1208 752 
Q 1469 391 1925 391 
Q 2381 391 2643 752 
Q 2906 1113 2906 1747 
Q 2906 2381 2643 2742 
Q 2381 3103 1925 3103 
Q 1469 3103 1208 2742 
Q 947 2381 947 1747 
z
" transform="scale(0.015625)"/>
      <path id="DejaVuSans-1ed9" d="M 1666 -441 
L 2241 -441 
L 2241 -1172 
L 1666 -1172 
L 1666 -441 
z
M 1959 3097 
Q 1497 3097 1228 2736 
Q 959 2375 959 1747 
Q 959 1119 1226 758 
Q 1494 397 1959 397 
Q 2419 397 2687 759 
Q 2956 1122 2956 1747 
Q 2956 2369 2687 2733 
Q 2419 3097 1959 3097 
z
M 1959 3584 
Q 2709 3584 3137 3096 
Q 3566 2609 3566 1747 
Q 3566 888 3137 398 
Q 2709 -91 1959 -91 
Q 1206 -91 779 398 
Q 353 888 353 1747 
Q 353 2609 779 3096 
Q 1206 3584 1959 3584 
z
M 1666 -441 
L 2241 -441 
L 2241 -1172 
L 1666 -1172 
L 1666 -441 
z
M 1729 5119 
L 2191 5119 
L 2957 3944 
L 2523 3944 
L 1960 4709 
L 1398 3944 
L 963 3944 
L 1729 5119 
z
" transform="scale(0.015625)"/>
      <path id="DejaVuSans-6e" d="M 3513 2113 
L 3513 0 
L 2938 0 
L 2938 2094 
Q 2938 2591 2744 2837 
Q 2550 3084 2163 3084 
Q 1697 3084 1428 2787 
Q 1159 2491 1159 1978 
L 1159 0 
L 581 0 
L 581 3500 
L 1159 3500 
L 1159 2956 
Q 1366 3272 1645 3428 
Q 1925 3584 2291 3584 
Q 2894 3584 3203 3211 
Q 3513 2838 3513 2113 
z
" transform="scale(0.015625)"/>
      <path id="DejaVuSans-67" d="M 2906 1791 
Q 2906 2416 2648 2759 
Q 2391 3103 1925 3103 
Q 1463 3103 1205 2759 
Q 947 2416 947 1791 
Q 947 1169 1205 825 
Q 1463 481 1925 481 
Q 2391 481 2648 825 
Q 2906 1169 2906 1791 
z
M 3481 434 
Q 3481 -459 3084 -895 
Q 2688 -1331 1869 -1331 
Q 1566 -1331 1297 -1286 
Q 1028 -1241 775 -1147 
L 775 -588 
Q 1028 -725 1275 -790 
Q 1522 -856 1778 -856 
Q 2344 -856 2625 -561 
Q 2906 -266 2906 331 
L 2906 616 
Q 2728 306 2450 153 
Q 2172 0 1784 0 
Q 1141 0 747 490 
Q 353 981 353 1791 
Q 353 2603 747 3093 
Q 1141 3584 1784 3584 
Q 2172 3584 2450 3431 
Q 2728 3278 2906 2969 
L 2906 3500 
L 3481 3500 
L 3481 434 
z
" transform="scale(0.015625)"/>
      <path id="DejaVuSans-63" d="M 3122 3366 
L 3122 2828 
Q 2878 2963 2633 3030 
Q 2388 3097 2138 3097 
Q 1578 3097 1268 2742 
Q 959 2388 959 1747 
Q 959 1106 1268 751 
Q 1578 397 2138 397 
Q 2388 397 2633 464 
Q 2878 531 3122 666 
L 3122 134 
Q 2881 22 2623 -34 
Q 2366 -91 2075 -91 
Q 1284 -91 818 406 
Q 353 903 353 1747 
Q 353 2603 823 3093 
Q 1294 3584 2113 3584 
Q 2378 3584 2631 3529 
Q 2884 3475 3122 3366 
z
" transform="scale(0.015625)"/>
      <path id="DejaVuSans-1a1" d="M 2622 3136 
L 2622 3508 
Q 2813 3367 2950 3300 
Q 3088 3233 3185 3233 
Q 3328 3233 3400 3319 
Q 3472 3405 3472 3573 
Q 3472 3673 3448 3770 
Q 3425 3867 3378 3964 
L 3794 3964 
Q 3825 3845 3840 3739 
Q 3856 3633 3856 3539 
Q 3856 3158 3720 2978 
Q 3585 2798 3294 2798 
Q 3144 2798 2980 2881 
Q 2816 2964 2622 3136 
z
M 1975 3097 
Q 1513 3097 1244 2736 
Q 975 2375 975 1747 
Q 975 1119 1242 758 
Q 1510 397 1975 397 
Q 2435 397 2703 759 
Q 2972 1122 2972 1747 
Q 2972 2369 2703 2733 
Q 2435 3097 1975 3097 
z
M 1975 3584 
Q 2725 3584 3153 3096 
Q 3582 2609 3582 1747 
Q 3582 888 3153 398 
Q 2725 -91 1975 -91 
Q 1222 -91 795 398 
Q 369 888 369 1747 
Q 369 2609 795 3096 
Q 1222 3584 1975 3584 
z
" transform="scale(0.015625)"/>
      <path id="DejaVuSans-2b" d="M 2944 4013 
L 2944 2272 
L 4684 2272 
L 4684 1741 
L 2944 1741 
L 2944 0 
L 2419 0 
L 2419 1741 
L 678 1741 
L 678 2272 
L 2419 2272 
L 2419 4013 
L 2944 4013 
z
" transform="scale(0.015625)"/>
      <path id="DejaVuSans-72" d="M 2631 2963 
Q 2534 3019 2420 3045 
Q 2306 3072 2169 3072 
Q 1681 3072 1420 2755 
Q 1159 2438 1159 1844 
L 1159 0 
L 581 0 
L 581 3500 
L 1159 3500 
L 1159 2956 
Q 1341 3275 1631 3429 
Q 1922 3584 2338 3584 
Q 2397 3584 2469 3576 
Q 2541 3569 2628 3553 
L 2631 2963 
z
" transform="scale(0.015625)"/>
      <path id="DejaVuSans-e1" d="M 2194 1759 
Q 1497 1759 1228 1600 
Q 959 1441 959 1056 
Q 959 750 1161 570 
Q 1363 391 1709 391 
Q 2188 391 2477 730 
Q 2766 1069 2766 1631 
L 2766 1759 
L 2194 1759 
z
M 3341 1997 
L 3341 0 
L 2766 0 
L 2766 531 
Q 2569 213 2275 61 
Q 1981 -91 1556 -91 
Q 1019 -91 701 211 
Q 384 513 384 1019 
Q 384 1609 779 1909 
Q 1175 2209 1959 2209 
L 2766 2209 
L 2766 2266 
Q 2766 2663 2505 2880 
Q 2244 3097 1772 3097 
Q 1472 3097 1187 3025 
Q 903 2953 641 2809 
L 641 3341 
Q 956 3463 1253 3523 
Q 1550 3584 1831 3584 
Q 2591 3584 2966 3190 
Q 3341 2797 3341 1997 
z
M 2290 5119 
L 2912 5119 
L 1894 3944 
L 1415 3944 
L 2290 5119 
z
" transform="scale(0.015625)"/>
      <path id="DejaVuSans-78" d="M 3513 3500 
L 2247 1797 
L 3578 0 
L 2900 0 
L 1881 1375 
L 863 0 
L 184 0 
L 1544 1831 
L 300 3500 
L 978 3500 
L 1906 2253 
L 2834 3500 
L 3513 3500 
z
" transform="scale(0.015625)"/>
      <path id="DejaVuSans-28" d="M 1984 4856 
Q 1566 4138 1362 3434 
Q 1159 2731 1159 2009 
Q 1159 1288 1364 580 
Q 1569 -128 1984 -844 
L 1484 -844 
Q 1016 -109 783 600 
Q 550 1309 550 2009 
Q 550 2706 781 3412 
Q 1013 4119 1484 4856 
L 1984 4856 
z
" transform="scale(0.015625)"/>
      <path id="DejaVuSans-30" d="M 2034 4250 
Q 1547 4250 1301 3770 
Q 1056 3291 1056 2328 
Q 1056 1369 1301 889 
Q 1547 409 2034 409 
Q 2525 409 2770 889 
Q 3016 1369 3016 2328 
Q 3016 3291 2770 3770 
Q 2525 4250 2034 4250 
z
M 2034 4750 
Q 2819 4750 3233 4129 
Q 3647 3509 3647 2328 
Q 3647 1150 3233 529 
Q 2819 -91 2034 -91 
Q 1250 -91 836 529 
Q 422 1150 422 2328 
Q 422 3509 836 4129 
Q 1250 4750 2034 4750 
z
" transform="scale(0.015625)"/>
      <path id="DejaVuSans-29" d="M 513 4856 
L 1013 4856 
Q 1481 4119 1714 3412 
Q 1947 2706 1947 2009 
Q 1947 1309 1714 600 
Q 1481 -109 1013 -844 
L 513 -844 
Q 928 -128 1133 580 
Q 1338 1288 1338 2009 
Q 1338 2731 1133 3434 
Q 928 4138 513 4856 
z
" transform="scale(0.015625)"/>
     </defs>
     <use xlink:href="#DejaVuSans-54"/>
     <use xlink:href="#DejaVuSans-68" x="61.083984"/>
     <use xlink:href="#DejaVuSans-61" x="124.462891"/>
     <use xlink:href="#DejaVuSans-6d" x="185.742188"/>
     <use xlink:href="#DejaVuSans-20" x="283.154297"/>
     <use xlink:href="#DejaVuSans-73" x="314.941406"/>
     <use xlink:href="#DejaVuSans-1ed1" x="367.041016"/>
     <use xlink:href="#DejaVuSans-20" x="428.222656"/>
     <use xlink:href="#DejaVuSans-111" x="460.009766"/>
     <use xlink:href="#DejaVuSans-1ed9" x="523.486328"/>
     <use xlink:href="#DejaVuSans-6e" x="584.667969"/>
     <use xlink:href="#DejaVuSans-67" x="648.046875"/>
     <use xlink:href="#DejaVuSans-20" x="711.523438"/>
     <use xlink:href="#DejaVuSans-63" x="743.310547"/>
     <use xlink:href="#DejaVuSans-1a1" x="798.291016"/>
     <use xlink:href="#DejaVuSans-20" x="859.472656"/>
     <use xlink:href="#DejaVuSans-2b" x="891.259766"/>
     <use xlink:href="#DejaVuSans-20" x="975.048828"/>
     <use xlink:href="#DejaVuSans-74" x="1006.835938"/>
     <use xlink:href="#DejaVuSans-72" x="1046.044922"/>
     <use xlink:href="#DejaVuSans-1ea1" x="1087.158203"/>
     <use xlink:href="#DejaVuSans-6e" x="1148.4375"/>
     <use xlink:href="#DejaVuSans-67" x="1211.816406"/>
     <use xlink:href="#DejaVuSans-20" x="1275.292969"/>
     <use xlink:href="#DejaVuSans-74" x="1307.080078"/>
     <use xlink:href="#DejaVuSans-68" x="1346.289062"/>
     <use xlink:href="#DejaVuSans-e1" x="1409.667969"/>
     <use xlink:href="#DejaVuSans-69" x="1470.947266"/>
     <use xlink:href="#DejaVuSans-20" x="1498.730469"/>
     <use xlink:href="#DejaVuSans-78" x="1530.517578"/>
     <use xlink:href="#DejaVuSans-28" x="1589.697266"/>
     <use xlink:href="#DejaVuSans-30" x="1628.710938"/>
     <use xlink:href="#DejaVuSans-29" x="1692.333984"/>
    </g>
    <!-- + cấu hình mô phỏng -->
    <g transform="translate(241.24824 86.909706) scale(0.11 -0.11)">
     <defs>
      <path id="DejaVuSans-1ea5" d="M 1562 4775 
L 2150 4775 
L 2809 3944 
L 2375 3944 
L 1856 4500 
L 1337 3944 
L 903 3944 
L 1562 4775 
z
M 3172 5409 
L 3750 5409 
L 3038 4584 
L 2559 4584 
L 3172 5409 
z
M 2194 1759 
Q 1497 1759 1228 1600 
Q 959 1441 959 1056 
Q 959 750 1161 570 
Q 1363 391 1709 391 
Q 2188 391 2477 730 
Q 2766 1069 2766 1631 
L 2766 1759 
L 2194 1759 
z
M 3341 1997 
L 3341 0 
L 2766 0 
L 2766 531 
Q 2569 213 2275 61 
Q 1981 -91 1556 -91 
Q 1019 -91 701 211 
Q 384 513 384 1019 
Q 384 1609 779 1909 
Q 1175 2209 1959 2209 
L 2766 2209 
L 2766 2266 
Q 2766 2663 2505 2880 
Q 2244 3097 1772 3097 
Q 1472 3097 1187 3025 
Q 903 2953 641 2809 
L 641 3341 
Q 956 3463 1253 3523 
Q 1550 3584 1831 3584 
Q 2591 3584 2966 3190 
Q 3341 2797 3341 1997 
z
" transform="scale(0.015625)"/>
      <path id="DejaVuSans-75" d="M 544 1381 
L 544 3500 
L 1119 3500 
L 1119 1403 
Q 1119 906 1312 657 
Q 1506 409 1894 409 
Q 2359 409 2629 706 
Q 2900 1003 2900 1516 
L 2900 3500 
L 3475 3500 
L 3475 0 
L 2900 0 
L 2900 538 
Q 2691 219 2414 64 
Q 2138 -91 1772 -91 
Q 1169 -91 856 284 
Q 544 659 544 1381 
z
M 1991 3584 
L 1991 3584 
z
" transform="scale(0.015625)"/>
      <path id="DejaVuSans-ec" d="M 435 5119 
L 1316 3950 
L 838 3950 
L -181 5119 
L 435 5119 
z
M 603 3500 
L 1178 3500 
L 1178 0 
L 603 0 
L 603 3500 
z
M 891 3584 
L 891 3584 
z
" transform="scale(0.015625)"/>
      <path id="DejaVuSans-f4" d="M 1959 3097 
Q 1497 3097 1228 2736 
Q 959 2375 959 1747 
Q 959 1119 1226 758 
Q 1494 397 1959 397 
Q 2419 397 2687 759 
Q 2956 1122 2956 1747 
Q 2956 2369 2687 2733 
Q 2419 3097 1959 3097 
z
M 1959 3584 
Q 2709 3584 3137 3096 
Q 3566 2609 3566 1747 
Q 3566 888 3137 398 
Q 2709 -91 1959 -91 
Q 1206 -91 779 398 
Q 353 888 353 1747 
Q 353 2609 779 3096 
Q 1206 3584 1959 3584 
z
M 1729 5119 
L 2191 5119 
L 2957 3944 
L 2523 3944 
L 1960 4709 
L 1398 3944 
L 963 3944 
L 1729 5119 
z
" transform="scale(0.015625)"/>
      <path id="DejaVuSans-70" d="M 1159 525 
L 1159 -1331 
L 581 -1331 
L 581 3500 
L 1159 3500 
L 1159 2969 
Q 1341 3281 1617 3432 
Q 1894 3584 2278 3584 
Q 2916 3584 3314 3078 
Q 3713 2572 3713 1747 
Q 3713 922 3314 415 
Q 2916 -91 2278 -91 
Q 1894 -91 1617 61 
Q 1341 213 1159 525 
z
M 3116 1747 
Q 3116 2381 2855 2742 
Q 2594 3103 2138 3103 
Q 1681 3103 1420 2742 
Q 1159 2381 1159 1747 
Q 1159 1113 1420 752 
Q 1681 391 2138 391 
Q 2594 391 2855 752 
Q 3116 1113 3116 1747 
z
" transform="scale(0.015625)"/>
      <path id="DejaVuSans-1ecf" d="M 1959 3097 
Q 1497 3097 1228 2736 
Q 959 2375 959 1747 
Q 959 1119 1226 758 
Q 1494 397 1959 397 
Q 2419 397 2687 759 
Q 2956 1122 2956 1747 
Q 2956 2369 2687 2733 
Q 2419 3097 1959 3097 
z
M 1959 3584 
Q 2709 3584 3137 3096 
Q 3566 2609 3566 1747 
Q 3566 888 3137 398 
Q 2709 -91 1959 -91 
Q 1206 -91 779 398 
Q 353 888 353 1747 
Q 353 2609 779 3096 
Q 1206 3584 1959 3584 
z
M 1364 5025 
Q 1714 5184 2042 5184 
Q 2367 5184 2565 5051 
Q 2764 4919 2764 4709 
Q 2764 4519 2489 4316 
L 2351 4216 
Q 2242 4134 2230 4106 
Q 2208 4056 2208 3956 
L 1836 3956 
L 1836 3994 
Q 1836 4119 1883 4203 
Q 1930 4288 2089 4403 
L 2230 4509 
Q 2373 4616 2373 4741 
Q 2373 4806 2276 4862 
Q 2180 4919 1958 4919 
Q 1676 4919 1364 4756 
L 1364 5025 
z
" transform="scale(0.015625)"/>
     </defs>
     <use xlink:href="#DejaVuSans-2b"/>
     <use xlink:href="#DejaVuSans-20" x="83.789062"/>
     <use xlink:href="#DejaVuSans-63" x="115.576172"/>
     <use xlink:href="#DejaVuSans-1ea5" x="170.556641"/>
     <use xlink:href="#DejaVuSans-75" x="231.835938"/>
     <use xlink:href="#DejaVuSans-20" x="295.214844"/>
     <use xlink:href="#DejaVuSans-68" x="327.001953"/>
     <use xlink:href="#DejaVuSans-ec" x="390.380859"/>
     <use xlink:href="#DejaVuSans-6e" x="418.164062"/>
     <use xlink:href="#DejaVuSans-68" x="481.542969"/>
     <use xlink:href="#DejaVuSans-20" x="544.921875"/>
     <use xlink:href="#DejaVuSans-6d" x="576.708984"/>
     <use xlink:href="#DejaVuSans-f4" x="674.121094"/>
     <use xlink:href="#DejaVuSans-20" x="735.302734"/>
     <use xlink:href="#DejaVuSans-70" x="767.089844"/>
     <use xlink:href="#DejaVuSans-68" x="830.566406"/>
     <use xlink:href="#DejaVuSans-1ecf" x="893.945312"/>
     <use xlink:href="#DejaVuSans-6e" x="955.126953"/>
     <use xlink:href="#DejaVuSans-67" x="1018.505859"/>
    </g>
   </g>
   <g id="text_2">
    <!-- Bắt đầu vòng lặp thời gian: -->
    <g transform="translate(226.117225 136.282702) scale(0.11 -0.11)">
     <defs>
      <path id="DejaVuSans-42" d="M 1259 2228 
L 1259 519 
L 2272 519 
Q 2781 519 3026 730 
Q 3272 941 3272 1375 
Q 3272 1813 3026 2020 
Q 2781 2228 2272 2228 
L 1259 2228 
z
M 1259 4147 
L 1259 2741 
L 2194 2741 
Q 2656 2741 2882 2914 
Q 3109 3088 3109 3444 
Q 3109 3797 2882 3972 
Q 2656 4147 2194 4147 
L 1259 4147 
z
M 628 4666 
L 2241 4666 
Q 2963 4666 3353 4366 
Q 3744 4066 3744 3513 
Q 3744 3084 3544 2831 
Q 3344 2578 2956 2516 
Q 3422 2416 3680 2098 
Q 3938 1781 3938 1306 
Q 3938 681 3513 340 
Q 3088 0 2303 0 
L 628 0 
L 628 4666 
z
" transform="scale(0.015625)"/>
      <path id="DejaVuSans-1eaf" d="M 862 4711 
L 1231 4711 
Q 1271 4542 1426 4453 
Q 1581 4364 1840 4364 
Q 2096 4364 2247 4450 
Q 2399 4536 2449 4711 
L 2818 4711 
Q 2787 4339 2537 4147 
Q 2287 3955 1840 3955 
Q 1390 3955 1141 4145 
Q 893 4336 862 4711 
z
M 2180 5601 
L 2758 5601 
L 2046 4776 
L 1567 4776 
L 2180 5601 
z
M 2194 1759 
Q 1497 1759 1228 1600 
Q 959 1441 959 1056 
Q 959 750 1161 570 
Q 1363 391 1709 391 
Q 2188 391 2477 730 
Q 2766 1069 2766 1631 
L 2766 1759 
L 2194 1759 
z
M 3341 1997 
L 3341 0 
L 2766 0 
L 2766 531 
Q 2569 213 2275 61 
Q 1981 -91 1556 -91 
Q 1019 -91 701 211 
Q 384 513 384 1019 
Q 384 1609 779 1909 
Q 1175 2209 1959 2209 
L 2766 2209 
L 2766 2266 
Q 2766 2663 2505 2880 
Q 2244 3097 1772 3097 
Q 1472 3097 1187 3025 
Q 903 2953 641 2809 
L 641 3341 
Q 956 3463 1253 3523 
Q 1550 3584 1831 3584 
Q 2591 3584 2966 3190 
Q 3341 2797 3341 1997 
z
" transform="scale(0.015625)"/>
      <path id="DejaVuSans-1ea7" d="M 2194 1759 
Q 1497 1759 1228 1600 
Q 959 1441 959 1056 
Q 959 750 1161 570 
Q 1363 391 1709 391 
Q 2188 391 2477 730 
Q 2766 1069 2766 1631 
L 2766 1759 
L 2194 1759 
z
M 3341 1997 
L 3341 0 
L 2766 0 
L 2766 531 
Q 2569 213 2275 61 
Q 1981 -91 1556 -91 
Q 1019 -91 701 211 
Q 384 513 384 1019 
Q 384 1609 779 1909 
Q 1175 2209 1959 2209 
L 2766 2209 
L 2766 2266 
Q 2766 2663 2505 2880 
Q 2244 3097 1772 3097 
Q 1472 3097 1187 3025 
Q 903 2953 641 2809 
L 641 3341 
Q 956 3463 1253 3523 
Q 1550 3584 1831 3584 
Q 2591 3584 2966 3190 
Q 3341 2797 3341 1997 
z
M 2590 5409 
L 3202 4584 
L 2724 4584 
L 2006 5409 
L 2590 5409 
z
M 1554 4775 
L 2142 4775 
L 2801 3944 
L 2367 3944 
L 1848 4500 
L 1329 3944 
L 895 3944 
L 1554 4775 
z
" transform="scale(0.015625)"/>
      <path id="DejaVuSans-76" d="M 191 3500 
L 800 3500 
L 1894 563 
L 2988 3500 
L 3597 3500 
L 2284 0 
L 1503 0 
L 191 3500 
z
" transform="scale(0.015625)"/>
      <path id="DejaVuSans-f2" d="M 1959 3097 
Q 1497 3097 1228 2736 
Q 959 2375 959 1747 
Q 959 1119 1226 758 
Q 1494 397 1959 397 
Q 2419 397 2687 759 
Q 2956 1122 2956 1747 
Q 2956 2369 2687 2733 
Q 2419 3097 1959 3097 
z
M 1959 3584 
Q 2709 3584 3137 3096 
Q 3566 2609 3566 1747 
Q 3566 888 3137 398 
Q 2709 -91 1959 -91 
Q 1206 -91 779 398 
Q 353 888 353 1747 
Q 353 2609 779 3096 
Q 1206 3584 1959 3584 
z
M 1507 5119 
L 2388 3950 
L 1910 3950 
L 891 5119 
L 1507 5119 
z
" transform="scale(0.015625)"/>
      <path id="DejaVuSans-6c" d="M 603 4863 
L 1178 4863 
L 1178 0 
L 603 0 
L 603 4863 
z
" transform="scale(0.015625)"/>
      <path id="DejaVuSans-1eb7" d="M 870 4897 
L 1239 4897 
Q 1273 4663 1424 4545 
Q 1576 4428 1848 4428 
Q 2117 4428 2267 4544 
Q 2417 4660 2457 4897 
L 2826 4897 
Q 2795 4450 2548 4225 
Q 2301 4000 1848 4000 
Q 1395 4000 1148 4225 
Q 901 4450 870 4897 
z
M 2194 1759 
Q 1497 1759 1228 1600 
Q 959 1441 959 1056 
Q 959 750 1161 570 
Q 1363 391 1709 391 
Q 2188 391 2477 730 
Q 2766 1069 2766 1631 
L 2766 1759 
L 2194 1759 
z
M 3341 1997 
L 3341 0 
L 2766 0 
L 2766 531 
Q 2569 213 2275 61 
Q 1981 -91 1556 -91 
Q 1019 -91 701 211 
Q 384 513 384 1019 
Q 384 1609 779 1909 
Q 1175 2209 1959 2209 
L 2766 2209 
L 2766 2266 
Q 2766 2663 2505 2880 
Q 2244 3097 1772 3097 
Q 1472 3097 1187 3025 
Q 903 2953 641 2809 
L 641 3341 
Q 956 3463 1253 3523 
Q 1550 3584 1831 3584 
Q 2591 3584 2966 3190 
Q 3341 2797 3341 1997 
z
M 1466 -441 
L 2041 -441 
L 2041 -1172 
L 1466 -1172 
L 1466 -441 
z
" transform="scale(0.015625)"/>
      <path id="DejaVuSans-1edd" d="M 1507 5119 
L 2388 3950 
L 1910 3950 
L 891 5119 
L 1507 5119 
z
M 2622 3136 
L 2622 3508 
Q 2813 3367 2950 3300 
Q 3088 3233 3185 3233 
Q 3328 3233 3400 3319 
Q 3472 3405 3472 3573 
Q 3472 3673 3448 3770 
Q 3425 3867 3378 3964 
L 3794 3964 
Q 3825 3845 3840 3739 
Q 3856 3633 3856 3539 
Q 3856 3158 3720 2978 
Q 3585 2798 3294 2798 
Q 3144 2798 2980 2881 
Q 2816 2964 2622 3136 
z
M 1975 3097 
Q 1513 3097 1244 2736 
Q 975 2375 975 1747 
Q 975 1119 1242 758 
Q 1510 397 1975 397 
Q 2435 397 2703 759 
Q 2972 1122 2972 1747 
Q 2972 2369 2703 2733 
Q 2435 3097 1975 3097 
z
M 1975 3584 
Q 2725 3584 3153 3096 
Q 3582 2609 3582 1747 
Q 3582 888 3153 398 
Q 2725 -91 1975 -91 
Q 1222 -91 795 398 
Q 369 888 369 1747 
Q 369 2609 795 3096 
Q 1222 3584 1975 3584 
z
" transform="scale(0.015625)"/>
     </defs>
     <use xlink:href="#DejaVuSans-42"/>
     <use xlink:href="#DejaVuSans-1eaf" x="68.603516"/>
     <use xlink:href="#DejaVuSans-74" x="129.882812"/>
     <use xlink:href="#DejaVuSans-20" x="169.091797"/>
     <use xlink:href="#DejaVuSans-111" x="200.878906"/>
     <use xlink:href="#DejaVuSans-1ea7" x="264.355469"/>
     <use xlink:href="#DejaVuSans-75" x="325.634766"/>
     <use xlink:href="#DejaVuSans-20" x="389.013672"/>
     <use xlink:href="#DejaVuSans-76" x="420.800781"/>
     <use xlink:href="#DejaVuSans-f2" x="479.980469"/>
     <use xlink:href="#DejaVuSans-6e" x="541.162109"/>
     <use xlink:href="#DejaVuSans-67" x="604.541016"/>
     <use xlink:href="#DejaVuSans-20" x="668.017578"/>
     <use xlink:href="#DejaVuSans-6c" x="699.804688"/>
     <use xlink:href="#DejaVuSans-1eb7" x="727.587891"/>
     <use xlink:href="#DejaVuSans-70" x="788.867188"/>
     <use xlink:href="#DejaVuSans-20" x="852.34375"/>
     <use xlink:href="#DejaVuSans-74" x="884.130859"/>
     <use xlink:href="#DejaVuSans-68" x="923.339844"/>
     <use xlink:href="#DejaVuSans-1edd" x="986.71875"/>
     <use xlink:href="#DejaVuSans-69" x="1047.900391"/>
     <use xlink:href="#DejaVuSans-20" x="1075.683594"/>
     <use xlink:href="#DejaVuSans-67" x="1107.470703"/>
     <use xlink:href="#DejaVuSans-69" x="1170.947266"/>
     <use xlink:href="#DejaVuSans-61" x="1198.730469"/>
     <use xlink:href="#DejaVuSans-6e" x="1260.009766"/>
     <use xlink:href="#DejaVuSans-3a" x="1323.388672"/>
    </g>
    <!-- k = 0 … N -->
    <g transform="translate(272.856912 148.600296) scale(0.11 -0.11)">
     <defs>
      <path id="DejaVuSans-6b" d="M 581 4863 
L 1159 4863 
L 1159 1991 
L 2875 3500 
L 3609 3500 
L 1753 1863 
L 3688 0 
L 2938 0 
L 1159 1709 
L 1159 0 
L 581 0 
L 581 4863 
z
" transform="scale(0.015625)"/>
      <path id="DejaVuSans-3d" d="M 678 2906 
L 4684 2906 
L 4684 2381 
L 678 2381 
L 678 2906 
z
M 678 1631 
L 4684 1631 
L 4684 1100 
L 678 1100 
L 678 1631 
z
" transform="scale(0.015625)"/>
      <path id="DejaVuSans-2026" d="M 2869 794 
L 3531 794 
L 3531 0 
L 2869 0 
L 2869 794 
z
M 4997 794 
L 5663 794 
L 5663 0 
L 4997 0 
L 4997 794 
z
M 738 794 
L 1403 794 
L 1403 0 
L 738 0 
L 738 794 
z
" transform="scale(0.015625)"/>
      <path id="DejaVuSans-4e" d="M 628 4666 
L 1478 4666 
L 3547 763 
L 3547 4666 
L 4159 4666 
L 4159 0 
L 3309 0 
L 1241 3903 
L 1241 0 
L 628 0 
L 628 4666 
z
" transform="scale(0.015625)"/>
     </defs>
     <use xlink:href="#DejaVuSans-6b"/>
     <use xlink:href="#DejaVuSans-20" x="57.910156"/>
     <use xlink:href="#DejaVuSans-3d" x="89.697266"/>
     <use xlink:href="#DejaVuSans-20" x="173.486328"/>
     <use xlink:href="#DejaVuSans-30" x="205.273438"/>
     <use xlink:href="#DejaVuSans-20" x="268.896484"/>
     <use xlink:href="#DejaVuSans-2026" x="300.683594"/>
     <use xlink:href="#DejaVuSans-20" x="400.683594"/>
     <use xlink:href="#DejaVuSans-4e" x="432.470703"/>
    </g>
    <!-- Đọc ω(k), i_d(k), i_q(k) (nếu dùng) -->
    <g transform="translate(206.693631 162.044015) scale(0.11 -0.11)">
     <defs>
      <path id="DejaVuSans-110" d="M 659 4666 
L 1959 4666 
Q 3313 4666 3947 4102 
Q 4581 3538 4581 2338 
Q 4581 1131 3945 565 
Q 3309 0 1959 0 
L 659 0 
L 659 2188 
L 31 2188 
L 31 2638 
L 659 2638 
L 659 4666 
z
M 1294 4147 
L 1294 2638 
L 2344 2638 
L 2344 2188 
L 1294 2188 
L 1294 519 
L 2053 519 
Q 3019 519 3467 956 
Q 3916 1394 3916 2338 
Q 3916 3275 3467 3711 
Q 3019 4147 2053 4147 
L 1294 4147 
z
" transform="scale(0.015625)"/>
      <path id="DejaVuSans-1ecd" d="M 1959 3097 
Q 1497 3097 1228 2736 
Q 959 2375 959 1747 
Q 959 1119 1226 758 
Q 1494 397 1959 397 
Q 2419 397 2687 759 
Q 2956 1122 2956 1747 
Q 2956 2369 2687 2733 
Q 2419 3097 1959 3097 
z
M 1959 3584 
Q 2709 3584 3137 3096 
Q 3566 2609 3566 1747 
Q 3566 888 3137 398 
Q 2709 -91 1959 -91 
Q 1206 -91 779 398 
Q 353 888 353 1747 
Q 353 2609 779 3096 
Q 1206 3584 1959 3584 
z
M 1666 -441 
L 2241 -441 
L 2241 -1172 
L 1666 -1172 
L 1666 -441 
z
" transform="scale(0.015625)"/>
      <path id="DejaVuSans-3c9" d="M 1719 -91 
Q 422 -91 422 1766 
Q 422 2500 906 3500 
L 1525 3500 
Q 1078 2500 1078 1750 
Q 1078 397 1772 397 
Q 2406 397 2406 2078 
L 2938 2078 
Q 2938 397 3572 397 
Q 4266 397 4266 1750 
Q 4266 2500 3819 3500 
L 4438 3500 
Q 4922 2500 4922 1766 
Q 4922 -91 3625 -91 
Q 2775 -91 2672 844 
Q 2544 -91 1719 -91 
z
" transform="scale(0.015625)"/>
      <path id="DejaVuSans-2c" d="M 750 794 
L 1409 794 
L 1409 256 
L 897 -744 
L 494 -744 
L 750 256 
L 750 794 
z
" transform="scale(0.015625)"/>
      <path id="DejaVuSans-5f" d="M 3263 -1063 
L 3263 -1509 
L -63 -1509 
L -63 -1063 
L 3263 -1063 
z
" transform="scale(0.015625)"/>
      <path id="DejaVuSans-64" d="M 2906 2969 
L 2906 4863 
L 3481 4863 
L 3481 0 
L 2906 0 
L 2906 525 
Q 2725 213 2448 61 
Q 2172 -91 1784 -91 
Q 1150 -91 751 415 
Q 353 922 353 1747 
Q 353 2572 751 3078 
Q 1150 3584 1784 3584 
Q 2172 3584 2448 3432 
Q 2725 3281 2906 2969 
z
M 947 1747 
Q 947 1113 1208 752 
Q 1469 391 1925 391 
Q 2381 391 2643 752 
Q 2906 1113 2906 1747 
Q 2906 2381 2643 2742 
Q 2381 3103 1925 3103 
Q 1469 3103 1208 2742 
Q 947 2381 947 1747 
z
" transform="scale(0.015625)"/>
      <path id="DejaVuSans-71" d="M 947 1747 
Q 947 1113 1208 752 
Q 1469 391 1925 391 
Q 2381 391 2643 752 
Q 2906 1113 2906 1747 
Q 2906 2381 2643 2742 
Q 2381 3103 1925 3103 
Q 1469 3103 1208 2742 
Q 947 2381 947 1747 
z
M 2906 525 
Q 2725 213 2448 61 
Q 2172 -91 1784 -91 
Q 1150 -91 751 415 
Q 353 922 353 1747 
Q 353 2572 751 3078 
Q 1150 3584 1784 3584 
Q 2172 3584 2448 3432 
Q 2725 3281 2906 2969 
L 2906 3500 
L 3481 3500 
L 3481 -1331 
L 2906 -1331 
L 2906 525 
z
" transform="scale(0.015625)"/>
      <path id="DejaVuSans-1ebf" d="M 1738 4775 
L 2326 4775 
L 2985 3944 
L 2551 3944 
L 2032 4500 
L 1513 3944 
L 1079 3944 
L 1738 4775 
z
M 3348 5409 
L 3926 5409 
L 3214 4584 
L 2735 4584 
L 3348 5409 
z
M 3597 1894 
L 3597 1613 
L 953 1613 
Q 991 1019 1311 708 
Q 1631 397 2203 397 
Q 2534 397 2845 478 
Q 3156 559 3463 722 
L 3463 178 
Q 3153 47 2828 -22 
Q 2503 -91 2169 -91 
Q 1331 -91 842 396 
Q 353 884 353 1716 
Q 353 2575 817 3079 
Q 1281 3584 2069 3584 
Q 2775 3584 3186 3129 
Q 3597 2675 3597 1894 
z
M 3022 2063 
Q 3016 2534 2758 2815 
Q 2500 3097 2075 3097 
Q 1594 3097 1305 2825 
Q 1016 2553 972 2059 
L 3022 2063 
z
" transform="scale(0.015625)"/>
      <path id="DejaVuSans-f9" d="M 544 1381 
L 544 3500 
L 1119 3500 
L 1119 1403 
Q 1119 906 1312 657 
Q 1506 409 1894 409 
Q 2359 409 2629 706 
Q 2900 1003 2900 1516 
L 2900 3500 
L 3475 3500 
L 3475 0 
L 2900 0 
L 2900 538 
Q 2691 219 2414 64 
Q 2138 -91 1772 -91 
Q 1169 -91 856 284 
Q 544 659 544 1381 
z
M 1991 3584 
L 1991 3584 
z
M 1531 5119 
L 2412 3950 
L 1934 3950 
L 915 5119 
L 1531 5119 
z
" transform="scale(0.015625)"/>
     </defs>
     <use xlink:href="#DejaVuSans-110"/>
     <use xlink:href="#DejaVuSans-1ecd" x="77.490234"/>
     <use xlink:href="#DejaVuSans-63" x="138.671875"/>
     <use xlink:href="#DejaVuSans-20" x="193.652344"/>
     <use xlink:href="#DejaVuSans-3c9" x="225.439453"/>
     <use xlink:href="#DejaVuSans-28" x="309.179688"/>
     <use xlink:href="#DejaVuSans-6b" x="348.193359"/>
     <use xlink:href="#DejaVuSans-29" x="406.103516"/>
     <use xlink:href="#DejaVuSans-2c" x="445.117188"/>
     <use xlink:href="#DejaVuSans-20" x="476.904297"/>
     <use xlink:href="#DejaVuSans-69" x="508.691406"/>
     <use xlink:href="#DejaVuSans-5f" x="536.474609"/>
     <use xlink:href="#DejaVuSans-64" x="586.474609"/>
     <use xlink:href="#DejaVuSans-28" x="649.951172"/>
     <use xlink:href="#DejaVuSans-6b" x="688.964844"/>
     <use xlink:href="#DejaVuSans-29" x="746.875"/>
     <use xlink:href="#DejaVuSans-2c" x="785.888672"/>
     <use xlink:href="#DejaVuSans-20" x="817.675781"/>
     <use xlink:href="#DejaVuSans-69" x="849.462891"/>
     <use xlink:href="#DejaVuSans-5f" x="877.246094"/>
     <use xlink:href="#DejaVuSans-71" x="927.246094"/>
     <use xlink:href="#DejaVuSans-28" x="990.722656"/>
     <use xlink:href="#DejaVuSans-6b" x="1029.736328"/>
     <use xlink:href="#DejaVuSans-29" x="1087.646484"/>
     <use xlink:href="#DejaVuSans-20" x="1126.660156"/>
     <use xlink:href="#DejaVuSans-28" x="1158.447266"/>
     <use xlink:href="#DejaVuSans-6e" x="1197.460938"/>
     <use xlink:href="#DejaVuSans-1ebf" x="1260.839844"/>
     <use xlink:href="#DejaVuSans-75" x="1322.363281"/>
     <use xlink:href="#DejaVuSans-20" x="1385.742188"/>
     <use xlink:href="#DejaVuSans-64" x="1417.529297"/>
     <use xlink:href="#DejaVuSans-f9" x="1481.005859"/>
     <use xlink:href="#DejaVuSans-6e" x="1544.384766"/>
     <use xlink:href="#DejaVuSans-67" x="1607.763672"/>
     <use xlink:href="#DejaVuSans-29" x="1671.240234"/>
    </g>
   </g>
   <g id="text_3">
    <!-- Sinh tín hiệu tham chiếu: -->
    <g transform="translate(231.590584 217.72723) scale(0.11 -0.11)">
     <defs>
      <path id="DejaVuSans-53" d="M 3425 4513 
L 3425 3897 
Q 3066 4069 2747 4153 
Q 2428 4238 2131 4238 
Q 1616 4238 1336 4038 
Q 1056 3838 1056 3469 
Q 1056 3159 1242 3001 
Q 1428 2844 1947 2747 
L 2328 2669 
Q 3034 2534 3370 2195 
Q 3706 1856 3706 1288 
Q 3706 609 3251 259 
Q 2797 -91 1919 -91 
Q 1588 -91 1214 -16 
Q 841 59 441 206 
L 441 856 
Q 825 641 1194 531 
Q 1563 422 1919 422 
Q 2459 422 2753 634 
Q 3047 847 3047 1241 
Q 3047 1584 2836 1778 
Q 2625 1972 2144 2069 
L 1759 2144 
Q 1053 2284 737 2584 
Q 422 2884 422 3419 
Q 422 4038 858 4394 
Q 1294 4750 2059 4750 
Q 2388 4750 2728 4690 
Q 3069 4631 3425 4513 
z
" transform="scale(0.015625)"/>
      <path id="DejaVuSans-ed" d="M 1322 5119 
L 1944 5119 
L 926 3944 
L 447 3944 
L 1322 5119 
z
M 603 3500 
L 1178 3500 
L 1178 0 
L 603 0 
L 603 3500 
z
M 891 3584 
L 891 3584 
z
" transform="scale(0.015625)"/>
      <path id="DejaVuSans-1ec7" d="M 1738 -441 
L 2313 -441 
L 2313 -1172 
L 1738 -1172 
L 1738 -441 
z
M 3597 1894 
L 3597 1613 
L 953 1613 
Q 991 1019 1311 708 
Q 1631 397 2203 397 
Q 2534 397 2845 478 
Q 3156 559 3463 722 
L 3463 178 
Q 3153 47 2828 -22 
Q 2503 -91 2169 -91 
Q 1331 -91 842 396 
Q 353 884 353 1716 
Q 353 2575 817 3079 
Q 1281 3584 2069 3584 
Q 2775 3584 3186 3129 
Q 3597 2675 3597 1894 
z
M 3022 2063 
Q 3016 2534 2758 2815 
Q 2500 3097 2075 3097 
Q 1594 3097 1305 2825 
Q 1016 2553 972 2059 
L 3022 2063 
z
M 1738 -441 
L 2313 -441 
L 2313 -1172 
L 1738 -1172 
L 1738 -441 
z
M 1801 5119 
L 2263 5119 
L 3029 3944 
L 2595 3944 
L 2032 4709 
L 1470 3944 
L 1035 3944 
L 1801 5119 
z
" transform="scale(0.015625)"/>
     </defs>
     <use xlink:href="#DejaVuSans-53"/>
     <use xlink:href="#DejaVuSans-69" x="63.476562"/>
     <use xlink:href="#DejaVuSans-6e" x="91.259766"/>
     <use xlink:href="#DejaVuSans-68" x="154.638672"/>
     <use xlink:href="#DejaVuSans-20" x="218.017578"/>
     <use xlink:href="#DejaVuSans-74" x="249.804688"/>
     <use xlink:href="#DejaVuSans-ed" x="289.013672"/>
     <use xlink:href="#DejaVuSans-6e" x="316.796875"/>
     <use xlink:href="#DejaVuSans-20" x="380.175781"/>
     <use xlink:href="#DejaVuSans-68" x="411.962891"/>
     <use xlink:href="#DejaVuSans-69" x="475.341797"/>
     <use xlink:href="#DejaVuSans-1ec7" x="503.125"/>
     <use xlink:href="#DejaVuSans-75" x="564.648438"/>
     <use xlink:href="#DejaVuSans-20" x="628.027344"/>
     <use xlink:href="#DejaVuSans-74" x="659.814453"/>
     <use xlink:href="#DejaVuSans-68" x="699.023438"/>
     <use xlink:href="#DejaVuSans-61" x="762.402344"/>
     <use xlink:href="#DejaVuSans-6d" x="823.681641"/>
     <use xlink:href="#DejaVuSans-20" x="921.09375"/>
     <use xlink:href="#DejaVuSans-63" x="952.880859"/>
     <use xlink:href="#DejaVuSans-68" x="1007.861328"/>
     <use xlink:href="#DejaVuSans-69" x="1071.240234"/>
     <use xlink:href="#DejaVuSans-1ebf" x="1099.023438"/>
     <use xlink:href="#DejaVuSans-75" x="1160.546875"/>
     <use xlink:href="#DejaVuSans-3a" x="1223.925781"/>
    </g>
    <!-- ω*(k), T_L(k) theo kịch bản -->
    <g transform="translate(226.572694 230.706886) scale(0.11 -0.11)">
     <defs>
      <path id="DejaVuSans-2a" d="M 3009 3897 
L 1888 3291 
L 3009 2681 
L 2828 2375 
L 1778 3009 
L 1778 1831 
L 1422 1831 
L 1422 3009 
L 372 2375 
L 191 2681 
L 1313 3291 
L 191 3897 
L 372 4206 
L 1422 3572 
L 1422 4750 
L 1778 4750 
L 1778 3572 
L 2828 4206 
L 3009 3897 
z
" transform="scale(0.015625)"/>
      <path id="DejaVuSans-4c" d="M 628 4666 
L 1259 4666 
L 1259 531 
L 3531 531 
L 3531 0 
L 628 0 
L 628 4666 
z
" transform="scale(0.015625)"/>
      <path id="DejaVuSans-65" d="M 3597 1894 
L 3597 1613 
L 953 1613 
Q 991 1019 1311 708 
Q 1631 397 2203 397 
Q 2534 397 2845 478 
Q 3156 559 3463 722 
L 3463 178 
Q 3153 47 2828 -22 
Q 2503 -91 2169 -91 
Q 1331 -91 842 396 
Q 353 884 353 1716 
Q 353 2575 817 3079 
Q 1281 3584 2069 3584 
Q 2775 3584 3186 3129 
Q 3597 2675 3597 1894 
z
M 3022 2063 
Q 3016 2534 2758 2815 
Q 2500 3097 2075 3097 
Q 1594 3097 1305 2825 
Q 1016 2553 972 2059 
L 3022 2063 
z
" transform="scale(0.015625)"/>
      <path id="DejaVuSans-1ecb" d="M 603 3500 
L 1178 3500 
L 1178 0 
L 603 0 
L 603 3500 
z
M 603 4863 
L 1178 4863 
L 1178 4134 
L 603 4134 
L 603 4863 
z
M 594 -441 
L 1169 -441 
L 1169 -1172 
L 594 -1172 
L 594 -441 
z
" transform="scale(0.015625)"/>
      <path id="DejaVuSans-62" d="M 3116 1747 
Q 3116 2381 2855 2742 
Q 2594 3103 2138 3103 
Q 1681 3103 1420 2742 
Q 1159 2381 1159 1747 
Q 1159 1113 1420 752 
Q 1681 391 2138 391 
Q 2594 391 2855 752 
Q 3116 1113 3116 1747 
z
M 1159 2969 
Q 1341 3281 1617 3432 
Q 1894 3584 2278 3584 
Q 2916 3584 3314 3078 
Q 3713 2572 3713 1747 
Q 3713 922 3314 415 
Q 2916 -91 2278 -91 
Q 1894 -91 1617 61 
Q 1341 213 1159 525 
L 1159 0 
L 581 0 
L 581 4863 
L 1159 4863 
L 1159 2969 
z
" transform="scale(0.015625)"/>
      <path id="DejaVuSans-1ea3" d="M 2194 1759 
Q 1497 1759 1228 1600 
Q 959 1441 959 1056 
Q 959 750 1161 570 
Q 1363 391 1709 391 
Q 2188 391 2477 730 
Q 2766 1069 2766 1631 
L 2766 1759 
L 2194 1759 
z
M 3341 1997 
L 3341 0 
L 2766 0 
L 2766 531 
Q 2569 213 2275 61 
Q 1981 -91 1556 -91 
Q 1019 -91 701 211 
Q 384 513 384 1019 
Q 384 1609 779 1909 
Q 1175 2209 1959 2209 
L 2766 2209 
L 2766 2266 
Q 2766 2663 2505 2880 
Q 2244 3097 1772 3097 
Q 1472 3097 1187 3025 
Q 903 2953 641 2809 
L 641 3341 
Q 956 3463 1253 3523 
Q 1550 3584 1831 3584 
Q 2591 3584 2966 3190 
Q 3341 2797 3341 1997 
z
M 1236 5025 
Q 1586 5184 1914 5184 
Q 2239 5184 2437 5051 
Q 2636 4919 2636 4709 
Q 2636 4519 2361 4316 
L 2223 4216 
Q 2114 4134 2102 4106 
Q 2080 4056 2080 3956 
L 1708 3956 
L 1708 3994 
Q 1708 4119 1755 4203 
Q 1802 4288 1961 4403 
L 2102 4509 
Q 2245 4616 2245 4741 
Q 2245 4806 2148 4862 
Q 2052 4919 1830 4919 
Q 1548 4919 1236 4756 
L 1236 5025 
z
" transform="scale(0.015625)"/>
     </defs>
     <use xlink:href="#DejaVuSans-3c9"/>
     <use xlink:href="#DejaVuSans-2a" x="83.740234"/>
     <use xlink:href="#DejaVuSans-28" x="133.740234"/>
     <use xlink:href="#DejaVuSans-6b" x="172.753906"/>
     <use xlink:href="#DejaVuSans-29" x="230.664062"/>
     <use xlink:href="#DejaVuSans-2c" x="269.677734"/>
     <use xlink:href="#DejaVuSans-20" x="301.464844"/>
     <use xlink:href="#DejaVuSans-54" x="333.251953"/>
     <use xlink:href="#DejaVuSans-5f" x="394.335938"/>
     <use xlink:href="#DejaVuSans-4c" x="444.335938"/>
     <use xlink:href="#DejaVuSans-28" x="500.048828"/>
     <use xlink:href="#DejaVuSans-6b" x="539.0625"/>
     <use xlink:href="#DejaVuSans-29" x="596.972656"/>
     <use xlink:href="#DejaVuSans-20" x="635.986328"/>
     <use xlink:href="#DejaVuSans-74" x="667.773438"/>
     <use xlink:href="#DejaVuSans-68" x="706.982422"/>
     <use xlink:href="#DejaVuSans-65" x="770.361328"/>
     <use xlink:href="#DejaVuSans-6f" x="831.884766"/>
     <use xlink:href="#DejaVuSans-20" x="893.066406"/>
     <use xlink:href="#DejaVuSans-6b" x="924.853516"/>
     <use xlink:href="#DejaVuSans-1ecb" x="982.763672"/>
     <use xlink:href="#DejaVuSans-63" x="1010.546875"/>
     <use xlink:href="#DejaVuSans-68" x="1065.527344"/>
     <use xlink:href="#DejaVuSans-20" x="1128.90625"/>
     <use xlink:href="#DejaVuSans-62" x="1160.693359"/>
     <use xlink:href="#DejaVuSans-1ea3" x="1224.169922"/>
     <use xlink:href="#DejaVuSans-6e" x="1285.449219"/>
    </g>
   </g>
   <g id="text_4">
    <!-- Điều khiển tốc độ: -->
    <g transform="translate(250.52949 286.919476) scale(0.11 -0.11)">
     <defs>
      <path id="DejaVuSans-1ec1" d="M 2774 5409 
L 3386 4584 
L 2908 4584 
L 2190 5409 
L 2774 5409 
z
M 1738 4775 
L 2326 4775 
L 2985 3944 
L 2551 3944 
L 2032 4500 
L 1513 3944 
L 1079 3944 
L 1738 4775 
z
M 3597 1894 
L 3597 1613 
L 953 1613 
Q 991 1019 1311 708 
Q 1631 397 2203 397 
Q 2534 397 2845 478 
Q 3156 559 3463 722 
L 3463 178 
Q 3153 47 2828 -22 
Q 2503 -91 2169 -91 
Q 1331 -91 842 396 
Q 353 884 353 1716 
Q 353 2575 817 3079 
Q 1281 3584 2069 3584 
Q 2775 3584 3186 3129 
Q 3597 2675 3597 1894 
z
M 3022 2063 
Q 3016 2534 2758 2815 
Q 2500 3097 2075 3097 
Q 1594 3097 1305 2825 
Q 1016 2553 972 2059 
L 3022 2063 
z
" transform="scale(0.015625)"/>
      <path id="DejaVuSans-1ec3" d="M 3597 1894 
L 3597 1613 
L 953 1613 
Q 991 1019 1311 708 
Q 1631 397 2203 397 
Q 2534 397 2845 478 
Q 3156 559 3463 722 
L 3463 178 
Q 3153 47 2828 -22 
Q 2503 -91 2169 -91 
Q 1331 -91 842 396 
Q 353 884 353 1716 
Q 353 2575 817 3079 
Q 1281 3584 2069 3584 
Q 2775 3584 3186 3129 
Q 3597 2675 3597 1894 
z
M 3022 2063 
Q 3016 2534 2758 2815 
Q 2500 3097 2075 3097 
Q 1594 3097 1305 2825 
Q 1016 2553 972 2059 
L 3022 2063 
z
M 2468 5345 
Q 2818 5504 3146 5504 
Q 3471 5504 3669 5371 
Q 3868 5239 3868 5029 
Q 3868 4839 3593 4636 
L 3455 4536 
Q 3346 4454 3334 4426 
Q 3312 4376 3312 4276 
L 2940 4276 
L 2940 4314 
Q 2940 4439 2987 4523 
Q 3034 4608 3193 4723 
L 3334 4829 
Q 3477 4936 3477 5061 
Q 3477 5126 3380 5182 
Q 3284 5239 3062 5239 
Q 2780 5239 2468 5076 
L 2468 5345 
z
M 1738 4775 
L 2326 4775 
L 2985 3944 
L 2551 3944 
L 2032 4500 
L 1513 3944 
L 1079 3944 
L 1738 4775 
z
" transform="scale(0.015625)"/>
     </defs>
     <use xlink:href="#DejaVuSans-110"/>
     <use xlink:href="#DejaVuSans-69" x="77.490234"/>
     <use xlink:href="#DejaVuSans-1ec1" x="105.273438"/>
     <use xlink:href="#DejaVuSans-75" x="166.796875"/>
     <use xlink:href="#DejaVuSans-20" x="230.175781"/>
     <use xlink:href="#DejaVuSans-6b" x="261.962891"/>
     <use xlink:href="#DejaVuSans-68" x="319.873047"/>
     <use xlink:href="#DejaVuSans-69" x="383.251953"/>
     <use xlink:href="#DejaVuSans-1ec3" x="411.035156"/>
     <use xlink:href="#DejaVuSans-6e" x="472.558594"/>
     <use xlink:href="#DejaVuSans-20" x="535.9375"/>
     <use xlink:href="#DejaVuSans-74" x="567.724609"/>
     <use xlink:href="#DejaVuSans-1ed1" x="606.933594"/>
     <use xlink:href="#DejaVuSans-63" x="668.115234"/>
     <use xlink:href="#DejaVuSans-20" x="723.095703"/>
     <use xlink:href="#DejaVuSans-111" x="754.882812"/>
     <use xlink:href="#DejaVuSans-1ed9" x="818.359375"/>
     <use xlink:href="#DejaVuSans-3a" x="879.541016"/>
    </g>
    <!-- PID / MPC → i_q*(k) -->
    <g transform="translate(248.230662 299.237069) scale(0.11 -0.11)">
     <defs>
      <path id="DejaVuSans-50" d="M 1259 4147 
L 1259 2394 
L 2053 2394 
Q 2494 2394 2734 2622 
Q 2975 2850 2975 3272 
Q 2975 3691 2734 3919 
Q 2494 4147 2053 4147 
L 1259 4147 
z
M 628 4666 
L 2053 4666 
Q 2838 4666 3239 4311 
Q 3641 3956 3641 3272 
Q 3641 2581 3239 2228 
Q 2838 1875 2053 1875 
L 1259 1875 
L 1259 0 
L 628 0 
L 628 4666 
z
" transform="scale(0.015625)"/>
      <path id="DejaVuSans-49" d="M 628 4666 
L 1259 4666 
L 1259 0 
L 628 0 
L 628 4666 
z
" transform="scale(0.015625)"/>
      <path id="DejaVuSans-44" d="M 1259 4147 
L 1259 519 
L 2022 519 
Q 2988 519 3436 956 
Q 3884 1394 3884 2338 
Q 3884 3275 3436 3711 
Q 2988 4147 2022 4147 
L 1259 4147 
z
M 628 4666 
L 1925 4666 
Q 3281 4666 3915 4102 
Q 4550 3538 4550 2338 
Q 4550 1131 3912 565 
Q 3275 0 1925 0 
L 628 0 
L 628 4666 
z
" transform="scale(0.015625)"/>
      <path id="DejaVuSans-2f" d="M 1625 4666 
L 2156 4666 
L 531 -594 
L 0 -594 
L 1625 4666 
z
" transform="scale(0.015625)"/>
      <path id="DejaVuSans-4d" d="M 628 4666 
L 1569 4666 
L 2759 1491 
L 3956 4666 
L 4897 4666 
L 4897 0 
L 4281 0 
L 4281 4097 
L 3078 897 
L 2444 897 
L 1241 4097 
L 1241 0 
L 628 0 
L 628 4666 
z
" transform="scale(0.015625)"/>
      <path id="DejaVuSans-43" d="M 4122 4306 
L 4122 3641 
Q 3803 3938 3442 4084 
Q 3081 4231 2675 4231 
Q 1875 4231 1450 3742 
Q 1025 3253 1025 2328 
Q 1025 1406 1450 917 
Q 1875 428 2675 428 
Q 3081 428 3442 575 
Q 3803 722 4122 1019 
L 4122 359 
Q 3791 134 3420 21 
Q 3050 -91 2638 -91 
Q 1578 -91 968 557 
Q 359 1206 359 2328 
Q 359 3453 968 4101 
Q 1578 4750 2638 4750 
Q 3056 4750 3426 4639 
Q 3797 4528 4122 4306 
z
" transform="scale(0.015625)"/>
      <path id="DejaVuSans-2192" d="M 5050 2147 
L 5050 1866 
L 3822 638 
L 3447 1013 
L 4175 1741 
L 366 1741 
L 366 2272 
L 4175 2272 
L 3447 3000 
L 3822 3375 
L 5050 2147 
z
" transform="scale(0.015625)"/>
     </defs>
     <use xlink:href="#DejaVuSans-50"/>
     <use xlink:href="#DejaVuSans-49" x="60.302734"/>
     <use xlink:href="#DejaVuSans-44" x="89.794922"/>
     <use xlink:href="#DejaVuSans-20" x="166.796875"/>
     <use xlink:href="#DejaVuSans-2f" x="198.583984"/>
     <use xlink:href="#DejaVuSans-20" x="232.275391"/>
     <use xlink:href="#DejaVuSans-4d" x="264.0625"/>
     <use xlink:href="#DejaVuSans-50" x="350.341797"/>
     <use xlink:href="#DejaVuSans-43" x="410.644531"/>
     <use xlink:href="#DejaVuSans-20" x="480.46875"/>
     <use xlink:href="#DejaVuSans-2192" x="512.255859"/>
     <use xlink:href="#DejaVuSans-20" x="596.044922"/>
     <use xlink:href="#DejaVuSans-69" x="627.832031"/>
     <use xlink:href="#DejaVuSans-5f" x="655.615234"/>
     <use xlink:href="#DejaVuSans-71" x="705.615234"/>
     <use xlink:href="#DejaVuSans-2a" x="769.091797"/>
     <use xlink:href="#DejaVuSans-28" x="819.091797"/>
     <use xlink:href="#DejaVuSans-6b" x="858.105469"/>
     <use xlink:href="#DejaVuSans-29" x="916.015625"/>
    </g>
    <!-- (|i_q*| ≤ giới hạn) -->
    <g transform="translate(252.132225 312.388601) scale(0.11 -0.11)">
     <defs>
      <path id="DejaVuSans-7c" d="M 1344 4891 
L 1344 -1509 
L 813 -1509 
L 813 4891 
L 1344 4891 
z
" transform="scale(0.015625)"/>
      <path id="DejaVuSans-2264" d="M 4684 3175 
L 1684 2309 
L 4684 1453 
L 4684 897 
L 678 2047 
L 678 2578 
L 4684 3725 
L 4684 3175 
z
M 678 531 
L 4684 531 
L 4684 0 
L 678 0 
L 678 531 
z
" transform="scale(0.015625)"/>
      <path id="DejaVuSans-1edb" d="M 2394 5119 
L 3016 5119 
L 1998 3944 
L 1519 3944 
L 2394 5119 
z
M 2622 3136 
L 2622 3508 
Q 2813 3367 2950 3300 
Q 3088 3233 3185 3233 
Q 3328 3233 3400 3319 
Q 3472 3405 3472 3573 
Q 3472 3673 3448 3770 
Q 3425 3867 3378 3964 
L 3794 3964 
Q 3825 3845 3840 3739 
Q 3856 3633 3856 3539 
Q 3856 3158 3720 2978 
Q 3585 2798 3294 2798 
Q 3144 2798 2980 2881 
Q 2816 2964 2622 3136 
z
M 1975 3097 
Q 1513 3097 1244 2736 
Q 975 2375 975 1747 
Q 975 1119 1242 758 
Q 1510 397 1975 397 
Q 2435 397 2703 759 
Q 2972 1122 2972 1747 
Q 2972 2369 2703 2733 
Q 2435 3097 1975 3097 
z
M 1975 3584 
Q 2725 3584 3153 3096 
Q 3582 2609 3582 1747 
Q 3582 888 3153 398 
Q 2725 -91 1975 -91 
Q 1222 -91 795 398 
Q 369 888 369 1747 
Q 369 2609 795 3096 
Q 1222 3584 1975 3584 
z
" transform="scale(0.015625)"/>
     </defs>
     <use xlink:href="#DejaVuSans-28"/>
     <use xlink:href="#DejaVuSans-7c" x="39.013672"/>
     <use xlink:href="#DejaVuSans-69" x="72.705078"/>
     <use xlink:href="#DejaVuSans-5f" x="100.488281"/>
     <use xlink:href="#DejaVuSans-71" x="150.488281"/>
     <use xlink:href="#DejaVuSans-2a" x="213.964844"/>
     <use xlink:href="#DejaVuSans-7c" x="263.964844"/>
     <use xlink:href="#DejaVuSans-20" x="297.65625"/>
     <use xlink:href="#DejaVuSans-2264" x="329.443359"/>
     <use xlink:href="#DejaVuSans-20" x="413.232422"/>
     <use xlink:href="#DejaVuSans-67" x="445.019531"/>
     <use xlink:href="#DejaVuSans-69" x="508.496094"/>
     <use xlink:href="#DejaVuSans-1edb" x="536.279297"/>
     <use xlink:href="#DejaVuSans-69" x="597.460938"/>
     <use xlink:href="#DejaVuSans-20" x="625.244141"/>
     <use xlink:href="#DejaVuSans-68" x="657.03125"/>
     <use xlink:href="#DejaVuSans-1ea1" x="720.410156"/>
     <use xlink:href="#DejaVuSans-6e" x="781.689453"/>
     <use xlink:href="#DejaVuSans-29" x="845.068359"/>
    </g>
   </g>
   <g id="text_5">
    <!-- Vòng dòng điện PI + FOC: -->
    <g transform="translate(229.880428 368.656362) scale(0.11 -0.11)">
     <defs>
      <path id="DejaVuSans-56" d="M 1831 0 
L 50 4666 
L 709 4666 
L 2188 738 
L 3669 4666 
L 4325 4666 
L 2547 0 
L 1831 0 
z
" transform="scale(0.015625)"/>
      <path id="DejaVuSans-46" d="M 628 4666 
L 3309 4666 
L 3309 4134 
L 1259 4134 
L 1259 2759 
L 3109 2759 
L 3109 2228 
L 1259 2228 
L 1259 0 
L 628 0 
L 628 4666 
z
" transform="scale(0.015625)"/>
      <path id="DejaVuSans-4f" d="M 2522 4238 
Q 1834 4238 1429 3725 
Q 1025 3213 1025 2328 
Q 1025 1447 1429 934 
Q 1834 422 2522 422 
Q 3209 422 3611 934 
Q 4013 1447 4013 2328 
Q 4013 3213 3611 3725 
Q 3209 4238 2522 4238 
z
M 2522 4750 
Q 3503 4750 4090 4092 
Q 4678 3434 4678 2328 
Q 4678 1225 4090 567 
Q 3503 -91 2522 -91 
Q 1538 -91 948 565 
Q 359 1222 359 2328 
Q 359 3434 948 4092 
Q 1538 4750 2522 4750 
z
" transform="scale(0.015625)"/>
     </defs>
     <use xlink:href="#DejaVuSans-56"/>
     <use xlink:href="#DejaVuSans-f2" x="60.658203"/>
     <use xlink:href="#DejaVuSans-6e" x="121.839844"/>
     <use xlink:href="#DejaVuSans-67" x="185.21875"/>
     <use xlink:href="#DejaVuSans-20" x="248.695312"/>
     <use xlink:href="#DejaVuSans-64" x="280.482422"/>
     <use xlink:href="#DejaVuSans-f2" x="343.958984"/>
     <use xlink:href="#DejaVuSans-6e" x="405.140625"/>
     <use xlink:href="#DejaVuSans-67" x="468.519531"/>
     <use xlink:href="#DejaVuSans-20" x="531.996094"/>
     <use xlink:href="#DejaVuSans-111" x="563.783203"/>
     <use xlink:href="#DejaVuSans-69" x="627.259766"/>
     <use xlink:href="#DejaVuSans-1ec7" x="655.042969"/>
     <use xlink:href="#DejaVuSans-6e" x="716.566406"/>
     <use xlink:href="#DejaVuSans-20" x="779.945312"/>
     <use xlink:href="#DejaVuSans-50" x="811.732422"/>
     <use xlink:href="#DejaVuSans-49" x="872.035156"/>
     <use xlink:href="#DejaVuSans-20" x="901.527344"/>
     <use xlink:href="#DejaVuSans-2b" x="933.314453"/>
     <use xlink:href="#DejaVuSans-20" x="1017.103516"/>
     <use xlink:href="#DejaVuSans-46" x="1048.890625"/>
     <use xlink:href="#DejaVuSans-4f" x="1106.410156"/>
     <use xlink:href="#DejaVuSans-43" x="1185.121094"/>
     <use xlink:href="#DejaVuSans-3a" x="1254.945312"/>
    </g>
    <!-- (i_d*, i_q*) → (v_d, v_q) -->
    <g transform="translate(237.043319 380.973956) scale(0.11 -0.11)">
     <use xlink:href="#DejaVuSans-28"/>
     <use xlink:href="#DejaVuSans-69" x="39.013672"/>
     <use xlink:href="#DejaVuSans-5f" x="66.796875"/>
     <use xlink:href="#DejaVuSans-64" x="116.796875"/>
     <use xlink:href="#DejaVuSans-2a" x="180.273438"/>
     <use xlink:href="#DejaVuSans-2c" x="230.273438"/>
     <use xlink:href="#DejaVuSans-20" x="262.060547"/>
     <use xlink:href="#DejaVuSans-69" x="293.847656"/>
     <use xlink:href="#DejaVuSans-5f" x="321.630859"/>
     <use xlink:href="#DejaVuSans-71" x="371.630859"/>
     <use xlink:href="#DejaVuSans-2a" x="435.107422"/>
     <use xlink:href="#DejaVuSans-29" x="485.107422"/>
     <use xlink:href="#DejaVuSans-20" x="524.121094"/>
     <use xlink:href="#DejaVuSans-2192" x="555.908203"/>
     <use xlink:href="#DejaVuSans-20" x="639.697266"/>
     <use xlink:href="#DejaVuSans-28" x="671.484375"/>
     <use xlink:href="#DejaVuSans-76" x="710.498047"/>
     <use xlink:href="#DejaVuSans-5f" x="769.677734"/>
     <use xlink:href="#DejaVuSans-64" x="819.677734"/>
     <use xlink:href="#DejaVuSans-2c" x="883.154297"/>
     <use xlink:href="#DejaVuSans-20" x="914.941406"/>
     <use xlink:href="#DejaVuSans-76" x="946.728516"/>
     <use xlink:href="#DejaVuSans-5f" x="1005.908203"/>
     <use xlink:href="#DejaVuSans-71" x="1055.908203"/>
     <use xlink:href="#DejaVuSans-29" x="1119.384766"/>
    </g>
   </g>
   <g id="text_6">
    <!-- Cập nhật mô hình động cơ KĐB (dq + cơ học): -->
    <g transform="translate(173.50199 444.011702) scale(0.11 -0.11)">
     <defs>
      <path id="DejaVuSans-1ead" d="M 2194 1759 
Q 1497 1759 1228 1600 
Q 959 1441 959 1056 
Q 959 750 1161 570 
Q 1363 391 1709 391 
Q 2188 391 2477 730 
Q 2766 1069 2766 1631 
L 2766 1759 
L 2194 1759 
z
M 3341 1997 
L 3341 0 
L 2766 0 
L 2766 531 
Q 2569 213 2275 61 
Q 1981 -91 1556 -91 
Q 1019 -91 701 211 
Q 384 513 384 1019 
Q 384 1609 779 1909 
Q 1175 2209 1959 2209 
L 2766 2209 
L 2766 2266 
Q 2766 2663 2505 2880 
Q 2244 3097 1772 3097 
Q 1472 3097 1187 3025 
Q 903 2953 641 2809 
L 641 3341 
Q 956 3463 1253 3523 
Q 1550 3584 1831 3584 
Q 2591 3584 2966 3190 
Q 3341 2797 3341 1997 
z
M 1625 5119 
L 2087 5119 
L 2853 3944 
L 2419 3944 
L 1856 4709 
L 1294 3944 
L 859 3944 
L 1625 5119 
z
M 1410 -441 
L 1985 -441 
L 1985 -1172 
L 1410 -1172 
L 1410 -441 
z
" transform="scale(0.015625)"/>
     </defs>
     <use xlink:href="#DejaVuSans-43"/>
     <use xlink:href="#DejaVuSans-1ead" x="69.824219"/>
     <use xlink:href="#DejaVuSans-70" x="131.103516"/>
     <use xlink:href="#DejaVuSans-20" x="194.580078"/>
     <use xlink:href="#DejaVuSans-6e" x="226.367188"/>
     <use xlink:href="#DejaVuSans-68" x="289.746094"/>
     <use xlink:href="#DejaVuSans-1ead" x="353.125"/>
     <use xlink:href="#DejaVuSans-74" x="414.404297"/>
     <use xlink:href="#DejaVuSans-20" x="453.613281"/>
     <use xlink:href="#DejaVuSans-6d" x="485.400391"/>
     <use xlink:href="#DejaVuSans-f4" x="582.8125"/>
     <use xlink:href="#DejaVuSans-20" x="643.994141"/>
     <use xlink:href="#DejaVuSans-68" x="675.78125"/>
     <use xlink:href="#DejaVuSans-ec" x="739.160156"/>
     <use xlink:href="#DejaVuSans-6e" x="766.943359"/>
     <use xlink:href="#DejaVuSans-68" x="830.322266"/>
     <use xlink:href="#DejaVuSans-20" x="893.701172"/>
     <use xlink:href="#DejaVuSans-111" x="925.488281"/>
     <use xlink:href="#DejaVuSans-1ed9" x="988.964844"/>
     <use xlink:href="#DejaVuSans-6e" x="1050.146484"/>
     <use xlink:href="#DejaVuSans-67" x="1113.525391"/>
     <use xlink:href="#DejaVuSans-20" x="1177.001953"/>
     <use xlink:href="#DejaVuSans-63" x="1208.789062"/>
     <use xlink:href="#DejaVuSans-1a1" x="1263.769531"/>
     <use xlink:href="#DejaVuSans-20" x="1324.951172"/>
     <use xlink:href="#DejaVuSans-4b" x="1356.738281"/>
     <use xlink:href="#DejaVuSans-110" x="1422.314453"/>
     <use xlink:href="#DejaVuSans-42" x="1499.804688"/>
     <use xlink:href="#DejaVuSans-20" x="1568.408203"/>
     <use xlink:href="#DejaVuSans-28" x="1600.195312"/>
     <use xlink:href="#DejaVuSans-64" x="1639.208984"/>
     <use xlink:href="#DejaVuSans-71" x="1702.685547"/>
     <use xlink:href="#DejaVuSans-20" x="1766.162109"/>
     <use xlink:href="#DejaVuSans-2b" x="1797.949219"/>
     <use xlink:href="#DejaVuSans-20" x="1881.738281"/>
     <use xlink:href="#DejaVuSans-63" x="1913.525391"/>
     <use xlink:href="#DejaVuSans-1a1" x="1968.505859"/>
     <use xlink:href="#DejaVuSans-20" x="2029.6875"/>
     <use xlink:href="#DejaVuSans-68" x="2061.474609"/>
     <use xlink:href="#DejaVuSans-1ecd" x="2124.853516"/>
     <use xlink:href="#DejaVuSans-63" x="2186.035156"/>
     <use xlink:href="#DejaVuSans-29" x="2241.015625"/>
     <use xlink:href="#DejaVuSans-3a" x="2280.029297"/>
    </g>
    <!-- x(k+1) = f(x(k), v_d, v_q, T_L) -->
    <g transform="translate(218.196365 456.329296) scale(0.11 -0.11)">
     <defs>
      <path id="DejaVuSans-31" d="M 794 531 
L 1825 531 
L 1825 4091 
L 703 3866 
L 703 4441 
L 1819 4666 
L 2450 4666 
L 2450 531 
L 3481 531 
L 3481 0 
L 794 0 
L 794 531 
z
" transform="scale(0.015625)"/>
      <path id="DejaVuSans-66" d="M 2375 4863 
L 2375 4384 
L 1825 4384 
Q 1516 4384 1395 4259 
Q 1275 4134 1275 3809 
L 1275 3500 
L 2222 3500 
L 2222 3053 
L 1275 3053 
L 1275 0 
L 697 0 
L 697 3053 
L 147 3053 
L 147 3500 
L 697 3500 
L 697 3744 
Q 697 4328 969 4595 
Q 1241 4863 1831 4863 
L 2375 4863 
z
" transform="scale(0.015625)"/>
     </defs>
     <use xlink:href="#DejaVuSans-78"/>
     <use xlink:href="#DejaVuSans-28" x="59.179688"/>
     <use xlink:href="#DejaVuSans-6b" x="98.193359"/>
     <use xlink:href="#DejaVuSans-2b" x="156.103516"/>
     <use xlink:href="#DejaVuSans-31" x="239.892578"/>
     <use xlink:href="#DejaVuSans-29" x="303.515625"/>
     <use xlink:href="#DejaVuSans-20" x="342.529297"/>
     <use xlink:href="#DejaVuSans-3d" x="374.316406"/>
     <use xlink:href="#DejaVuSans-20" x="458.105469"/>
     <use xlink:href="#DejaVuSans-66" x="489.892578"/>
     <use xlink:href="#DejaVuSans-28" x="525.097656"/>
     <use xlink:href="#DejaVuSans-78" x="564.111328"/>
     <use xlink:href="#DejaVuSans-28" x="623.291016"/>
     <use xlink:href="#DejaVuSans-6b" x="662.304688"/>
     <use xlink:href="#DejaVuSans-29" x="720.214844"/>
     <use xlink:href="#DejaVuSans-2c" x="759.228516"/>
     <use xlink:href="#DejaVuSans-20" x="791.015625"/>
     <use xlink:href="#DejaVuSans-76" x="822.802734"/>
     <use xlink:href="#DejaVuSans-5f" x="881.982422"/>
     <use xlink:href="#DejaVuSans-64" x="931.982422"/>
     <use xlink:href="#DejaVuSans-2c" x="995.458984"/>
     <use xlink:href="#DejaVuSans-20" x="1027.246094"/>
     <use xlink:href="#DejaVuSans-76" x="1059.033203"/>
     <use xlink:href="#DejaVuSans-5f" x="1118.212891"/>
     <use xlink:href="#DejaVuSans-71" x="1168.212891"/>
     <use xlink:href="#DejaVuSans-2c" x="1231.689453"/>
     <use xlink:href="#DejaVuSans-20" x="1263.476562"/>
     <use xlink:href="#DejaVuSans-54" x="1295.263672"/>
     <use xlink:href="#DejaVuSans-5f" x="1356.347656"/>
     <use xlink:href="#DejaVuSans-4c" x="1406.347656"/>
     <use xlink:href="#DejaVuSans-29" x="1462.060547"/>
    </g>
   </g>
   <g id="text_7">
    <!-- Lưu dữ liệu, tính chỉ tiêu đánh giá -->
    <g transform="translate(208.363397 519.012808) scale(0.11 -0.11)">
     <defs>
      <path id="DejaVuSans-1b0" d="M 3094 3136 
L 3094 3508 
Q 3285 3367 3422 3300 
Q 3560 3233 3657 3233 
Q 3800 3233 3872 3319 
Q 3944 3405 3944 3573 
Q 3944 3673 3920 3770 
Q 3897 3867 3850 3964 
L 4266 3964 
Q 4297 3845 4312 3739 
Q 4328 3633 4328 3539 
Q 4328 3158 4192 2978 
Q 4057 2798 3766 2798 
Q 3616 2798 3452 2881 
Q 3288 2964 3094 3136 
z
M 552 1381 
L 552 3500 
L 1127 3500 
L 1127 1403 
Q 1127 906 1320 657 
Q 1514 409 1902 409 
Q 2367 409 2637 706 
Q 2908 1003 2908 1516 
L 2908 3500 
L 3483 3500 
L 3483 0 
L 2908 0 
L 2908 538 
Q 2699 219 2422 64 
Q 2146 -91 1780 -91 
Q 1177 -91 864 284 
Q 552 659 552 1381 
z
M 1999 3584 
L 1999 3584 
z
" transform="scale(0.015625)"/>
      <path id="DejaVuSans-1eef" d="M 1988 4281 
L 1809 4453 
Q 1741 4516 1689 4545 
Q 1638 4575 1597 4575 
Q 1478 4575 1422 4461 
Q 1366 4347 1359 4091 
L 969 4091 
Q 975 4513 1134 4742 
Q 1294 4972 1578 4972 
Q 1697 4972 1797 4928 
Q 1897 4884 2013 4781 
L 2191 4609 
Q 2259 4547 2311 4517 
Q 2363 4488 2403 4488 
Q 2522 4488 2578 4602 
Q 2634 4716 2641 4972 
L 3031 4972 
Q 3025 4550 2865 4320 
Q 2706 4091 2422 4091 
Q 2303 4091 2203 4134 
Q 2103 4178 1988 4281 
z
M 3094 3136 
L 3094 3508 
Q 3285 3367 3422 3300 
Q 3560 3233 3657 3233 
Q 3800 3233 3872 3319 
Q 3944 3405 3944 3573 
Q 3944 3673 3920 3770 
Q 3897 3867 3850 3964 
L 4266 3964 
Q 4297 3845 4312 3739 
Q 4328 3633 4328 3539 
Q 4328 3158 4192 2978 
Q 4057 2798 3766 2798 
Q 3616 2798 3452 2881 
Q 3288 2964 3094 3136 
z
M 552 1381 
L 552 3500 
L 1127 3500 
L 1127 1403 
Q 1127 906 1320 657 
Q 1514 409 1902 409 
Q 2367 409 2637 706 
Q 2908 1003 2908 1516 
L 2908 3500 
L 3483 3500 
L 3483 0 
L 2908 0 
L 2908 538 
Q 2699 219 2422 64 
Q 2146 -91 1780 -91 
Q 1177 -91 864 284 
Q 552 659 552 1381 
z
M 1999 3584 
L 1999 3584 
z
" transform="scale(0.015625)"/>
      <path id="DejaVuSans-1ec9" d="M 603 3500 
L 1178 3500 
L 1178 0 
L 603 0 
L 603 3500 
z
M 891 3584 
L 891 3584 
z
M 212 5025 
Q 562 5184 890 5184 
Q 1215 5184 1413 5051 
Q 1612 4919 1612 4709 
Q 1612 4519 1337 4316 
L 1199 4216 
Q 1090 4134 1078 4106 
Q 1056 4056 1056 3956 
L 684 3956 
L 684 3994 
Q 684 4119 731 4203 
Q 778 4288 937 4403 
L 1078 4509 
Q 1221 4616 1221 4741 
Q 1221 4806 1124 4862 
Q 1028 4919 806 4919 
Q 524 4919 212 4756 
L 212 5025 
z
" transform="scale(0.015625)"/>
      <path id="DejaVuSans-ea" d="M 3597 1894 
L 3597 1613 
L 953 1613 
Q 991 1019 1311 708 
Q 1631 397 2203 397 
Q 2534 397 2845 478 
Q 3156 559 3463 722 
L 3463 178 
Q 3153 47 2828 -22 
Q 2503 -91 2169 -91 
Q 1331 -91 842 396 
Q 353 884 353 1716 
Q 353 2575 817 3079 
Q 1281 3584 2069 3584 
Q 2775 3584 3186 3129 
Q 3597 2675 3597 1894 
z
M 3022 2063 
Q 3016 2534 2758 2815 
Q 2500 3097 2075 3097 
Q 1594 3097 1305 2825 
Q 1016 2553 972 2059 
L 3022 2063 
z
M 1801 5119 
L 2263 5119 
L 3029 3944 
L 2595 3944 
L 2032 4709 
L 1470 3944 
L 1035 3944 
L 1801 5119 
z
" transform="scale(0.015625)"/>
     </defs>
     <use xlink:href="#DejaVuSans-4c"/>
     <use xlink:href="#DejaVuSans-1b0" x="55.712891"/>
     <use xlink:href="#DejaVuSans-75" x="119.091797"/>
     <use xlink:href="#DejaVuSans-20" x="182.470703"/>
     <use xlink:href="#DejaVuSans-64" x="214.257812"/>
     <use xlink:href="#DejaVuSans-1eef" x="277.734375"/>
     <use xlink:href="#DejaVuSans-20" x="341.113281"/>
     <use xlink:href="#DejaVuSans-6c" x="372.900391"/>
     <use xlink:href="#DejaVuSans-69" x="400.683594"/>
     <use xlink:href="#DejaVuSans-1ec7" x="428.466797"/>
     <use xlink:href="#DejaVuSans-75" x="489.990234"/>
     <use xlink:href="#DejaVuSans-2c" x="553.369141"/>
     <use xlink:href="#DejaVuSans-20" x="585.15625"/>
     <use xlink:href="#DejaVuSans-74" x="616.943359"/>
     <use xlink:href="#DejaVuSans-ed" x="656.152344"/>
     <use xlink:href="#DejaVuSans-6e" x="683.935547"/>
     <use xlink:href="#DejaVuSans-68" x="747.314453"/>
     <use xlink:href="#DejaVuSans-20" x="810.693359"/>
     <use xlink:href="#DejaVuSans-63" x="842.480469"/>
     <use xlink:href="#DejaVuSans-68" x="897.460938"/>
     <use xlink:href="#DejaVuSans-1ec9" x="960.839844"/>
     <use xlink:href="#DejaVuSans-20" x="988.623047"/>
     <use xlink:href="#DejaVuSans-74" x="1020.410156"/>
     <use xlink:href="#DejaVuSans-69" x="1059.619141"/>
     <use xlink:href="#DejaVuSans-ea" x="1087.402344"/>
     <use xlink:href="#DejaVuSans-75" x="1148.925781"/>
     <use xlink:href="#DejaVuSans-20" x="1212.304688"/>
     <use xlink:href="#DejaVuSans-111" x="1244.091797"/>
     <use xlink:href="#DejaVuSans-e1" x="1307.568359"/>
     <use xlink:href="#DejaVuSans-6e" x="1368.847656"/>
     <use xlink:href="#DejaVuSans-68" x="1432.226562"/>
     <use xlink:href="#DejaVuSans-20" x="1495.605469"/>
     <use xlink:href="#DejaVuSans-67" x="1527.392578"/>
     <use xlink:href="#DejaVuSans-69" x="1590.869141"/>
     <use xlink:href="#DejaVuSans-e1" x="1618.652344"/>
    </g>
    <!-- + xuất bảng / đồ thị -->
    <g transform="translate(245.421365 532.456526) scale(0.11 -0.11)">
     <defs>
      <path id="DejaVuSans-1ed3" d="M 2694 5409 
L 3306 4584 
L 2828 4584 
L 2110 5409 
L 2694 5409 
z
M 1658 4775 
L 2246 4775 
L 2905 3944 
L 2471 3944 
L 1952 4500 
L 1433 3944 
L 999 3944 
L 1658 4775 
z
M 1959 3097 
Q 1497 3097 1228 2736 
Q 959 2375 959 1747 
Q 959 1119 1226 758 
Q 1494 397 1959 397 
Q 2419 397 2687 759 
Q 2956 1122 2956 1747 
Q 2956 2369 2687 2733 
Q 2419 3097 1959 3097 
z
M 1959 3584 
Q 2709 3584 3137 3096 
Q 3566 2609 3566 1747 
Q 3566 888 3137 398 
Q 2709 -91 1959 -91 
Q 1206 -91 779 398 
Q 353 888 353 1747 
Q 353 2609 779 3096 
Q 1206 3584 1959 3584 
z
" transform="scale(0.015625)"/>
     </defs>
     <use xlink:href="#DejaVuSans-2b"/>
     <use xlink:href="#DejaVuSans-20" x="83.789062"/>
     <use xlink:href="#DejaVuSans-78" x="115.576172"/>
     <use xlink:href="#DejaVuSans-75" x="174.755859"/>
     <use xlink:href="#DejaVuSans-1ea5" x="238.134766"/>
     <use xlink:href="#DejaVuSans-74" x="299.414062"/>
     <use xlink:href="#DejaVuSans-20" x="338.623047"/>
     <use xlink:href="#DejaVuSans-62" x="370.410156"/>
     <use xlink:href="#DejaVuSans-1ea3" x="433.886719"/>
     <use xlink:href="#DejaVuSans-6e" x="495.166016"/>
     <use xlink:href="#DejaVuSans-67" x="558.544922"/>
     <use xlink:href="#DejaVuSans-20" x="622.021484"/>
     <use xlink:href="#DejaVuSans-2f" x="653.808594"/>
     <use xlink:href="#DejaVuSans-20" x="687.5"/>
     <use xlink:href="#DejaVuSans-111" x="719.287109"/>
     <use xlink:href="#DejaVuSans-1ed3" x="782.763672"/>
     <use xlink:href="#DejaVuSans-20" x="843.945312"/>
     <use xlink:href="#DejaVuSans-74" x="875.732422"/>
     <use xlink:href="#DejaVuSans-68" x="914.941406"/>
     <use xlink:href="#DejaVuSans-1ecb" x="978.320312"/>
    </g>
   </g>
   <g id="patch_9">
    <path d="M 300.756522 96.513522 
Q 300.756522 107.970509 300.756522 117.191428 
" style="fill: none; stroke: #000000; stroke-width: 2; stroke-linecap: round"/>
    <path d="M 302.756522 113.191428 
L 300.756522 117.191428 
L 298.756522 113.191428 
" style="fill: none; stroke: #000000; stroke-width: 2; stroke-linecap: round"/>
   </g>
   <g id="patch_10">
    <path d="M 300.756522 171.868862 
Q 300.756522 183.325849 300.756522 192.546768 
" style="fill: none; stroke: #000000; stroke-width: 2; stroke-linecap: round"/>
    <path d="M 302.756522 188.546768 
L 300.756522 192.546768 
L 298.756522 188.546768 
" style="fill: none; stroke: #000000; stroke-width: 2; stroke-linecap: round"/>
   </g>
   <g id="patch_11">
    <path d="M 300.756522 247.224201 
Q 300.756522 258.681189 300.756522 267.902108 
" style="fill: none; stroke: #000000; stroke-width: 2; stroke-linecap: round"/>
    <path d="M 302.756522 263.902108 
L 300.756522 267.902108 
L 298.756522 263.902108 
" style="fill: none; stroke: #000000; stroke-width: 2; stroke-linecap: round"/>
   </g>
   <g id="patch_12">
    <path d="M 300.756522 322.579541 
Q 300.756522 334.036529 300.756522 343.257448 
" style="fill: none; stroke: #000000; stroke-width: 2; stroke-linecap: round"/>
    <path d="M 302.756522 339.257448 
L 300.756522 343.257448 
L 298.756522 339.257448 
" style="fill: none; stroke: #000000; stroke-width: 2; stroke-linecap: round"/>
   </g>
   <g id="patch_13">
    <path d="M 300.756522 397.934881 
Q 300.756522 409.391868 300.756522 418.612788 
" style="fill: none; stroke: #000000; stroke-width: 2; stroke-linecap: round"/>
    <path d="M 302.756522 414.612788 
L 300.756522 418.612788 
L 298.756522 414.612788 
" style="fill: none; stroke: #000000; stroke-width: 2; stroke-linecap: round"/>
   </g>
   <g id="patch_14">
    <path d="M 300.756522 473.290221 
Q 300.756522 484.747208 300.756522 493.968127 
" style="fill: none; stroke: #000000; stroke-width: 2; stroke-linecap: round"/>
    <path d="M 302.756522 489.968127 
L 300.756522 493.968127 
L 298.756522 489.968127 
" style="fill: none; stroke: #000000; stroke-width: 2; stroke-linecap: round"/>
   </g>
   <g id="text_8">
    <!-- Flowchart vòng lặp mô phỏng theo thời gian -->
    <g transform="translate(158.928594 18.54) scale(0.14 -0.14)">
     <defs>
      <path id="DejaVuSans-77" d="M 269 3500 
L 844 3500 
L 1563 769 
L 2278 3500 
L 2956 3500 
L 3675 769 
L 4391 3500 
L 4966 3500 
L 4050 0 
L 3372 0 
L 2619 2869 
L 1863 0 
L 1184 0 
L 269 3500 
z
" transform="scale(0.015625)"/>
     </defs>
     <use xlink:href="#DejaVuSans-46"/>
     <use xlink:href="#DejaVuSans-6c" x="57.519531"/>
     <use xlink:href="#DejaVuSans-6f" x="85.302734"/>
     <use xlink:href="#DejaVuSans-77" x="146.484375"/>
     <use xlink:href="#DejaVuSans-63" x="228.271484"/>
     <use xlink:href="#DejaVuSans-68" x="283.251953"/>
     <use xlink:href="#DejaVuSans-61" x="346.630859"/>
     <use xlink:href="#DejaVuSans-72" x="407.910156"/>
     <use xlink:href="#DejaVuSans-74" x="449.023438"/>
     <use xlink:href="#DejaVuSans-20" x="488.232422"/>
     <use xlink:href="#DejaVuSans-76" x="520.019531"/>
     <use xlink:href="#DejaVuSans-f2" x="579.199219"/>
     <use xlink:href="#DejaVuSans-6e" x="640.380859"/>
     <use xlink:href="#DejaVuSans-67" x="703.759766"/>
     <use xlink:href="#DejaVuSans-20" x="767.236328"/>
     <use xlink:href="#DejaVuSans-6c" x="799.023438"/>
     <use xlink:href="#DejaVuSans-1eb7" x="826.806641"/>
     <use xlink:href="#DejaVuSans-70" x="888.085938"/>
     <use xlink:href="#DejaVuSans-20" x="951.5625"/>
     <use xlink:href="#DejaVuSans-6d" x="983.349609"/>
     <use xlink:href="#DejaVuSans-f4" x="1080.761719"/>
     <use xlink:href="#DejaVuSans-20" x="1141.943359"/>
     <use xlink:href="#DejaVuSans-70" x="1173.730469"/>
     <use xlink:href="#DejaVuSans-68" x="1237.207031"/>
     <use xlink:href="#DejaVuSans-1ecf" x="1300.585938"/>
     <use xlink:href="#DejaVuSans-6e" x="1361.767578"/>
     <use xlink:href="#DejaVuSans-67" x="1425.146484"/>
     <use xlink:href="#DejaVuSans-20" x="1488.623047"/>
     <use xlink:href="#DejaVuSans-74" x="1520.410156"/>
     <use xlink:href="#DejaVuSans-68" x="1559.619141"/>
     <use xlink:href="#DejaVuSans-65" x="1622.998047"/>
     <use xlink:href="#DejaVuSans-6f" x="1684.521484"/>
     <use xlink:href="#DejaVuSans-20" x="1745.703125"/>
     <use xlink:href="#DejaVuSans-74" x="1777.490234"/>
     <use xlink:href="#DejaVuSans-68" x="1816.699219"/>
     <use xlink:href="#DejaVuSans-1edd" x="1880.078125"/>
     <use xlink:href="#DejaVuSans-69" x="1941.259766"/>
     <use xlink:href="#DejaVuSans-20" x="1969.042969"/>
     <use xlink:href="#DejaVuSans-67" x="2000.830078"/>
     <use xlink:href="#DejaVuSans-69" x="2064.306641"/>
     <use xlink:href="#DejaVuSans-61" x="2092.089844"/>
     <use xlink:href="#DejaVuSans-6e" x="2153.369141"/>
    </g>
   </g>
  </g>
 </g>
 <defs>
  <clipPath id="p6ad4c5a364">
   <rect x="7.2" y="24.54" width="613.8" height="554.4"/>
  </clipPath>
 </defs>
</svg>
