<?xml version="1.0" encoding="utf-8" standalone="no"?>
<!DOCTYPE svg PUBLIC "-//W3C//DTD SVG 1.1//EN"
  "http://www.w3.org/Graphics/SVG/1.1/DTD/svg11.dtd">
<svg xmlns:xlink="http://www.w3.org/1999/xlink" width="451.560937pt" height="335.931875pt" viewBox="0 0 451.560937 335.931875" xmlns="http://www.w3.org/2000/svg" version="1.1">
 <metadata>
  <rdf:RDF xmlns:dc="http://purl.org/dc/elements/1.1/" xmlns:cc="http://creativecommons.org/ns#" xmlns:rdf="http://www.w3.org/1999/02/22-rdf-syntax-ns#">
   <cc:Work>
    <dc:type rdf:resource="http://purl.org/dc/dcmitype/StillImage"/>
    <dc:date>2025-12-31T18:58:12.074586</dc:date>
    <dc:format>image/svg+xml</dc:format>
    <dc:creator>
     <cc:Agent>
      <dc:title>Matplotlib v3.10.8, https://matplotlib.org/</dc:title>
     </cc:Agent>
    </dc:creator>
   </cc:Work>
  </rdf:RDF>
 </metadata>
 <defs>
  <style type="text/css">*{stroke-linejoin: round; stroke-linecap: butt}</style>
 </defs>
 <g id="figure_1">
  <g id="patch_1">
   <path d="M 0 335.931875 
L 451.560937 335.931875 
L 451.560937 0 
L 0 0 
z
" style="fill: #ffffff"/>
  </g>
  <g id="axes_1">
   <g id="patch_2">
    <path d="M 56.840938 296.44 
L 444.360938 296.44 
L 444.360938 7.2 
L 56.840938 7.2 
z
" style="fill: #ffffff"/>
   </g>
   <g id="matplotlib.axis_1">
    <g id="xtick_1">
     <g id="line2d_1">
      <path d="M 74.455483 296.44 
L 74.455483 7.2 
" clip-path="url(#p32d5d03f94)" style="fill: none; stroke: #cccccc; stroke-opacity: 0.6; stroke-width: 0.6; stroke-linecap: square"/>
     </g>
     <g id="line2d_2">
      <defs>
       <path id="m235e1d8790" d="M 0 0 
L 0 3.5 
" style="stroke: #000000; stroke-width: 0.8"/>
      </defs>
      <g>
       <use xlink:href="#m235e1d8790" x="74.455483" y="296.44" style="stroke: #000000; stroke-width: 0.8"/>
      </g>
     </g>
     <g id="text_1">
      <!-- 0.0 -->
      <g transform="translate(65.708764 311.798281) scale(0.11 -0.11)">
       <defs>
        <path id="DejaVuSans-30" d="M 2034 4250 
Q 1547 4250 1301 3770 
Q 1056 3291 1056 2328 
Q 1056 1369 1301 889 
Q 1547 409 2034 409 
Q 2525 409 2770 889 
Q 3016 1369 3016 2328 
Q 3016 3291 2770 3770 
Q 2525 4250 2034 4250 
z
M 2034 4750 
Q 2819 4750 3233 4129 
Q 3647 3509 3647 2328 
Q 3647 1150 3233 529 
Q 2819 -91 2034 -91 
Q 1250 -91 836 529 
Q 422 1150 422 2328 
Q 422 3509 836 4129 
Q 1250 4750 2034 4750 
z
" transform="scale(0.015625)"/>
        <path id="DejaVuSans-2e" d="M 684 794 
L 1344 794 
L 1344 0 
L 684 0 
L 684 794 
z
" transform="scale(0.015625)"/>
       </defs>
       <use xlink:href="#DejaVuSans-30"/>
       <use xlink:href="#DejaVuSans-2e" transform="translate(63.623047 0)"/>
       <use xlink:href="#DejaVuSans-30" transform="translate(95.410156 0)"/>
      </g>
     </g>
    </g>
    <g id="xtick_2">
     <g id="line2d_3">
      <path d="M 133.170634 296.44 
L 133.170634 7.2 
" clip-path="url(#p32d5d03f94)" style="fill: none; stroke: #cccccc; stroke-opacity: 0.6; stroke-width: 0.6; stroke-linecap: square"/>
     </g>
     <g id="line2d_4">
      <g>
       <use xlink:href="#m235e1d8790" x="133.170634" y="296.44" style="stroke: #000000; stroke-width: 0.8"/>
      </g>
     </g>
     <g id="text_2">
      <!-- 0.5 -->
      <g transform="translate(124.423916 311.798281) scale(0.11 -0.11)">
       <defs>
        <path id="DejaVuSans-35" d="M 691 4666 
L 3169 4666 
L 3169 4134 
L 1269 4134 
L 1269 2991 
Q 1406 3038 1543 3061 
Q 1681 3084 1819 3084 
Q 2600 3084 3056 2656 
Q 3513 2228 3513 1497 
Q 3513 744 3044 326 
Q 2575 -91 1722 -91 
Q 1428 -91 1123 -41 
Q 819 9 494 109 
L 494 744 
Q 775 591 1075 516 
Q 1375 441 1709 441 
Q 2250 441 2565 725 
Q 2881 1009 2881 1497 
Q 2881 1984 2565 2268 
Q 2250 2553 1709 2553 
Q 1456 2553 1204 2497 
Q 953 2441 691 2322 
L 691 4666 
z
" transform="scale(0.015625)"/>
       </defs>
       <use xlink:href="#DejaVuSans-30"/>
       <use xlink:href="#DejaVuSans-2e" transform="translate(63.623047 0)"/>
       <use xlink:href="#DejaVuSans-35" transform="translate(95.410156 0)"/>
      </g>
     </g>
    </g>
    <g id="xtick_3">
     <g id="line2d_5">
      <path d="M 191.885786 296.44 
L 191.885786 7.2 
" clip-path="url(#p32d5d03f94)" style="fill: none; stroke: #cccccc; stroke-opacity: 0.6; stroke-width: 0.6; stroke-linecap: square"/>
     </g>
     <g id="line2d_6">
      <g>
       <use xlink:href="#m235e1d8790" x="191.885786" y="296.44" style="stroke: #000000; stroke-width: 0.8"/>
      </g>
     </g>
     <g id="text_3">
      <!-- 1.0 -->
      <g transform="translate(183.139067 311.798281) scale(0.11 -0.11)">
       <defs>
        <path id="DejaVuSans-31" d="M 794 531 
L 1825 531 
L 1825 4091 
L 703 3866 
L 703 4441 
L 1819 4666 
L 2450 4666 
L 2450 531 
L 3481 531 
L 3481 0 
L 794 0 
L 794 531 
z
" transform="scale(0.015625)"/>
       </defs>
       <use xlink:href="#DejaVuSans-31"/>
       <use xlink:href="#DejaVuSans-2e" transform="translate(63.623047 0)"/>
       <use xlink:href="#DejaVuSans-30" transform="translate(95.410156 0)"/>
      </g>
     </g>
    </g>
    <g id="xtick_4">
     <g id="line2d_7">
      <path d="M 250.600938 296.44 
L 250.600938 7.2 
" clip-path="url(#p32d5d03f94)" style="fill: none; stroke: #cccccc; stroke-opacity: 0.6; stroke-width: 0.6; stroke-linecap: square"/>
     </g>
     <g id="line2d_8">
      <g>
       <use xlink:href="#m235e1d8790" x="250.600938" y="296.44" style="stroke: #000000; stroke-width: 0.8"/>
      </g>
     </g>
     <g id="text_4">
      <!-- 1.5 -->
      <g transform="translate(241.854219 311.798281) scale(0.11 -0.11)">
       <use xlink:href="#DejaVuSans-31"/>
       <use xlink:href="#DejaVuSans-2e" transform="translate(63.623047 0)"/>
       <use xlink:href="#DejaVuSans-35" transform="translate(95.410156 0)"/>
      </g>
     </g>
    </g>
    <g id="xtick_5">
     <g id="line2d_9">
      <path d="M 309.316089 296.44 
L 309.316089 7.2 
" clip-path="url(#p32d5d03f94)" style="fill: none; stroke: #cccccc; stroke-opacity: 0.6; stroke-width: 0.6; stroke-linecap: square"/>
     </g>
     <g id="line2d_10">
      <g>
       <use xlink:href="#m235e1d8790" x="309.316089" y="296.44" style="stroke: #000000; stroke-width: 0.8"/>
      </g>
     </g>
     <g id="text_5">
      <!-- 2.0 -->
      <g transform="translate(300.56937 311.798281) scale(0.11 -0.11)">
       <defs>
        <path id="DejaVuSans-32" d="M 1228 531 
L 3431 531 
L 3431 0 
L 469 0 
L 469 531 
Q 828 903 1448 1529 
Q 2069 2156 2228 2338 
Q 2531 2678 2651 2914 
Q 2772 3150 2772 3378 
Q 2772 3750 2511 3984 
Q 2250 4219 1831 4219 
Q 1534 4219 1204 4116 
Q 875 4013 500 3803 
L 500 4441 
Q 881 4594 1212 4672 
Q 1544 4750 1819 4750 
Q 2544 4750 2975 4387 
Q 3406 4025 3406 3419 
Q 3406 3131 3298 2873 
Q 3191 2616 2906 2266 
Q 2828 2175 2409 1742 
Q 1991 1309 1228 531 
z
" transform="scale(0.015625)"/>
       </defs>
       <use xlink:href="#DejaVuSans-32"/>
       <use xlink:href="#DejaVuSans-2e" transform="translate(63.623047 0)"/>
       <use xlink:href="#DejaVuSans-30" transform="translate(95.410156 0)"/>
      </g>
     </g>
    </g>
    <g id="xtick_6">
     <g id="line2d_11">
      <path d="M 368.031241 296.44 
L 368.031241 7.2 
" clip-path="url(#p32d5d03f94)" style="fill: none; stroke: #cccccc; stroke-opacity: 0.6; stroke-width: 0.6; stroke-linecap: square"/>
     </g>
     <g id="line2d_12">
      <g>
       <use xlink:href="#m235e1d8790" x="368.031241" y="296.44" style="stroke: #000000; stroke-width: 0.8"/>
      </g>
     </g>
     <g id="text_6">
      <!-- 2.5 -->
      <g transform="translate(359.284522 311.798281) scale(0.11 -0.11)">
       <use xlink:href="#DejaVuSans-32"/>
       <use xlink:href="#DejaVuSans-2e" transform="translate(63.623047 0)"/>
       <use xlink:href="#DejaVuSans-35" transform="translate(95.410156 0)"/>
      </g>
     </g>
    </g>
    <g id="xtick_7">
     <g id="line2d_13">
      <path d="M 426.746392 296.44 
L 426.746392 7.2 
" clip-path="url(#p32d5d03f94)" style="fill: none; stroke: #cccccc; stroke-opacity: 0.6; stroke-width: 0.6; stroke-linecap: square"/>
     </g>
     <g id="line2d_14">
      <g>
       <use xlink:href="#m235e1d8790" x="426.746392" y="296.44" style="stroke: #000000; stroke-width: 0.8"/>
      </g>
     </g>
     <g id="text_7">
      <!-- 3.0 -->
      <g transform="translate(417.999673 311.798281) scale(0.11 -0.11)">
       <defs>
        <path id="DejaVuSans-33" d="M 2597 2516 
Q 3050 2419 3304 2112 
Q 3559 1806 3559 1356 
Q 3559 666 3084 287 
Q 2609 -91 1734 -91 
Q 1441 -91 1130 -33 
Q 819 25 488 141 
L 488 750 
Q 750 597 1062 519 
Q 1375 441 1716 441 
Q 2309 441 2620 675 
Q 2931 909 2931 1356 
Q 2931 1769 2642 2001 
Q 2353 2234 1838 2234 
L 1294 2234 
L 1294 2753 
L 1863 2753 
Q 2328 2753 2575 2939 
Q 2822 3125 2822 3475 
Q 2822 3834 2567 4026 
Q 2313 4219 1838 4219 
Q 1578 4219 1281 4162 
Q 984 4106 628 3988 
L 628 4550 
Q 988 4650 1302 4700 
Q 1616 4750 1894 4750 
Q 2613 4750 3031 4423 
Q 3450 4097 3450 3541 
Q 3450 3153 3228 2886 
Q 3006 2619 2597 2516 
z
" transform="scale(0.015625)"/>
       </defs>
       <use xlink:href="#DejaVuSans-33"/>
       <use xlink:href="#DejaVuSans-2e" transform="translate(63.623047 0)"/>
       <use xlink:href="#DejaVuSans-30" transform="translate(95.410156 0)"/>
      </g>
     </g>
    </g>
    <g id="text_8">
     <!-- Time (s) -->
     <g transform="translate(228.239141 326.444219) scale(0.11 -0.11)">
      <defs>
       <path id="DejaVuSans-54" d="M -19 4666 
L 3928 4666 
L 3928 4134 
L 2272 4134 
L 2272 0 
L 1638 0 
L 1638 4134 
L -19 4134 
L -19 4666 
z
" transform="scale(0.015625)"/>
       <path id="DejaVuSans-69" d="M 603 3500 
L 1178 3500 
L 1178 0 
L 603 0 
L 603 3500 
z
M 603 4863 
L 1178 4863 
L 1178 4134 
L 603 4134 
L 603 4863 
z
" transform="scale(0.015625)"/>
       <path id="DejaVuSans-6d" d="M 3328 2828 
Q 3544 3216 3844 3400 
Q 4144 3584 4550 3584 
Q 5097 3584 5394 3201 
Q 5691 2819 5691 2113 
L 5691 0 
L 5113 0 
L 5113 2094 
Q 5113 2597 4934 2840 
Q 4756 3084 4391 3084 
Q 3944 3084 3684 2787 
Q 3425 2491 3425 1978 
L 3425 0 
L 2847 0 
L 2847 2094 
Q 2847 2600 2669 2842 
Q 2491 3084 2119 3084 
Q 1678 3084 1418 2786 
Q 1159 2488 1159 1978 
L 1159 0 
L 581 0 
L 581 3500 
L 1159 3500 
L 1159 2956 
Q 1356 3278 1631 3431 
Q 1906 3584 2284 3584 
Q 2666 3584 2933 3390 
Q 3200 3197 3328 2828 
z
" transform="scale(0.015625)"/>
       <path id="DejaVuSans-65" d="M 3597 1894 
L 3597 1613 
L 953 1613 
Q 991 1019 1311 708 
Q 1631 397 2203 397 
Q 2534 397 2845 478 
Q 3156 559 3463 722 
L 3463 178 
Q 3153 47 2828 -22 
Q 2503 -91 2169 -91 
Q 1331 -91 842 396 
Q 353 884 353 1716 
Q 353 2575 817 3079 
Q 1281 3584 2069 3584 
Q 2775 3584 3186 3129 
Q 3597 2675 3597 1894 
z
M 3022 2063 
Q 3016 2534 2758 2815 
Q 2500 3097 2075 3097 
Q 1594 3097 1305 2825 
Q 1016 2553 972 2059 
L 3022 2063 
z
" transform="scale(0.015625)"/>
       <path id="DejaVuSans-20" transform="scale(0.015625)"/>
       <path id="DejaVuSans-28" d="M 1984 4856 
Q 1566 4138 1362 3434 
Q 1159 2731 1159 2009 
Q 1159 1288 1364 580 
Q 1569 -128 1984 -844 
L 1484 -844 
Q 1016 -109 783 600 
Q 550 1309 550 2009 
Q 550 2706 781 3412 
Q 1013 4119 1484 4856 
L 1984 4856 
z
" transform="scale(0.015625)"/>
       <path id="DejaVuSans-73" d="M 2834 3397 
L 2834 2853 
Q 2591 2978 2328 3040 
Q 2066 3103 1784 3103 
Q 1356 3103 1142 2972 
Q 928 2841 928 2578 
Q 928 2378 1081 2264 
Q 1234 2150 1697 2047 
L 1894 2003 
Q 2506 1872 2764 1633 
Q 3022 1394 3022 966 
Q 3022 478 2636 193 
Q 2250 -91 1575 -91 
Q 1294 -91 989 -36 
Q 684 19 347 128 
L 347 722 
Q 666 556 975 473 
Q 1284 391 1588 391 
Q 1994 391 2212 530 
Q 2431 669 2431 922 
Q 2431 1156 2273 1281 
Q 2116 1406 1581 1522 
L 1381 1569 
Q 847 1681 609 1914 
Q 372 2147 372 2553 
Q 372 3047 722 3315 
Q 1072 3584 1716 3584 
Q 2034 3584 2315 3537 
Q 2597 3491 2834 3397 
z
" transform="scale(0.015625)"/>
       <path id="DejaVuSans-29" d="M 513 4856 
L 1013 4856 
Q 1481 4119 1714 3412 
Q 1947 2706 1947 2009 
Q 1947 1309 1714 600 
Q 1481 -109 1013 -844 
L 513 -844 
Q 928 -128 1133 580 
Q 1338 1288 1338 2009 
Q 1338 2731 1133 3434 
Q 928 4138 513 4856 
z
" transform="scale(0.015625)"/>
      </defs>
      <use xlink:href="#DejaVuSans-54"/>
      <use xlink:href="#DejaVuSans-69" transform="translate(57.958984 0)"/>
      <use xlink:href="#DejaVuSans-6d" transform="translate(85.742188 0)"/>
      <use xlink:href="#DejaVuSans-65" transform="translate(183.154297 0)"/>
      <use xlink:href="#DejaVuSans-20" transform="translate(244.677734 0)"/>
      <use xlink:href="#DejaVuSans-28" transform="translate(276.464844 0)"/>
      <use xlink:href="#DejaVuSans-73" transform="translate(315.478516 0)"/>
      <use xlink:href="#DejaVuSans-29" transform="translate(367.578125 0)"/>
     </g>
    </g>
   </g>
   <g id="matplotlib.axis_2">
    <g id="ytick_1">
     <g id="line2d_15">
      <path d="M 56.840938 283.292727 
L 444.360938 283.292727 
" clip-path="url(#p32d5d03f94)" style="fill: none; stroke: #cccccc; stroke-opacity: 0.6; stroke-width: 0.6; stroke-linecap: square"/>
     </g>
     <g id="line2d_16">
      <defs>
       <path id="m62f71f2d6b" d="M 0 0 
L -3.5 0 
" style="stroke: #000000; stroke-width: 0.8"/>
      </defs>
      <g>
       <use xlink:href="#m62f71f2d6b" x="56.840938" y="283.292727" style="stroke: #000000; stroke-width: 0.8"/>
      </g>
     </g>
     <g id="text_9">
      <!-- 0 -->
      <g transform="translate(42.842188 287.471868) scale(0.11 -0.11)">
       <use xlink:href="#DejaVuSans-30"/>
      </g>
     </g>
    </g>
    <g id="ytick_2">
     <g id="line2d_17">
      <path d="M 56.840938 249.790665 
L 444.360938 249.790665 
" clip-path="url(#p32d5d03f94)" style="fill: none; stroke: #cccccc; stroke-opacity: 0.6; stroke-width: 0.6; stroke-linecap: square"/>
     </g>
     <g id="line2d_18">
      <g>
       <use xlink:href="#m62f71f2d6b" x="56.840938" y="249.790665" style="stroke: #000000; stroke-width: 0.8"/>
      </g>
     </g>
     <g id="text_10">
      <!-- 250 -->
      <g transform="translate(28.844688 253.969806) scale(0.11 -0.11)">
       <use xlink:href="#DejaVuSans-32"/>
       <use xlink:href="#DejaVuSans-35" transform="translate(63.623047 0)"/>
       <use xlink:href="#DejaVuSans-30" transform="translate(127.246094 0)"/>
      </g>
     </g>
    </g>
    <g id="ytick_3">
     <g id="line2d_19">
      <path d="M 56.840938 216.288603 
L 444.360938 216.288603 
" clip-path="url(#p32d5d03f94)" style="fill: none; stroke: #cccccc; stroke-opacity: 0.6; stroke-width: 0.6; stroke-linecap: square"/>
     </g>
     <g id="line2d_20">
      <g>
       <use xlink:href="#m62f71f2d6b" x="56.840938" y="216.288603" style="stroke: #000000; stroke-width: 0.8"/>
      </g>
     </g>
     <g id="text_11">
      <!-- 500 -->
      <g transform="translate(28.844688 220.467744) scale(0.11 -0.11)">
       <use xlink:href="#DejaVuSans-35"/>
       <use xlink:href="#DejaVuSans-30" transform="translate(63.623047 0)"/>
       <use xlink:href="#DejaVuSans-30" transform="translate(127.246094 0)"/>
      </g>
     </g>
    </g>
    <g id="ytick_4">
     <g id="line2d_21">
      <path d="M 56.840938 182.786541 
L 444.360938 182.786541 
" clip-path="url(#p32d5d03f94)" style="fill: none; stroke: #cccccc; stroke-opacity: 0.6; stroke-width: 0.6; stroke-linecap: square"/>
     </g>
     <g id="line2d_22">
      <g>
       <use xlink:href="#m62f71f2d6b" x="56.840938" y="182.786541" style="stroke: #000000; stroke-width: 0.8"/>
      </g>
     </g>
     <g id="text_12">
      <!-- 750 -->
      <g transform="translate(28.844688 186.965682) scale(0.11 -0.11)">
       <defs>
        <path id="DejaVuSans-37" d="M 525 4666 
L 3525 4666 
L 3525 4397 
L 1831 0 
L 1172 0 
L 2766 4134 
L 525 4134 
L 525 4666 
z
" transform="scale(0.015625)"/>
       </defs>
       <use xlink:href="#DejaVuSans-37"/>
       <use xlink:href="#DejaVuSans-35" transform="translate(63.623047 0)"/>
       <use xlink:href="#DejaVuSans-30" transform="translate(127.246094 0)"/>
      </g>
     </g>
    </g>
    <g id="ytick_5">
     <g id="line2d_23">
      <path d="M 56.840938 149.28448 
L 444.360938 149.28448 
" clip-path="url(#p32d5d03f94)" style="fill: none; stroke: #cccccc; stroke-opacity: 0.6; stroke-width: 0.6; stroke-linecap: square"/>
     </g>
     <g id="line2d_24">
      <g>
       <use xlink:href="#m62f71f2d6b" x="56.840938" y="149.28448" style="stroke: #000000; stroke-width: 0.8"/>
      </g>
     </g>
     <g id="text_13">
      <!-- 1000 -->
      <g transform="translate(21.845938 153.46362) scale(0.11 -0.11)">
       <use xlink:href="#DejaVuSans-31"/>
       <use xlink:href="#DejaVuSans-30" transform="translate(63.623047 0)"/>
       <use xlink:href="#DejaVuSans-30" transform="translate(127.246094 0)"/>
       <use xlink:href="#DejaVuSans-30" transform="translate(190.869141 0)"/>
      </g>
     </g>
    </g>
    <g id="ytick_6">
     <g id="line2d_25">
      <path d="M 56.840938 115.782418 
L 444.360938 115.782418 
" clip-path="url(#p32d5d03f94)" style="fill: none; stroke: #cccccc; stroke-opacity: 0.6; stroke-width: 0.6; stroke-linecap: square"/>
     </g>
     <g id="line2d_26">
      <g>
       <use xlink:href="#m62f71f2d6b" x="56.840938" y="115.782418" style="stroke: #000000; stroke-width: 0.8"/>
      </g>
     </g>
     <g id="text_14">
      <!-- 1250 -->
      <g transform="translate(21.845938 119.961558) scale(0.11 -0.11)">
       <use xlink:href="#DejaVuSans-31"/>
       <use xlink:href="#DejaVuSans-32" transform="translate(63.623047 0)"/>
       <use xlink:href="#DejaVuSans-35" transform="translate(127.246094 0)"/>
       <use xlink:href="#DejaVuSans-30" transform="translate(190.869141 0)"/>
      </g>
     </g>
    </g>
    <g id="ytick_7">
     <g id="line2d_27">
      <path d="M 56.840938 82.280356 
L 444.360938 82.280356 
" clip-path="url(#p32d5d03f94)" style="fill: none; stroke: #cccccc; stroke-opacity: 0.6; stroke-width: 0.6; stroke-linecap: square"/>
     </g>
     <g id="line2d_28">
      <g>
       <use xlink:href="#m62f71f2d6b" x="56.840938" y="82.280356" style="stroke: #000000; stroke-width: 0.8"/>
      </g>
     </g>
     <g id="text_15">
      <!-- 1500 -->
      <g transform="translate(21.845938 86.459496) scale(0.11 -0.11)">
       <use xlink:href="#DejaVuSans-31"/>
       <use xlink:href="#DejaVuSans-35" transform="translate(63.623047 0)"/>
       <use xlink:href="#DejaVuSans-30" transform="translate(127.246094 0)"/>
       <use xlink:href="#DejaVuSans-30" transform="translate(190.869141 0)"/>
      </g>
     </g>
    </g>
    <g id="ytick_8">
     <g id="line2d_29">
      <path d="M 56.840938 48.778294 
L 444.360938 48.778294 
" clip-path="url(#p32d5d03f94)" style="fill: none; stroke: #cccccc; stroke-opacity: 0.6; stroke-width: 0.6; stroke-linecap: square"/>
     </g>
     <g id="line2d_30">
      <g>
       <use xlink:href="#m62f71f2d6b" x="56.840938" y="48.778294" style="stroke: #000000; stroke-width: 0.8"/>
      </g>
     </g>
     <g id="text_16">
      <!-- 1750 -->
      <g transform="translate(21.845938 52.957434) scale(0.11 -0.11)">
       <use xlink:href="#DejaVuSans-31"/>
       <use xlink:href="#DejaVuSans-37" transform="translate(63.623047 0)"/>
       <use xlink:href="#DejaVuSans-35" transform="translate(127.246094 0)"/>
       <use xlink:href="#DejaVuSans-30" transform="translate(190.869141 0)"/>
      </g>
     </g>
    </g>
    <g id="ytick_9">
     <g id="line2d_31">
      <path d="M 56.840938 15.276232 
L 444.360938 15.276232 
" clip-path="url(#p32d5d03f94)" style="fill: none; stroke: #cccccc; stroke-opacity: 0.6; stroke-width: 0.6; stroke-linecap: square"/>
     </g>
     <g id="line2d_32">
      <g>
       <use xlink:href="#m62f71f2d6b" x="56.840938" y="15.276232" style="stroke: #000000; stroke-width: 0.8"/>
      </g>
     </g>
     <g id="text_17">
      <!-- 2000 -->
      <g transform="translate(21.845938 19.455372) scale(0.11 -0.11)">
       <use xlink:href="#DejaVuSans-32"/>
       <use xlink:href="#DejaVuSans-30" transform="translate(63.623047 0)"/>
       <use xlink:href="#DejaVuSans-30" transform="translate(127.246094 0)"/>
       <use xlink:href="#DejaVuSans-30" transform="translate(190.869141 0)"/>
      </g>
     </g>
    </g>
    <g id="text_18">
     <!-- Speed (rpm) -->
     <g transform="translate(15.558281 186.213047) rotate(-90) scale(0.11 -0.11)">
      <defs>
       <path id="DejaVuSans-53" d="M 3425 4513 
L 3425 3897 
Q 3066 4069 2747 4153 
Q 2428 4238 2131 4238 
Q 1616 4238 1336 4038 
Q 1056 3838 1056 3469 
Q 1056 3159 1242 3001 
Q 1428 2844 1947 2747 
L 2328 2669 
Q 3034 2534 3370 2195 
Q 3706 1856 3706 1288 
Q 3706 609 3251 259 
Q 2797 -91 1919 -91 
Q 1588 -91 1214 -16 
Q 841 59 441 206 
L 441 856 
Q 825 641 1194 531 
Q 1563 422 1919 422 
Q 2459 422 2753 634 
Q 3047 847 3047 1241 
Q 3047 1584 2836 1778 
Q 2625 1972 2144 2069 
L 1759 2144 
Q 1053 2284 737 2584 
Q 422 2884 422 3419 
Q 422 4038 858 4394 
Q 1294 4750 2059 4750 
Q 2388 4750 2728 4690 
Q 3069 4631 3425 4513 
z
" transform="scale(0.015625)"/>
       <path id="DejaVuSans-70" d="M 1159 525 
L 1159 -1331 
L 581 -1331 
L 581 3500 
L 1159 3500 
L 1159 2969 
Q 1341 3281 1617 3432 
Q 1894 3584 2278 3584 
Q 2916 3584 3314 3078 
Q 3713 2572 3713 1747 
Q 3713 922 3314 415 
Q 2916 -91 2278 -91 
Q 1894 -91 1617 61 
Q 1341 213 1159 525 
z
M 3116 1747 
Q 3116 2381 2855 2742 
Q 2594 3103 2138 3103 
Q 1681 3103 1420 2742 
Q 1159 2381 1159 1747 
Q 1159 1113 1420 752 
Q 1681 391 2138 391 
Q 2594 391 2855 752 
Q 3116 1113 3116 1747 
z
" transform="scale(0.015625)"/>
       <path id="DejaVuSans-64" d="M 2906 2969 
L 2906 4863 
L 3481 4863 
L 3481 0 
L 2906 0 
L 2906 525 
Q 2725 213 2448 61 
Q 2172 -91 1784 -91 
Q 1150 -91 751 415 
Q 353 922 353 1747 
Q 353 2572 751 3078 
Q 1150 3584 1784 3584 
Q 2172 3584 2448 3432 
Q 2725 3281 2906 2969 
z
M 947 1747 
Q 947 1113 1208 752 
Q 1469 391 1925 391 
Q 2381 391 2643 752 
Q 2906 1113 2906 1747 
Q 2906 2381 2643 2742 
Q 2381 3103 1925 3103 
Q 1469 3103 1208 2742 
Q 947 2381 947 1747 
z
" transform="scale(0.015625)"/>
       <path id="DejaVuSans-72" d="M 2631 2963 
Q 2534 3019 2420 3045 
Q 2306 3072 2169 3072 
Q 1681 3072 1420 2755 
Q 1159 2438 1159 1844 
L 1159 0 
L 581 0 
L 581 3500 
L 1159 3500 
L 1159 2956 
Q 1341 3275 1631 3429 
Q 1922 3584 2338 3584 
Q 2397 3584 2469 3576 
Q 2541 3569 2628 3553 
L 2631 2963 
z
" transform="scale(0.015625)"/>
      </defs>
      <use xlink:href="#DejaVuSans-53"/>
      <use xlink:href="#DejaVuSans-70" transform="translate(63.476562 0)"/>
      <use xlink:href="#DejaVuSans-65" transform="translate(126.953125 0)"/>
      <use xlink:href="#DejaVuSans-65" transform="translate(188.476562 0)"/>
      <use xlink:href="#DejaVuSans-64" transform="translate(250 0)"/>
      <use xlink:href="#DejaVuSans-20" transform="translate(313.476562 0)"/>
      <use xlink:href="#DejaVuSans-28" transform="translate(345.263672 0)"/>
      <use xlink:href="#DejaVuSans-72" transform="translate(384.277344 0)"/>
      <use xlink:href="#DejaVuSans-70" transform="translate(425.390625 0)"/>
      <use xlink:href="#DejaVuSans-6d" transform="translate(488.867188 0)"/>
      <use xlink:href="#DejaVuSans-29" transform="translate(586.279297 0)"/>
     </g>
    </g>
   </g>
   <g id="line2d_33">
    <path d="M 74.455483 283.292727 
L 74.572913 283.285352 
L 74.690344 283.130309 
L 74.807774 282.310409 
L 74.925204 279.891606 
L 75.160065 265.771158 
L 75.512356 215.164067 
L 75.982077 141.73567 
L 76.334368 118.442176 
L 76.686659 102.822417 
L 77.03895 75.389634 
L 77.626101 23.057141 
L 77.743531 20.347273 
L 77.860962 22.398351 
L 78.095822 40.474809 
L 78.917834 133.644533 
L 79.035265 136.865758 
L 79.152695 136.905368 
L 79.387556 129.596137 
L 79.857277 99.117527 
L 80.679289 40.152327 
L 80.796719 37.325091 
L 80.91415 37.389116 
L 81.14901 46.458185 
L 81.618731 87.137524 
L 81.971022 113.212627 
L 82.205883 120.353416 
L 82.323313 120.661486 
L 82.440744 119.083343 
L 82.675604 111.489257 
L 83.145325 86.06444 
L 83.732477 54.271652 
L 83.967338 49.495553 
L 84.084768 50.015814 
L 84.319628 57.018762 
L 84.78935 85.759855 
L 85.141641 104.44886 
L 85.376501 109.982134 
L 85.493931 110.425626 
L 85.611362 109.455038 
L 85.846222 103.993409 
L 86.315944 84.510428 
L 86.903095 60.974381 
L 87.137956 57.881782 
L 87.255386 58.449153 
L 87.490247 63.782902 
L 88.077398 90.094106 
L 88.429689 101.330626 
L 88.66455 103.382667 
L 88.78198 102.758729 
L 89.016841 98.728481 
L 89.486562 83.707184 
L 90.073713 65.992374 
L 90.308574 63.885261 
L 90.426004 64.399114 
L 90.660865 68.471788 
L 91.248016 88.041618 
L 91.600307 96.591654 
L 91.835168 98.282219 
L 91.952598 97.86788 
L 92.187459 94.850387 
L 92.65718 83.241816 
L 93.244331 69.788163 
L 93.479192 68.306278 
L 93.596622 68.74187 
L 93.831483 71.860668 
L 94.418634 86.578351 
L 94.770925 93.12234 
L 95.005786 94.490171 
L 95.123216 94.208062 
L 95.358077 91.92911 
L 95.827798 82.952866 
L 96.41495 72.683178 
L 96.64981 71.618049 
L 96.767241 71.975385 
L 97.002101 74.368374 
L 97.589253 85.514094 
L 97.941544 90.537298 
L 98.176404 91.630176 
L 98.293834 91.434139 
L 98.528695 89.703526 
L 98.998416 82.764625 
L 99.468138 75.923965 
L 99.702998 74.290786 
L 99.820428 74.124323 
L 99.937859 74.411864 
L 100.172719 76.250066 
L 100.759871 84.729023 
L 101.112162 88.590384 
L 101.347022 89.455638 
L 101.464453 89.317043 
L 101.699313 87.998118 
L 102.169034 82.637513 
L 102.638756 77.381862 
L 102.873616 76.149724 
L 102.991047 76.032667 
L 103.108477 76.261165 
L 103.343338 77.674089 
L 103.930489 84.143976 
L 104.28278 87.114189 
L 104.517641 87.794577 
L 104.635071 87.695138 
L 104.869931 86.687529 
L 105.339653 82.549252 
L 105.809374 78.508894 
L 106.044234 77.574834 
L 106.161665 77.49112 
L 106.279095 77.671138 
L 106.513956 78.757517 
L 107.101107 83.704716 
L 107.453398 85.990048 
L 107.688259 86.522317 
L 107.805689 86.450067 
L 108.04055 85.678998 
L 108.510271 82.486602 
L 108.979992 79.379587 
L 109.214853 78.668987 
L 109.332283 78.608263 
L 109.449713 78.749213 
L 109.684574 79.584631 
L 110.271725 83.37307 
L 110.624016 85.131552 
L 110.858877 85.546312 
L 110.976307 85.493255 
L 111.211168 84.902493 
L 111.680889 82.441343 
L 112.15061 80.051753 
L 112.385471 79.509733 
L 112.502901 79.465159 
L 112.737762 79.831206 
L 113.090053 81.280997 
L 113.794634 84.47466 
L 114.029495 84.79688 
L 114.146925 84.757569 
L 114.381786 84.304563 
L 114.851507 82.408186 
L 115.321228 80.570288 
L 115.556089 80.156041 
L 115.673519 80.123 
L 115.90838 80.405657 
L 116.260671 81.518226 
L 116.965253 83.971359 
L 117.200113 84.221107 
L 117.434974 84.063112 
L 117.787265 83.192945 
L 118.609277 80.76855 
L 118.844138 80.6283 
L 119.078998 80.846337 
L 119.431289 81.70053 
L 120.135871 83.585377 
L 120.370731 83.778609 
L 120.605592 83.657997 
L 120.957883 82.9885 
L 121.779895 81.123535 
L 122.014756 81.016563 
L 122.249616 81.18462 
L 122.601907 81.84067 
L 123.306489 83.289171 
L 123.54135 83.438471 
L 123.77621 83.346256 
L 124.128501 82.831227 
L 124.950513 81.396714 
L 125.185374 81.314964 
L 125.420234 81.444417 
L 125.772525 81.948418 
L 126.477107 83.061749 
L 126.711968 83.176984 
L 126.946828 83.106396 
L 127.299119 82.710244 
L 128.121131 81.606904 
L 128.355992 81.544334 
L 128.708283 81.747531 
L 129.882586 82.975947 
L 130.234877 82.845465 
L 130.822028 82.189167 
L 131.29175 81.768605 
L 131.644041 81.744136 
L 131.996331 81.978107 
L 132.935774 82.800796 
L 133.288065 82.779913 
L 133.757786 82.4388 
L 134.462368 81.892988 
L 134.814659 81.874298 
L 135.28438 82.14398 
L 136.106392 82.686659 
L 136.458683 82.670726 
L 136.928404 82.408385 
L 137.632986 81.988658 
L 138.102707 82.00584 
L 138.807289 82.404725 
L 139.394441 82.61116 
L 139.864162 82.504936 
L 141.038465 82.040564 
L 141.508186 82.157576 
L 142.565059 82.540902 
L 143.15221 82.415614 
L 144.091653 82.104955 
L 144.678804 82.192135 
L 145.853107 82.484396 
L 146.557689 82.314078 
L 147.379701 82.149541 
L 148.084283 82.283872 
L 149.023725 82.44344 
L 149.845738 82.282694 
L 150.66775 82.190836 
L 152.898925 82.31125 
L 153.838368 82.217714 
L 156.186974 82.292692 
L 157.243847 82.254595 
L 159.005301 82.336322 
L 160.531895 82.27622 
L 162.175919 82.329582 
L 163.819944 82.291786 
L 165.463968 82.316673 
L 167.107992 82.302315 
L 168.869447 82.302097 
L 170.630901 82.318945 
L 172.979507 82.290407 
L 178.498731 82.302228 
L 183.548234 82.313783 
L 200.458198 82.307224 
L 229.815774 82.306972 
L 250.600938 82.339158 
L 251.070659 83.416364 
L 251.42295 83.772038 
L 251.775241 83.75348 
L 252.244962 83.370789 
L 252.949544 82.755 
L 253.301834 82.695656 
L 253.654125 82.847557 
L 254.828428 83.574101 
L 255.180719 83.473478 
L 256.472453 82.807186 
L 256.942174 82.986013 
L 257.881616 83.472034 
L 258.351338 83.401287 
L 259.643071 82.890168 
L 260.112792 83.027757 
L 261.052234 83.400344 
L 261.521956 83.345715 
L 262.931119 82.96636 
L 263.753131 83.238318 
L 264.340283 83.349109 
L 264.927434 83.235745 
L 265.866877 83.001627 
L 266.571459 83.117576 
L 267.510901 83.305933 
L 268.215483 83.188445 
L 269.154925 83.040172 
L 270.094368 83.207942 
L 270.91638 83.259764 
L 272.795265 83.117097 
L 274.086998 83.237315 
L 276.083313 83.143166 
L 277.375047 83.211664 
L 279.253931 83.148011 
L 280.663095 83.192081 
L 282.42455 83.151707 
L 283.951144 83.177946 
L 285.712598 83.161729 
L 287.356622 83.162027 
L 289.118077 83.172865 
L 291.231822 83.1441 
L 368.853253 83.163614 
L 426.746392 83.163585 
L 426.746392 83.163585 
" clip-path="url(#p32d5d03f94)" style="fill: none; stroke: #1f77b4; stroke-width: 2; stroke-linecap: square"/>
   </g>
   <g id="line2d_34">
    <path d="M 74.455483 82.280356 
L 426.746392 82.280356 
L 426.746392 82.280356 
" clip-path="url(#p32d5d03f94)" style="fill: none; stroke: #ff7f0e; stroke-width: 2; stroke-linecap: square"/>
   </g>
   <g id="patch_3">
    <path d="M 56.840938 296.44 
L 56.840938 7.2 
" style="fill: none; stroke: #000000; stroke-width: 0.8; stroke-linejoin: miter; stroke-linecap: square"/>
   </g>
   <g id="patch_4">
    <path d="M 444.360938 296.44 
L 444.360938 7.2 
" style="fill: none; stroke: #000000; stroke-width: 0.8; stroke-linejoin: miter; stroke-linecap: square"/>
   </g>
   <g id="patch_5">
    <path d="M 56.840937 296.44 
L 444.360938 296.44 
" style="fill: none; stroke: #000000; stroke-width: 0.8; stroke-linejoin: miter; stroke-linecap: square"/>
   </g>
   <g id="patch_6">
    <path d="M 56.840937 7.2 
L 444.360938 7.2 
" style="fill: none; stroke: #000000; stroke-width: 0.8; stroke-linejoin: miter; stroke-linecap: square"/>
   </g>
   <g id="legend_1">
    <g id="patch_7">
     <path d="M 339.690625 44.55625 
L 437.360938 44.55625 
Q 439.360938 44.55625 439.360938 42.55625 
L 439.360938 14.2 
Q 439.360938 12.2 437.360938 12.2 
L 339.690625 12.2 
Q 337.690625 12.2 337.690625 14.2 
L 337.690625 42.55625 
Q 337.690625 44.55625 339.690625 44.55625 
z
" style="fill: #ffffff; opacity: 0.8; stroke: #cccccc; stroke-linejoin: miter"/>
    </g>
    <g id="line2d_35">
     <path d="M 341.690625 20.298437 
L 351.690625 20.298437 
L 361.690625 20.298437 
" style="fill: none; stroke: #1f77b4; stroke-width: 2; stroke-linecap: square"/>
    </g>
    <g id="text_19">
     <!-- omega (rpm) -->
     <g transform="translate(369.690625 23.798437) scale(0.1 -0.1)">
      <defs>
       <path id="DejaVuSans-6f" d="M 1959 3097 
Q 1497 3097 1228 2736 
Q 959 2375 959 1747 
Q 959 1119 1226 758 
Q 1494 397 1959 397 
Q 2419 397 2687 759 
Q 2956 1122 2956 1747 
Q 2956 2369 2687 2733 
Q 2419 3097 1959 3097 
z
M 1959 3584 
Q 2709 3584 3137 3096 
Q 3566 2609 3566 1747 
Q 3566 888 3137 398 
Q 2709 -91 1959 -91 
Q 1206 -91 779 398 
Q 353 888 353 1747 
Q 353 2609 779 3096 
Q 1206 3584 1959 3584 
z
" transform="scale(0.015625)"/>
       <path id="DejaVuSans-67" d="M 2906 1791 
Q 2906 2416 2648 2759 
Q 2391 3103 1925 3103 
Q 1463 3103 1205 2759 
Q 947 2416 947 1791 
Q 947 1169 1205 825 
Q 1463 481 1925 481 
Q 2391 481 2648 825 
Q 2906 1169 2906 1791 
z
M 3481 434 
Q 3481 -459 3084 -895 
Q 2688 -1331 1869 -1331 
Q 1566 -1331 1297 -1286 
Q 1028 -1241 775 -1147 
L 775 -588 
Q 1028 -725 1275 -790 
Q 1522 -856 1778 -856 
Q 2344 -856 2625 -561 
Q 2906 -266 2906 331 
L 2906 616 
Q 2728 306 2450 153 
Q 2172 0 1784 0 
Q 1141 0 747 490 
Q 353 981 353 1791 
Q 353 2603 747 3093 
Q 1141 3584 1784 3584 
Q 2172 3584 2450 3431 
Q 2728 3278 2906 2969 
L 2906 3500 
L 3481 3500 
L 3481 434 
z
" transform="scale(0.015625)"/>
       <path id="DejaVuSans-61" d="M 2194 1759 
Q 1497 1759 1228 1600 
Q 959 1441 959 1056 
Q 959 750 1161 570 
Q 1363 391 1709 391 
Q 2188 391 2477 730 
Q 2766 1069 2766 1631 
L 2766 1759 
L 2194 1759 
z
M 3341 1997 
L 3341 0 
L 2766 0 
L 2766 531 
Q 2569 213 2275 61 
Q 1981 -91 1556 -91 
Q 1019 -91 701 211 
Q 384 513 384 1019 
Q 384 1609 779 1909 
Q 1175 2209 1959 2209 
L 2766 2209 
L 2766 2266 
Q 2766 2663 2505 2880 
Q 2244 3097 1772 3097 
Q 1472 3097 1187 3025 
Q 903 2953 641 2809 
L 641 3341 
Q 956 3463 1253 3523 
Q 1550 3584 1831 3584 
Q 2591 3584 2966 3190 
Q 3341 2797 3341 1997 
z
" transform="scale(0.015625)"/>
      </defs>
      <use xlink:href="#DejaVuSans-6f"/>
      <use xlink:href="#DejaVuSans-6d" transform="translate(61.181641 0)"/>
      <use xlink:href="#DejaVuSans-65" transform="translate(158.59375 0)"/>
      <use xlink:href="#DejaVuSans-67" transform="translate(220.117188 0)"/>
      <use xlink:href="#DejaVuSans-61" transform="translate(283.59375 0)"/>
      <use xlink:href="#DejaVuSans-20" transform="translate(344.873047 0)"/>
      <use xlink:href="#DejaVuSans-28" transform="translate(376.660156 0)"/>
      <use xlink:href="#DejaVuSans-72" transform="translate(415.673828 0)"/>
      <use xlink:href="#DejaVuSans-70" transform="translate(456.787109 0)"/>
      <use xlink:href="#DejaVuSans-6d" transform="translate(520.263672 0)"/>
      <use xlink:href="#DejaVuSans-29" transform="translate(617.675781 0)"/>
     </g>
    </g>
    <g id="line2d_36">
     <path d="M 341.690625 34.976562 
L 351.690625 34.976562 
L 361.690625 34.976562 
" style="fill: none; stroke: #ff7f0e; stroke-width: 2; stroke-linecap: square"/>
    </g>
    <g id="text_20">
     <!-- sync (rpm) -->
     <g transform="translate(369.690625 38.476562) scale(0.1 -0.1)">
      <defs>
       <path id="DejaVuSans-79" d="M 2059 -325 
Q 1816 -950 1584 -1140 
Q 1353 -1331 966 -1331 
L 506 -1331 
L 506 -850 
L 844 -850 
Q 1081 -850 1212 -737 
Q 1344 -625 1503 -206 
L 1606 56 
L 191 3500 
L 800 3500 
L 1894 763 
L 2988 3500 
L 3597 3500 
L 2059 -325 
z
" transform="scale(0.015625)"/>
       <path id="DejaVuSans-6e" d="M 3513 2113 
L 3513 0 
L 2938 0 
L 2938 2094 
Q 2938 2591 2744 2837 
Q 2550 3084 2163 3084 
Q 1697 3084 1428 2787 
Q 1159 2491 1159 1978 
L 1159 0 
L 581 0 
L 581 3500 
L 1159 3500 
L 1159 2956 
Q 1366 3272 1645 3428 
Q 1925 3584 2291 3584 
Q 2894 3584 3203 3211 
Q 3513 2838 3513 2113 
z
" transform="scale(0.015625)"/>
       <path id="DejaVuSans-63" d="M 3122 3366 
L 3122 2828 
Q 2878 2963 2633 3030 
Q 2388 3097 2138 3097 
Q 1578 3097 1268 2742 
Q 959 2388 959 1747 
Q 959 1106 1268 751 
Q 1578 397 2138 397 
Q 2388 397 2633 464 
Q 2878 531 3122 666 
L 3122 134 
Q 2881 22 2623 -34 
Q 2366 -91 2075 -91 
Q 1284 -91 818 406 
Q 353 903 353 1747 
Q 353 2603 823 3093 
Q 1294 3584 2113 3584 
Q 2378 3584 2631 3529 
Q 2884 3475 3122 3366 
z
" transform="scale(0.015625)"/>
      </defs>
      <use xlink:href="#DejaVuSans-73"/>
      <use xlink:href="#DejaVuSans-79" transform="translate(52.099609 0)"/>
      <use xlink:href="#DejaVuSans-6e" transform="translate(111.279297 0)"/>
      <use xlink:href="#DejaVuSans-63" transform="translate(174.658203 0)"/>
      <use xlink:href="#DejaVuSans-20" transform="translate(229.638672 0)"/>
      <use xlink:href="#DejaVuSans-28" transform="translate(261.425781 0)"/>
      <use xlink:href="#DejaVuSans-72" transform="translate(300.439453 0)"/>
      <use xlink:href="#DejaVuSans-70" transform="translate(341.552734 0)"/>
      <use xlink:href="#DejaVuSans-6d" transform="translate(405.029297 0)"/>
      <use xlink:href="#DejaVuSans-29" transform="translate(502.441406 0)"/>
     </g>
    </g>
   </g>
  </g>
 </g>
 <defs>
  <clipPath id="p32d5d03f94">
   <rect x="56.840938" y="7.2" width="387.52" height="289.24"/>
  </clipPath>
 </defs>
</svg>
