<?xml version="1.0" encoding="utf-8" standalone="no"?>
<!DOCTYPE svg PUBLIC "-//W3C//DTD SVG 1.1//EN"
  "http://www.w3.org/Graphics/SVG/1.1/DTD/svg11.dtd">
<svg xmlns:xlink="http://www.w3.org/1999/xlink" width="638.760937pt" height="494.331875pt" viewBox="0 0 638.760937 494.331875" xmlns="http://www.w3.org/2000/svg" version="1.1">
 <metadata>
  <rdf:RDF xmlns:dc="http://purl.org/dc/elements/1.1/" xmlns:cc="http://creativecommons.org/ns#" xmlns:rdf="http://www.w3.org/1999/02/22-rdf-syntax-ns#">
   <cc:Work>
    <dc:type rdf:resource="http://purl.org/dc/dcmitype/StillImage"/>
    <dc:date>2025-12-31T18:58:25.547006</dc:date>
    <dc:format>image/svg+xml</dc:format>
    <dc:creator>
     <cc:Agent>
      <dc:title>Matplotlib v3.10.8, https://matplotlib.org/</dc:title>
     </cc:Agent>
    </dc:creator>
   </cc:Work>
  </rdf:RDF>
 </metadata>
 <defs>
  <style type="text/css">*{stroke-linejoin: round; stroke-linecap: butt}</style>
 </defs>
 <g id="figure_1">
  <g id="patch_1">
   <path d="M 0 494.331875 
L 638.760937 494.331875 
L 638.760937 0 
L 0 0 
z
" style="fill: #ffffff"/>
  </g>
  <g id="axes_1">
   <g id="patch_2">
    <path d="M 56.840938 136.626667 
L 631.560938 136.626667 
L 631.560938 7.2 
L 56.840938 7.2 
z
" style="fill: #ffffff"/>
   </g>
   <g id="matplotlib.axis_1">
    <g id="xtick_1">
     <g id="line2d_1">
      <path d="M 82.964574 136.626667 
L 82.964574 7.2 
" clip-path="url(#p8b7827469a)" style="fill: none; stroke: #cccccc; stroke-opacity: 0.6; stroke-width: 0.6; stroke-linecap: square"/>
     </g>
     <g id="line2d_2">
      <defs>
       <path id="ma0a3d986be" d="M 0 0 
L 0 3.5 
" style="stroke: #000000; stroke-width: 0.8"/>
      </defs>
      <g>
       <use xlink:href="#ma0a3d986be" x="82.964574" y="136.626667" style="stroke: #000000; stroke-width: 0.8"/>
      </g>
     </g>
     <g id="text_1">
      <!-- 0.0 -->
      <g transform="translate(74.217855 151.984948) scale(0.11 -0.11)">
       <defs>
        <path id="DejaVuSans-30" d="M 2034 4250 
Q 1547 4250 1301 3770 
Q 1056 3291 1056 2328 
Q 1056 1369 1301 889 
Q 1547 409 2034 409 
Q 2525 409 2770 889 
Q 3016 1369 3016 2328 
Q 3016 3291 2770 3770 
Q 2525 4250 2034 4250 
z
M 2034 4750 
Q 2819 4750 3233 4129 
Q 3647 3509 3647 2328 
Q 3647 1150 3233 529 
Q 2819 -91 2034 -91 
Q 1250 -91 836 529 
Q 422 1150 422 2328 
Q 422 3509 836 4129 
Q 1250 4750 2034 4750 
z
" transform="scale(0.015625)"/>
        <path id="DejaVuSans-2e" d="M 684 794 
L 1344 794 
L 1344 0 
L 684 0 
L 684 794 
z
" transform="scale(0.015625)"/>
       </defs>
       <use xlink:href="#DejaVuSans-30"/>
       <use xlink:href="#DejaVuSans-2e" transform="translate(63.623047 0)"/>
       <use xlink:href="#DejaVuSans-30" transform="translate(95.410156 0)"/>
      </g>
     </g>
    </g>
    <g id="xtick_2">
     <g id="line2d_3">
      <path d="M 170.043362 136.626667 
L 170.043362 7.2 
" clip-path="url(#p8b7827469a)" style="fill: none; stroke: #cccccc; stroke-opacity: 0.6; stroke-width: 0.6; stroke-linecap: square"/>
     </g>
     <g id="line2d_4">
      <g>
       <use xlink:href="#ma0a3d986be" x="170.043362" y="136.626667" style="stroke: #000000; stroke-width: 0.8"/>
      </g>
     </g>
     <g id="text_2">
      <!-- 0.5 -->
      <g transform="translate(161.296643 151.984948) scale(0.11 -0.11)">
       <defs>
        <path id="DejaVuSans-35" d="M 691 4666 
L 3169 4666 
L 3169 4134 
L 1269 4134 
L 1269 2991 
Q 1406 3038 1543 3061 
Q 1681 3084 1819 3084 
Q 2600 3084 3056 2656 
Q 3513 2228 3513 1497 
Q 3513 744 3044 326 
Q 2575 -91 1722 -91 
Q 1428 -91 1123 -41 
Q 819 9 494 109 
L 494 744 
Q 775 591 1075 516 
Q 1375 441 1709 441 
Q 2250 441 2565 725 
Q 2881 1009 2881 1497 
Q 2881 1984 2565 2268 
Q 2250 2553 1709 2553 
Q 1456 2553 1204 2497 
Q 953 2441 691 2322 
L 691 4666 
z
" transform="scale(0.015625)"/>
       </defs>
       <use xlink:href="#DejaVuSans-30"/>
       <use xlink:href="#DejaVuSans-2e" transform="translate(63.623047 0)"/>
       <use xlink:href="#DejaVuSans-35" transform="translate(95.410156 0)"/>
      </g>
     </g>
    </g>
    <g id="xtick_3">
     <g id="line2d_5">
      <path d="M 257.12215 136.626667 
L 257.12215 7.2 
" clip-path="url(#p8b7827469a)" style="fill: none; stroke: #cccccc; stroke-opacity: 0.6; stroke-width: 0.6; stroke-linecap: square"/>
     </g>
     <g id="line2d_6">
      <g>
       <use xlink:href="#ma0a3d986be" x="257.12215" y="136.626667" style="stroke: #000000; stroke-width: 0.8"/>
      </g>
     </g>
     <g id="text_3">
      <!-- 1.0 -->
      <g transform="translate(248.375431 151.984948) scale(0.11 -0.11)">
       <defs>
        <path id="DejaVuSans-31" d="M 794 531 
L 1825 531 
L 1825 4091 
L 703 3866 
L 703 4441 
L 1819 4666 
L 2450 4666 
L 2450 531 
L 3481 531 
L 3481 0 
L 794 0 
L 794 531 
z
" transform="scale(0.015625)"/>
       </defs>
       <use xlink:href="#DejaVuSans-31"/>
       <use xlink:href="#DejaVuSans-2e" transform="translate(63.623047 0)"/>
       <use xlink:href="#DejaVuSans-30" transform="translate(95.410156 0)"/>
      </g>
     </g>
    </g>
    <g id="xtick_4">
     <g id="line2d_7">
      <path d="M 344.200938 136.626667 
L 344.200938 7.2 
" clip-path="url(#p8b7827469a)" style="fill: none; stroke: #cccccc; stroke-opacity: 0.6; stroke-width: 0.6; stroke-linecap: square"/>
     </g>
     <g id="line2d_8">
      <g>
       <use xlink:href="#ma0a3d986be" x="344.200938" y="136.626667" style="stroke: #000000; stroke-width: 0.8"/>
      </g>
     </g>
     <g id="text_4">
      <!-- 1.5 -->
      <g transform="translate(335.454219 151.984948) scale(0.11 -0.11)">
       <use xlink:href="#DejaVuSans-31"/>
       <use xlink:href="#DejaVuSans-2e" transform="translate(63.623047 0)"/>
       <use xlink:href="#DejaVuSans-35" transform="translate(95.410156 0)"/>
      </g>
     </g>
    </g>
    <g id="xtick_5">
     <g id="line2d_9">
      <path d="M 431.279725 136.626667 
L 431.279725 7.2 
" clip-path="url(#p8b7827469a)" style="fill: none; stroke: #cccccc; stroke-opacity: 0.6; stroke-width: 0.6; stroke-linecap: square"/>
     </g>
     <g id="line2d_10">
      <g>
       <use xlink:href="#ma0a3d986be" x="431.279725" y="136.626667" style="stroke: #000000; stroke-width: 0.8"/>
      </g>
     </g>
     <g id="text_5">
      <!-- 2.0 -->
      <g transform="translate(422.533007 151.984948) scale(0.11 -0.11)">
       <defs>
        <path id="DejaVuSans-32" d="M 1228 531 
L 3431 531 
L 3431 0 
L 469 0 
L 469 531 
Q 828 903 1448 1529 
Q 2069 2156 2228 2338 
Q 2531 2678 2651 2914 
Q 2772 3150 2772 3378 
Q 2772 3750 2511 3984 
Q 2250 4219 1831 4219 
Q 1534 4219 1204 4116 
Q 875 4013 500 3803 
L 500 4441 
Q 881 4594 1212 4672 
Q 1544 4750 1819 4750 
Q 2544 4750 2975 4387 
Q 3406 4025 3406 3419 
Q 3406 3131 3298 2873 
Q 3191 2616 2906 2266 
Q 2828 2175 2409 1742 
Q 1991 1309 1228 531 
z
" transform="scale(0.015625)"/>
       </defs>
       <use xlink:href="#DejaVuSans-32"/>
       <use xlink:href="#DejaVuSans-2e" transform="translate(63.623047 0)"/>
       <use xlink:href="#DejaVuSans-30" transform="translate(95.410156 0)"/>
      </g>
     </g>
    </g>
    <g id="xtick_6">
     <g id="line2d_11">
      <path d="M 518.358513 136.626667 
L 518.358513 7.2 
" clip-path="url(#p8b7827469a)" style="fill: none; stroke: #cccccc; stroke-opacity: 0.6; stroke-width: 0.6; stroke-linecap: square"/>
     </g>
     <g id="line2d_12">
      <g>
       <use xlink:href="#ma0a3d986be" x="518.358513" y="136.626667" style="stroke: #000000; stroke-width: 0.8"/>
      </g>
     </g>
     <g id="text_6">
      <!-- 2.5 -->
      <g transform="translate(509.611795 151.984948) scale(0.11 -0.11)">
       <use xlink:href="#DejaVuSans-32"/>
       <use xlink:href="#DejaVuSans-2e" transform="translate(63.623047 0)"/>
       <use xlink:href="#DejaVuSans-35" transform="translate(95.410156 0)"/>
      </g>
     </g>
    </g>
    <g id="xtick_7">
     <g id="line2d_13">
      <path d="M 605.437301 136.626667 
L 605.437301 7.2 
" clip-path="url(#p8b7827469a)" style="fill: none; stroke: #cccccc; stroke-opacity: 0.6; stroke-width: 0.6; stroke-linecap: square"/>
     </g>
     <g id="line2d_14">
      <g>
       <use xlink:href="#ma0a3d986be" x="605.437301" y="136.626667" style="stroke: #000000; stroke-width: 0.8"/>
      </g>
     </g>
     <g id="text_7">
      <!-- 3.0 -->
      <g transform="translate(596.690582 151.984948) scale(0.11 -0.11)">
       <defs>
        <path id="DejaVuSans-33" d="M 2597 2516 
Q 3050 2419 3304 2112 
Q 3559 1806 3559 1356 
Q 3559 666 3084 287 
Q 2609 -91 1734 -91 
Q 1441 -91 1130 -33 
Q 819 25 488 141 
L 488 750 
Q 750 597 1062 519 
Q 1375 441 1716 441 
Q 2309 441 2620 675 
Q 2931 909 2931 1356 
Q 2931 1769 2642 2001 
Q 2353 2234 1838 2234 
L 1294 2234 
L 1294 2753 
L 1863 2753 
Q 2328 2753 2575 2939 
Q 2822 3125 2822 3475 
Q 2822 3834 2567 4026 
Q 2313 4219 1838 4219 
Q 1578 4219 1281 4162 
Q 984 4106 628 3988 
L 628 4550 
Q 988 4650 1302 4700 
Q 1616 4750 1894 4750 
Q 2613 4750 3031 4423 
Q 3450 4097 3450 3541 
Q 3450 3153 3228 2886 
Q 3006 2619 2597 2516 
z
" transform="scale(0.015625)"/>
       </defs>
       <use xlink:href="#DejaVuSans-33"/>
       <use xlink:href="#DejaVuSans-2e" transform="translate(63.623047 0)"/>
       <use xlink:href="#DejaVuSans-30" transform="translate(95.410156 0)"/>
      </g>
     </g>
    </g>
   </g>
   <g id="matplotlib.axis_2">
    <g id="ytick_1">
     <g id="line2d_15">
      <path d="M 56.840938 130.743636 
L 631.560938 130.743636 
" clip-path="url(#p8b7827469a)" style="fill: none; stroke: #cccccc; stroke-opacity: 0.6; stroke-width: 0.6; stroke-linecap: square"/>
     </g>
     <g id="line2d_16">
      <defs>
       <path id="ma8ac90a1b0" d="M 0 0 
L -3.5 0 
" style="stroke: #000000; stroke-width: 0.8"/>
      </defs>
      <g>
       <use xlink:href="#ma8ac90a1b0" x="56.840938" y="130.743636" style="stroke: #000000; stroke-width: 0.8"/>
      </g>
     </g>
     <g id="text_8">
      <!-- 0 -->
      <g transform="translate(42.842188 134.922777) scale(0.11 -0.11)">
       <use xlink:href="#DejaVuSans-30"/>
      </g>
     </g>
    </g>
    <g id="ytick_2">
     <g id="line2d_17">
      <path d="M 56.840938 103.638896 
L 631.560938 103.638896 
" clip-path="url(#p8b7827469a)" style="fill: none; stroke: #cccccc; stroke-opacity: 0.6; stroke-width: 0.6; stroke-linecap: square"/>
     </g>
     <g id="line2d_18">
      <g>
       <use xlink:href="#ma8ac90a1b0" x="56.840938" y="103.638896" style="stroke: #000000; stroke-width: 0.8"/>
      </g>
     </g>
     <g id="text_9">
      <!-- 500 -->
      <g transform="translate(28.844688 107.818036) scale(0.11 -0.11)">
       <use xlink:href="#DejaVuSans-35"/>
       <use xlink:href="#DejaVuSans-30" transform="translate(63.623047 0)"/>
       <use xlink:href="#DejaVuSans-30" transform="translate(127.246094 0)"/>
      </g>
     </g>
    </g>
    <g id="ytick_3">
     <g id="line2d_19">
      <path d="M 56.840938 76.534155 
L 631.560938 76.534155 
" clip-path="url(#p8b7827469a)" style="fill: none; stroke: #cccccc; stroke-opacity: 0.6; stroke-width: 0.6; stroke-linecap: square"/>
     </g>
     <g id="line2d_20">
      <g>
       <use xlink:href="#ma8ac90a1b0" x="56.840938" y="76.534155" style="stroke: #000000; stroke-width: 0.8"/>
      </g>
     </g>
     <g id="text_10">
      <!-- 1000 -->
      <g transform="translate(21.845938 80.713296) scale(0.11 -0.11)">
       <use xlink:href="#DejaVuSans-31"/>
       <use xlink:href="#DejaVuSans-30" transform="translate(63.623047 0)"/>
       <use xlink:href="#DejaVuSans-30" transform="translate(127.246094 0)"/>
       <use xlink:href="#DejaVuSans-30" transform="translate(190.869141 0)"/>
      </g>
     </g>
    </g>
    <g id="ytick_4">
     <g id="line2d_21">
      <path d="M 56.840938 49.429415 
L 631.560938 49.429415 
" clip-path="url(#p8b7827469a)" style="fill: none; stroke: #cccccc; stroke-opacity: 0.6; stroke-width: 0.6; stroke-linecap: square"/>
     </g>
     <g id="line2d_22">
      <g>
       <use xlink:href="#ma8ac90a1b0" x="56.840938" y="49.429415" style="stroke: #000000; stroke-width: 0.8"/>
      </g>
     </g>
     <g id="text_11">
      <!-- 1500 -->
      <g transform="translate(21.845938 53.608555) scale(0.11 -0.11)">
       <use xlink:href="#DejaVuSans-31"/>
       <use xlink:href="#DejaVuSans-35" transform="translate(63.623047 0)"/>
       <use xlink:href="#DejaVuSans-30" transform="translate(127.246094 0)"/>
       <use xlink:href="#DejaVuSans-30" transform="translate(190.869141 0)"/>
      </g>
     </g>
    </g>
    <g id="ytick_5">
     <g id="line2d_23">
      <path d="M 56.840938 22.324674 
L 631.560938 22.324674 
" clip-path="url(#p8b7827469a)" style="fill: none; stroke: #cccccc; stroke-opacity: 0.6; stroke-width: 0.6; stroke-linecap: square"/>
     </g>
     <g id="line2d_24">
      <g>
       <use xlink:href="#ma8ac90a1b0" x="56.840938" y="22.324674" style="stroke: #000000; stroke-width: 0.8"/>
      </g>
     </g>
     <g id="text_12">
      <!-- 2000 -->
      <g transform="translate(21.845938 26.503815) scale(0.11 -0.11)">
       <use xlink:href="#DejaVuSans-32"/>
       <use xlink:href="#DejaVuSans-30" transform="translate(63.623047 0)"/>
       <use xlink:href="#DejaVuSans-30" transform="translate(127.246094 0)"/>
       <use xlink:href="#DejaVuSans-30" transform="translate(190.869141 0)"/>
      </g>
     </g>
    </g>
    <g id="text_13">
     <!-- Speed (rpm) -->
     <g transform="translate(15.558281 106.30638) rotate(-90) scale(0.11 -0.11)">
      <defs>
       <path id="DejaVuSans-53" d="M 3425 4513 
L 3425 3897 
Q 3066 4069 2747 4153 
Q 2428 4238 2131 4238 
Q 1616 4238 1336 4038 
Q 1056 3838 1056 3469 
Q 1056 3159 1242 3001 
Q 1428 2844 1947 2747 
L 2328 2669 
Q 3034 2534 3370 2195 
Q 3706 1856 3706 1288 
Q 3706 609 3251 259 
Q 2797 -91 1919 -91 
Q 1588 -91 1214 -16 
Q 841 59 441 206 
L 441 856 
Q 825 641 1194 531 
Q 1563 422 1919 422 
Q 2459 422 2753 634 
Q 3047 847 3047 1241 
Q 3047 1584 2836 1778 
Q 2625 1972 2144 2069 
L 1759 2144 
Q 1053 2284 737 2584 
Q 422 2884 422 3419 
Q 422 4038 858 4394 
Q 1294 4750 2059 4750 
Q 2388 4750 2728 4690 
Q 3069 4631 3425 4513 
z
" transform="scale(0.015625)"/>
       <path id="DejaVuSans-70" d="M 1159 525 
L 1159 -1331 
L 581 -1331 
L 581 3500 
L 1159 3500 
L 1159 2969 
Q 1341 3281 1617 3432 
Q 1894 3584 2278 3584 
Q 2916 3584 3314 3078 
Q 3713 2572 3713 1747 
Q 3713 922 3314 415 
Q 2916 -91 2278 -91 
Q 1894 -91 1617 61 
Q 1341 213 1159 525 
z
M 3116 1747 
Q 3116 2381 2855 2742 
Q 2594 3103 2138 3103 
Q 1681 3103 1420 2742 
Q 1159 2381 1159 1747 
Q 1159 1113 1420 752 
Q 1681 391 2138 391 
Q 2594 391 2855 752 
Q 3116 1113 3116 1747 
z
" transform="scale(0.015625)"/>
       <path id="DejaVuSans-65" d="M 3597 1894 
L 3597 1613 
L 953 1613 
Q 991 1019 1311 708 
Q 1631 397 2203 397 
Q 2534 397 2845 478 
Q 3156 559 3463 722 
L 3463 178 
Q 3153 47 2828 -22 
Q 2503 -91 2169 -91 
Q 1331 -91 842 396 
Q 353 884 353 1716 
Q 353 2575 817 3079 
Q 1281 3584 2069 3584 
Q 2775 3584 3186 3129 
Q 3597 2675 3597 1894 
z
M 3022 2063 
Q 3016 2534 2758 2815 
Q 2500 3097 2075 3097 
Q 1594 3097 1305 2825 
Q 1016 2553 972 2059 
L 3022 2063 
z
" transform="scale(0.015625)"/>
       <path id="DejaVuSans-64" d="M 2906 2969 
L 2906 4863 
L 3481 4863 
L 3481 0 
L 2906 0 
L 2906 525 
Q 2725 213 2448 61 
Q 2172 -91 1784 -91 
Q 1150 -91 751 415 
Q 353 922 353 1747 
Q 353 2572 751 3078 
Q 1150 3584 1784 3584 
Q 2172 3584 2448 3432 
Q 2725 3281 2906 2969 
z
M 947 1747 
Q 947 1113 1208 752 
Q 1469 391 1925 391 
Q 2381 391 2643 752 
Q 2906 1113 2906 1747 
Q 2906 2381 2643 2742 
Q 2381 3103 1925 3103 
Q 1469 3103 1208 2742 
Q 947 2381 947 1747 
z
" transform="scale(0.015625)"/>
       <path id="DejaVuSans-20" transform="scale(0.015625)"/>
       <path id="DejaVuSans-28" d="M 1984 4856 
Q 1566 4138 1362 3434 
Q 1159 2731 1159 2009 
Q 1159 1288 1364 580 
Q 1569 -128 1984 -844 
L 1484 -844 
Q 1016 -109 783 600 
Q 550 1309 550 2009 
Q 550 2706 781 3412 
Q 1013 4119 1484 4856 
L 1984 4856 
z
" transform="scale(0.015625)"/>
       <path id="DejaVuSans-72" d="M 2631 2963 
Q 2534 3019 2420 3045 
Q 2306 3072 2169 3072 
Q 1681 3072 1420 2755 
Q 1159 2438 1159 1844 
L 1159 0 
L 581 0 
L 581 3500 
L 1159 3500 
L 1159 2956 
Q 1341 3275 1631 3429 
Q 1922 3584 2338 3584 
Q 2397 3584 2469 3576 
Q 2541 3569 2628 3553 
L 2631 2963 
z
" transform="scale(0.015625)"/>
       <path id="DejaVuSans-6d" d="M 3328 2828 
Q 3544 3216 3844 3400 
Q 4144 3584 4550 3584 
Q 5097 3584 5394 3201 
Q 5691 2819 5691 2113 
L 5691 0 
L 5113 0 
L 5113 2094 
Q 5113 2597 4934 2840 
Q 4756 3084 4391 3084 
Q 3944 3084 3684 2787 
Q 3425 2491 3425 1978 
L 3425 0 
L 2847 0 
L 2847 2094 
Q 2847 2600 2669 2842 
Q 2491 3084 2119 3084 
Q 1678 3084 1418 2786 
Q 1159 2488 1159 1978 
L 1159 0 
L 581 0 
L 581 3500 
L 1159 3500 
L 1159 2956 
Q 1356 3278 1631 3431 
Q 1906 3584 2284 3584 
Q 2666 3584 2933 3390 
Q 3200 3197 3328 2828 
z
" transform="scale(0.015625)"/>
       <path id="DejaVuSans-29" d="M 513 4856 
L 1013 4856 
Q 1481 4119 1714 3412 
Q 1947 2706 1947 2009 
Q 1947 1309 1714 600 
Q 1481 -109 1013 -844 
L 513 -844 
Q 928 -128 1133 580 
Q 1338 1288 1338 2009 
Q 1338 2731 1133 3434 
Q 928 4138 513 4856 
z
" transform="scale(0.015625)"/>
      </defs>
      <use xlink:href="#DejaVuSans-53"/>
      <use xlink:href="#DejaVuSans-70" transform="translate(63.476562 0)"/>
      <use xlink:href="#DejaVuSans-65" transform="translate(126.953125 0)"/>
      <use xlink:href="#DejaVuSans-65" transform="translate(188.476562 0)"/>
      <use xlink:href="#DejaVuSans-64" transform="translate(250 0)"/>
      <use xlink:href="#DejaVuSans-20" transform="translate(313.476562 0)"/>
      <use xlink:href="#DejaVuSans-28" transform="translate(345.263672 0)"/>
      <use xlink:href="#DejaVuSans-72" transform="translate(384.277344 0)"/>
      <use xlink:href="#DejaVuSans-70" transform="translate(425.390625 0)"/>
      <use xlink:href="#DejaVuSans-6d" transform="translate(488.867188 0)"/>
      <use xlink:href="#DejaVuSans-29" transform="translate(586.279297 0)"/>
     </g>
    </g>
   </g>
   <g id="line2d_25">
    <path d="M 82.964574 130.743636 
L 135.037689 130.743636 
L 135.734319 128.835501 
L 146.532089 97.569537 
L 160.81301 55.488973 
L 174.397301 15.428637 
L 175.093931 14.232275 
L 175.790562 13.488064 
L 176.313034 13.188352 
L 176.835507 13.08303 
L 177.532138 13.206713 
L 178.228768 13.588749 
L 179.099556 14.36543 
L 180.144501 15.642258 
L 181.537762 17.761379 
L 183.453495 21.128851 
L 189.374853 31.791919 
L 191.638901 35.274114 
L 193.728792 38.062752 
L 195.644525 40.255369 
L 197.560259 42.116358 
L 199.475992 43.67247 
L 201.391725 44.955968 
L 203.481616 46.085419 
L 205.745665 47.039397 
L 208.183871 47.810703 
L 210.796234 48.405273 
L 213.931071 48.882392 
L 217.762538 49.223984 
L 222.813107 49.43044 
L 230.824356 49.50135 
L 344.200938 49.55875 
L 345.420041 50.327863 
L 346.813301 50.949035 
L 348.380719 51.392476 
L 350.122295 51.648592 
L 352.212186 51.725857 
L 354.998707 51.587923 
L 359.700962 51.087475 
L 368.060525 50.21015 
L 374.330198 49.803309 
L 381.818974 49.556953 
L 392.965059 49.440693 
L 425.532525 49.428458 
L 605.437301 49.429415 
L 605.437301 49.429415 
" clip-path="url(#p8b7827469a)" style="fill: none; stroke: #1f77b4; stroke-width: 2; stroke-linecap: square"/>
   </g>
   <g id="line2d_26">
    <path d="M 82.964574 130.743636 
L 135.037689 130.743636 
L 135.211847 49.429415 
L 605.437301 49.429415 
L 605.437301 49.429415 
" clip-path="url(#p8b7827469a)" style="fill: none; stroke-dasharray: 7.4,3.2; stroke-dashoffset: 0; stroke: #ff7f0e; stroke-width: 2"/>
   </g>
   <g id="patch_3">
    <path d="M 56.840938 136.626667 
L 56.840938 7.2 
" style="fill: none; stroke: #000000; stroke-width: 0.8; stroke-linejoin: miter; stroke-linecap: square"/>
   </g>
   <g id="patch_4">
    <path d="M 631.560938 136.626667 
L 631.560938 7.2 
" style="fill: none; stroke: #000000; stroke-width: 0.8; stroke-linejoin: miter; stroke-linecap: square"/>
   </g>
   <g id="patch_5">
    <path d="M 56.840938 136.626667 
L 631.560938 136.626667 
" style="fill: none; stroke: #000000; stroke-width: 0.8; stroke-linejoin: miter; stroke-linecap: square"/>
   </g>
   <g id="patch_6">
    <path d="M 56.840938 7.2 
L 631.560938 7.2 
" style="fill: none; stroke: #000000; stroke-width: 0.8; stroke-linejoin: miter; stroke-linecap: square"/>
   </g>
   <g id="legend_1">
    <g id="patch_7">
     <path d="M 521.890625 44.55625 
L 624.560938 44.55625 
Q 626.560938 44.55625 626.560938 42.55625 
L 626.560938 14.2 
Q 626.560938 12.2 624.560938 12.2 
L 521.890625 12.2 
Q 519.890625 12.2 519.890625 14.2 
L 519.890625 42.55625 
Q 519.890625 44.55625 521.890625 44.55625 
z
" style="fill: #ffffff; opacity: 0.8; stroke: #cccccc; stroke-linejoin: miter"/>
    </g>
    <g id="line2d_27">
     <path d="M 523.890625 20.298437 
L 533.890625 20.298437 
L 543.890625 20.298437 
" style="fill: none; stroke: #1f77b4; stroke-width: 2; stroke-linecap: square"/>
    </g>
    <g id="text_14">
     <!-- omega (rpm) -->
     <g transform="translate(551.890625 23.798437) scale(0.1 -0.1)">
      <defs>
       <path id="DejaVuSans-6f" d="M 1959 3097 
Q 1497 3097 1228 2736 
Q 959 2375 959 1747 
Q 959 1119 1226 758 
Q 1494 397 1959 397 
Q 2419 397 2687 759 
Q 2956 1122 2956 1747 
Q 2956 2369 2687 2733 
Q 2419 3097 1959 3097 
z
M 1959 3584 
Q 2709 3584 3137 3096 
Q 3566 2609 3566 1747 
Q 3566 888 3137 398 
Q 2709 -91 1959 -91 
Q 1206 -91 779 398 
Q 353 888 353 1747 
Q 353 2609 779 3096 
Q 1206 3584 1959 3584 
z
" transform="scale(0.015625)"/>
       <path id="DejaVuSans-67" d="M 2906 1791 
Q 2906 2416 2648 2759 
Q 2391 3103 1925 3103 
Q 1463 3103 1205 2759 
Q 947 2416 947 1791 
Q 947 1169 1205 825 
Q 1463 481 1925 481 
Q 2391 481 2648 825 
Q 2906 1169 2906 1791 
z
M 3481 434 
Q 3481 -459 3084 -895 
Q 2688 -1331 1869 -1331 
Q 1566 -1331 1297 -1286 
Q 1028 -1241 775 -1147 
L 775 -588 
Q 1028 -725 1275 -790 
Q 1522 -856 1778 -856 
Q 2344 -856 2625 -561 
Q 2906 -266 2906 331 
L 2906 616 
Q 2728 306 2450 153 
Q 2172 0 1784 0 
Q 1141 0 747 490 
Q 353 981 353 1791 
Q 353 2603 747 3093 
Q 1141 3584 1784 3584 
Q 2172 3584 2450 3431 
Q 2728 3278 2906 2969 
L 2906 3500 
L 3481 3500 
L 3481 434 
z
" transform="scale(0.015625)"/>
       <path id="DejaVuSans-61" d="M 2194 1759 
Q 1497 1759 1228 1600 
Q 959 1441 959 1056 
Q 959 750 1161 570 
Q 1363 391 1709 391 
Q 2188 391 2477 730 
Q 2766 1069 2766 1631 
L 2766 1759 
L 2194 1759 
z
M 3341 1997 
L 3341 0 
L 2766 0 
L 2766 531 
Q 2569 213 2275 61 
Q 1981 -91 1556 -91 
Q 1019 -91 701 211 
Q 384 513 384 1019 
Q 384 1609 779 1909 
Q 1175 2209 1959 2209 
L 2766 2209 
L 2766 2266 
Q 2766 2663 2505 2880 
Q 2244 3097 1772 3097 
Q 1472 3097 1187 3025 
Q 903 2953 641 2809 
L 641 3341 
Q 956 3463 1253 3523 
Q 1550 3584 1831 3584 
Q 2591 3584 2966 3190 
Q 3341 2797 3341 1997 
z
" transform="scale(0.015625)"/>
      </defs>
      <use xlink:href="#DejaVuSans-6f"/>
      <use xlink:href="#DejaVuSans-6d" transform="translate(61.181641 0)"/>
      <use xlink:href="#DejaVuSans-65" transform="translate(158.59375 0)"/>
      <use xlink:href="#DejaVuSans-67" transform="translate(220.117188 0)"/>
      <use xlink:href="#DejaVuSans-61" transform="translate(283.59375 0)"/>
      <use xlink:href="#DejaVuSans-20" transform="translate(344.873047 0)"/>
      <use xlink:href="#DejaVuSans-28" transform="translate(376.660156 0)"/>
      <use xlink:href="#DejaVuSans-72" transform="translate(415.673828 0)"/>
      <use xlink:href="#DejaVuSans-70" transform="translate(456.787109 0)"/>
      <use xlink:href="#DejaVuSans-6d" transform="translate(520.263672 0)"/>
      <use xlink:href="#DejaVuSans-29" transform="translate(617.675781 0)"/>
     </g>
    </g>
    <g id="line2d_28">
     <path d="M 523.890625 34.976562 
L 533.890625 34.976562 
L 543.890625 34.976562 
" style="fill: none; stroke-dasharray: 7.4,3.2; stroke-dashoffset: 0; stroke: #ff7f0e; stroke-width: 2"/>
    </g>
    <g id="text_15">
     <!-- omega* (rpm) -->
     <g transform="translate(551.890625 38.476562) scale(0.1 -0.1)">
      <defs>
       <path id="DejaVuSans-2a" d="M 3009 3897 
L 1888 3291 
L 3009 2681 
L 2828 2375 
L 1778 3009 
L 1778 1831 
L 1422 1831 
L 1422 3009 
L 372 2375 
L 191 2681 
L 1313 3291 
L 191 3897 
L 372 4206 
L 1422 3572 
L 1422 4750 
L 1778 4750 
L 1778 3572 
L 2828 4206 
L 3009 3897 
z
" transform="scale(0.015625)"/>
      </defs>
      <use xlink:href="#DejaVuSans-6f"/>
      <use xlink:href="#DejaVuSans-6d" transform="translate(61.181641 0)"/>
      <use xlink:href="#DejaVuSans-65" transform="translate(158.59375 0)"/>
      <use xlink:href="#DejaVuSans-67" transform="translate(220.117188 0)"/>
      <use xlink:href="#DejaVuSans-61" transform="translate(283.59375 0)"/>
      <use xlink:href="#DejaVuSans-2a" transform="translate(344.873047 0)"/>
      <use xlink:href="#DejaVuSans-20" transform="translate(394.873047 0)"/>
      <use xlink:href="#DejaVuSans-28" transform="translate(426.660156 0)"/>
      <use xlink:href="#DejaVuSans-72" transform="translate(465.673828 0)"/>
      <use xlink:href="#DejaVuSans-70" transform="translate(506.787109 0)"/>
      <use xlink:href="#DejaVuSans-6d" transform="translate(570.263672 0)"/>
      <use xlink:href="#DejaVuSans-29" transform="translate(667.675781 0)"/>
     </g>
    </g>
   </g>
  </g>
  <g id="axes_2">
   <g id="patch_8">
    <path d="M 56.840938 295.733333 
L 631.560938 295.733333 
L 631.560938 166.306667 
L 56.840938 166.306667 
z
" style="fill: #ffffff"/>
   </g>
   <g id="matplotlib.axis_3">
    <g id="xtick_8">
     <g id="line2d_29">
      <path d="M 82.964574 295.733333 
L 82.964574 166.306667 
" clip-path="url(#pfbb6d1cd66)" style="fill: none; stroke: #cccccc; stroke-opacity: 0.6; stroke-width: 0.6; stroke-linecap: square"/>
     </g>
     <g id="line2d_30">
      <g>
       <use xlink:href="#ma0a3d986be" x="82.964574" y="295.733333" style="stroke: #000000; stroke-width: 0.8"/>
      </g>
     </g>
     <g id="text_16">
      <!-- 0.0 -->
      <g transform="translate(74.217855 311.091615) scale(0.11 -0.11)">
       <use xlink:href="#DejaVuSans-30"/>
       <use xlink:href="#DejaVuSans-2e" transform="translate(63.623047 0)"/>
       <use xlink:href="#DejaVuSans-30" transform="translate(95.410156 0)"/>
      </g>
     </g>
    </g>
    <g id="xtick_9">
     <g id="line2d_31">
      <path d="M 170.043362 295.733333 
L 170.043362 166.306667 
" clip-path="url(#pfbb6d1cd66)" style="fill: none; stroke: #cccccc; stroke-opacity: 0.6; stroke-width: 0.6; stroke-linecap: square"/>
     </g>
     <g id="line2d_32">
      <g>
       <use xlink:href="#ma0a3d986be" x="170.043362" y="295.733333" style="stroke: #000000; stroke-width: 0.8"/>
      </g>
     </g>
     <g id="text_17">
      <!-- 0.5 -->
      <g transform="translate(161.296643 311.091615) scale(0.11 -0.11)">
       <use xlink:href="#DejaVuSans-30"/>
       <use xlink:href="#DejaVuSans-2e" transform="translate(63.623047 0)"/>
       <use xlink:href="#DejaVuSans-35" transform="translate(95.410156 0)"/>
      </g>
     </g>
    </g>
    <g id="xtick_10">
     <g id="line2d_33">
      <path d="M 257.12215 295.733333 
L 257.12215 166.306667 
" clip-path="url(#pfbb6d1cd66)" style="fill: none; stroke: #cccccc; stroke-opacity: 0.6; stroke-width: 0.6; stroke-linecap: square"/>
     </g>
     <g id="line2d_34">
      <g>
       <use xlink:href="#ma0a3d986be" x="257.12215" y="295.733333" style="stroke: #000000; stroke-width: 0.8"/>
      </g>
     </g>
     <g id="text_18">
      <!-- 1.0 -->
      <g transform="translate(248.375431 311.091615) scale(0.11 -0.11)">
       <use xlink:href="#DejaVuSans-31"/>
       <use xlink:href="#DejaVuSans-2e" transform="translate(63.623047 0)"/>
       <use xlink:href="#DejaVuSans-30" transform="translate(95.410156 0)"/>
      </g>
     </g>
    </g>
    <g id="xtick_11">
     <g id="line2d_35">
      <path d="M 344.200938 295.733333 
L 344.200938 166.306667 
" clip-path="url(#pfbb6d1cd66)" style="fill: none; stroke: #cccccc; stroke-opacity: 0.6; stroke-width: 0.6; stroke-linecap: square"/>
     </g>
     <g id="line2d_36">
      <g>
       <use xlink:href="#ma0a3d986be" x="344.200938" y="295.733333" style="stroke: #000000; stroke-width: 0.8"/>
      </g>
     </g>
     <g id="text_19">
      <!-- 1.5 -->
      <g transform="translate(335.454219 311.091615) scale(0.11 -0.11)">
       <use xlink:href="#DejaVuSans-31"/>
       <use xlink:href="#DejaVuSans-2e" transform="translate(63.623047 0)"/>
       <use xlink:href="#DejaVuSans-35" transform="translate(95.410156 0)"/>
      </g>
     </g>
    </g>
    <g id="xtick_12">
     <g id="line2d_37">
      <path d="M 431.279725 295.733333 
L 431.279725 166.306667 
" clip-path="url(#pfbb6d1cd66)" style="fill: none; stroke: #cccccc; stroke-opacity: 0.6; stroke-width: 0.6; stroke-linecap: square"/>
     </g>
     <g id="line2d_38">
      <g>
       <use xlink:href="#ma0a3d986be" x="431.279725" y="295.733333" style="stroke: #000000; stroke-width: 0.8"/>
      </g>
     </g>
     <g id="text_20">
      <!-- 2.0 -->
      <g transform="translate(422.533007 311.091615) scale(0.11 -0.11)">
       <use xlink:href="#DejaVuSans-32"/>
       <use xlink:href="#DejaVuSans-2e" transform="translate(63.623047 0)"/>
       <use xlink:href="#DejaVuSans-30" transform="translate(95.410156 0)"/>
      </g>
     </g>
    </g>
    <g id="xtick_13">
     <g id="line2d_39">
      <path d="M 518.358513 295.733333 
L 518.358513 166.306667 
" clip-path="url(#pfbb6d1cd66)" style="fill: none; stroke: #cccccc; stroke-opacity: 0.6; stroke-width: 0.6; stroke-linecap: square"/>
     </g>
     <g id="line2d_40">
      <g>
       <use xlink:href="#ma0a3d986be" x="518.358513" y="295.733333" style="stroke: #000000; stroke-width: 0.8"/>
      </g>
     </g>
     <g id="text_21">
      <!-- 2.5 -->
      <g transform="translate(509.611795 311.091615) scale(0.11 -0.11)">
       <use xlink:href="#DejaVuSans-32"/>
       <use xlink:href="#DejaVuSans-2e" transform="translate(63.623047 0)"/>
       <use xlink:href="#DejaVuSans-35" transform="translate(95.410156 0)"/>
      </g>
     </g>
    </g>
    <g id="xtick_14">
     <g id="line2d_41">
      <path d="M 605.437301 295.733333 
L 605.437301 166.306667 
" clip-path="url(#pfbb6d1cd66)" style="fill: none; stroke: #cccccc; stroke-opacity: 0.6; stroke-width: 0.6; stroke-linecap: square"/>
     </g>
     <g id="line2d_42">
      <g>
       <use xlink:href="#ma0a3d986be" x="605.437301" y="295.733333" style="stroke: #000000; stroke-width: 0.8"/>
      </g>
     </g>
     <g id="text_22">
      <!-- 3.0 -->
      <g transform="translate(596.690582 311.091615) scale(0.11 -0.11)">
       <use xlink:href="#DejaVuSans-33"/>
       <use xlink:href="#DejaVuSans-2e" transform="translate(63.623047 0)"/>
       <use xlink:href="#DejaVuSans-30" transform="translate(95.410156 0)"/>
      </g>
     </g>
    </g>
   </g>
   <g id="matplotlib.axis_4">
    <g id="ytick_6">
     <g id="line2d_43">
      <path d="M 56.840938 281.368401 
L 631.560938 281.368401 
" clip-path="url(#pfbb6d1cd66)" style="fill: none; stroke: #cccccc; stroke-opacity: 0.6; stroke-width: 0.6; stroke-linecap: square"/>
     </g>
     <g id="line2d_44">
      <g>
       <use xlink:href="#ma8ac90a1b0" x="56.840938" y="281.368401" style="stroke: #000000; stroke-width: 0.8"/>
      </g>
     </g>
     <g id="text_23">
      <!-- −10 -->
      <g transform="translate(26.625781 285.547541) scale(0.11 -0.11)">
       <defs>
        <path id="DejaVuSans-2212" d="M 678 2272 
L 4684 2272 
L 4684 1741 
L 678 1741 
L 678 2272 
z
" transform="scale(0.015625)"/>
       </defs>
       <use xlink:href="#DejaVuSans-2212"/>
       <use xlink:href="#DejaVuSans-31" transform="translate(83.789062 0)"/>
       <use xlink:href="#DejaVuSans-30" transform="translate(147.412109 0)"/>
      </g>
     </g>
    </g>
    <g id="ytick_7">
     <g id="line2d_45">
      <path d="M 56.840938 244.9755 
L 631.560938 244.9755 
" clip-path="url(#pfbb6d1cd66)" style="fill: none; stroke: #cccccc; stroke-opacity: 0.6; stroke-width: 0.6; stroke-linecap: square"/>
     </g>
     <g id="line2d_46">
      <g>
       <use xlink:href="#ma8ac90a1b0" x="56.840938" y="244.9755" style="stroke: #000000; stroke-width: 0.8"/>
      </g>
     </g>
     <g id="text_24">
      <!-- 0 -->
      <g transform="translate(42.842188 249.15464) scale(0.11 -0.11)">
       <use xlink:href="#DejaVuSans-30"/>
      </g>
     </g>
    </g>
    <g id="ytick_8">
     <g id="line2d_47">
      <path d="M 56.840938 208.582598 
L 631.560938 208.582598 
" clip-path="url(#pfbb6d1cd66)" style="fill: none; stroke: #cccccc; stroke-opacity: 0.6; stroke-width: 0.6; stroke-linecap: square"/>
     </g>
     <g id="line2d_48">
      <g>
       <use xlink:href="#ma8ac90a1b0" x="56.840938" y="208.582598" style="stroke: #000000; stroke-width: 0.8"/>
      </g>
     </g>
     <g id="text_25">
      <!-- 10 -->
      <g transform="translate(35.843438 212.761739) scale(0.11 -0.11)">
       <use xlink:href="#DejaVuSans-31"/>
       <use xlink:href="#DejaVuSans-30" transform="translate(63.623047 0)"/>
      </g>
     </g>
    </g>
    <g id="ytick_9">
     <g id="line2d_49">
      <path d="M 56.840938 172.189697 
L 631.560938 172.189697 
" clip-path="url(#pfbb6d1cd66)" style="fill: none; stroke: #cccccc; stroke-opacity: 0.6; stroke-width: 0.6; stroke-linecap: square"/>
     </g>
     <g id="line2d_50">
      <g>
       <use xlink:href="#ma8ac90a1b0" x="56.840938" y="172.189697" style="stroke: #000000; stroke-width: 0.8"/>
      </g>
     </g>
     <g id="text_26">
      <!-- 20 -->
      <g transform="translate(35.843438 176.368838) scale(0.11 -0.11)">
       <use xlink:href="#DejaVuSans-32"/>
       <use xlink:href="#DejaVuSans-30" transform="translate(63.623047 0)"/>
      </g>
     </g>
    </g>
    <g id="text_27">
     <!-- Current (A) -->
     <g transform="translate(20.338125 261.47625) rotate(-90) scale(0.11 -0.11)">
      <defs>
       <path id="DejaVuSans-43" d="M 4122 4306 
L 4122 3641 
Q 3803 3938 3442 4084 
Q 3081 4231 2675 4231 
Q 1875 4231 1450 3742 
Q 1025 3253 1025 2328 
Q 1025 1406 1450 917 
Q 1875 428 2675 428 
Q 3081 428 3442 575 
Q 3803 722 4122 1019 
L 4122 359 
Q 3791 134 3420 21 
Q 3050 -91 2638 -91 
Q 1578 -91 968 557 
Q 359 1206 359 2328 
Q 359 3453 968 4101 
Q 1578 4750 2638 4750 
Q 3056 4750 3426 4639 
Q 3797 4528 4122 4306 
z
" transform="scale(0.015625)"/>
       <path id="DejaVuSans-75" d="M 544 1381 
L 544 3500 
L 1119 3500 
L 1119 1403 
Q 1119 906 1312 657 
Q 1506 409 1894 409 
Q 2359 409 2629 706 
Q 2900 1003 2900 1516 
L 2900 3500 
L 3475 3500 
L 3475 0 
L 2900 0 
L 2900 538 
Q 2691 219 2414 64 
Q 2138 -91 1772 -91 
Q 1169 -91 856 284 
Q 544 659 544 1381 
z
M 1991 3584 
L 1991 3584 
z
" transform="scale(0.015625)"/>
       <path id="DejaVuSans-6e" d="M 3513 2113 
L 3513 0 
L 2938 0 
L 2938 2094 
Q 2938 2591 2744 2837 
Q 2550 3084 2163 3084 
Q 1697 3084 1428 2787 
Q 1159 2491 1159 1978 
L 1159 0 
L 581 0 
L 581 3500 
L 1159 3500 
L 1159 2956 
Q 1366 3272 1645 3428 
Q 1925 3584 2291 3584 
Q 2894 3584 3203 3211 
Q 3513 2838 3513 2113 
z
" transform="scale(0.015625)"/>
       <path id="DejaVuSans-74" d="M 1172 4494 
L 1172 3500 
L 2356 3500 
L 2356 3053 
L 1172 3053 
L 1172 1153 
Q 1172 725 1289 603 
Q 1406 481 1766 481 
L 2356 481 
L 2356 0 
L 1766 0 
Q 1100 0 847 248 
Q 594 497 594 1153 
L 594 3053 
L 172 3053 
L 172 3500 
L 594 3500 
L 594 4494 
L 1172 4494 
z
" transform="scale(0.015625)"/>
       <path id="DejaVuSans-41" d="M 2188 4044 
L 1331 1722 
L 3047 1722 
L 2188 4044 
z
M 1831 4666 
L 2547 4666 
L 4325 0 
L 3669 0 
L 3244 1197 
L 1141 1197 
L 716 0 
L 50 0 
L 1831 4666 
z
" transform="scale(0.015625)"/>
      </defs>
      <use xlink:href="#DejaVuSans-43"/>
      <use xlink:href="#DejaVuSans-75" transform="translate(69.824219 0)"/>
      <use xlink:href="#DejaVuSans-72" transform="translate(133.203125 0)"/>
      <use xlink:href="#DejaVuSans-72" transform="translate(172.566406 0)"/>
      <use xlink:href="#DejaVuSans-65" transform="translate(211.429688 0)"/>
      <use xlink:href="#DejaVuSans-6e" transform="translate(272.953125 0)"/>
      <use xlink:href="#DejaVuSans-74" transform="translate(336.332031 0)"/>
      <use xlink:href="#DejaVuSans-20" transform="translate(375.541016 0)"/>
      <use xlink:href="#DejaVuSans-28" transform="translate(407.328125 0)"/>
      <use xlink:href="#DejaVuSans-41" transform="translate(446.341797 0)"/>
      <use xlink:href="#DejaVuSans-29" transform="translate(514.75 0)"/>
     </g>
    </g>
   </g>
   <g id="line2d_51">
    <path d="M 82.964574 244.9755 
L 135.037689 244.9755 
L 135.211847 173.426136 
L 135.560162 173.348916 
L 144.964671 173.393047 
L 173.526513 173.474644 
L 173.700671 174.176084 
L 174.745616 202.043195 
L 175.790562 224.533424 
L 176.835507 242.433325 
L 177.880453 256.460912 
L 178.925398 267.23961 
L 179.796186 274.130341 
L 180.666974 279.410133 
L 181.537762 283.316779 
L 182.234392 285.594583 
L 182.931022 287.222487 
L 183.627653 288.285738 
L 184.150125 288.75897 
L 184.672598 288.987135 
L 185.195071 288.997238 
L 185.717544 288.814116 
L 186.414174 288.308548 
L 187.284962 287.324323 
L 188.329907 285.735672 
L 189.723168 283.12311 
L 191.638901 278.991595 
L 197.386101 266.301071 
L 199.475992 262.315321 
L 201.391725 259.097448 
L 203.307459 256.306781 
L 205.223192 253.928117 
L 206.964768 252.09803 
L 208.880501 250.41532 
L 210.796234 249.038576 
L 212.711968 247.926168 
L 214.801859 246.967474 
L 217.065907 246.175867 
L 219.678271 245.514879 
L 222.63895 245.011493 
L 226.122101 244.653145 
L 230.650198 244.4234 
L 237.442344 244.327237 
L 256.773834 244.3854 
L 306.931216 244.409764 
L 344.200938 244.384998 
L 345.420041 239.636449 
L 346.639144 235.821751 
L 347.858247 232.768506 
L 349.07735 230.341263 
L 350.296453 228.431679 
L 351.515556 226.950467 
L 352.734659 225.822802 
L 353.953762 224.98547 
L 355.347022 224.315726 
L 356.740283 223.888631 
L 358.307701 223.630042 
L 360.223434 223.545447 
L 362.661641 223.677293 
L 366.31895 224.127417 
L 376.245931 225.441085 
L 381.818974 225.89966 
L 388.262804 226.195966 
L 397.144841 226.360246 
L 414.386441 226.40624 
L 605.437301 226.399495 
L 605.437301 226.399495 
" clip-path="url(#pfbb6d1cd66)" style="fill: none; stroke: #1f77b4; stroke-width: 2; stroke-linecap: square"/>
   </g>
   <g id="line2d_52">
    <path d="M 82.964574 244.9755 
L 135.037689 244.9755 
L 135.211847 172.189697 
L 173.526513 172.189697 
L 173.700671 172.904792 
L 174.745616 201.303359 
L 175.790562 224.224911 
L 176.835507 242.4676 
L 177.880453 256.759981 
L 178.925398 267.736774 
L 179.796186 274.749643 
L 180.666974 280.118919 
L 181.537762 284.0878 
L 182.234392 286.399003 
L 182.931022 288.04809 
L 183.627653 289.122216 
L 184.150125 289.597855 
L 184.672598 289.824198 
L 185.195071 289.828814 
L 185.717544 289.637046 
L 186.414174 289.115809 
L 187.284962 288.106637 
L 188.329907 286.482192 
L 189.723168 283.815406 
L 191.638901 279.603489 
L 197.386101 266.682616 
L 199.475992 262.627058 
L 201.391725 259.353303 
L 203.307459 256.514419 
L 205.223192 254.094784 
L 206.964768 252.23322 
L 208.880501 250.521579 
L 210.796234 249.121147 
L 212.711968 247.98957 
L 214.801859 247.014309 
L 217.065907 246.208965 
L 219.504113 245.574061 
L 222.290634 245.073229 
L 225.773786 244.686963 
L 230.127725 244.442693 
L 236.571556 244.330438 
L 251.723265 244.368669 
L 291.431192 244.409906 
L 344.200938 244.409693 
L 345.420041 239.716267 
L 346.639144 235.905385 
L 347.858247 232.83511 
L 349.07735 230.384583 
L 350.296453 228.452018 
L 351.515556 226.950798 
L 352.734659 225.806918 
L 353.953762 224.957138 
L 355.347022 224.277291 
L 356.740283 223.843779 
L 358.307701 223.581446 
L 360.223434 223.495965 
L 362.661641 223.630521 
L 366.31895 224.088711 
L 376.245931 225.425052 
L 381.818974 225.891425 
L 388.262804 226.192731 
L 396.970683 226.358096 
L 413.68981 226.406506 
L 605.437301 226.399495 
L 605.437301 226.399495 
" clip-path="url(#pfbb6d1cd66)" style="fill: none; stroke-dasharray: 7.4,3.2; stroke-dashoffset: 0; stroke: #ff7f0e; stroke-width: 2"/>
   </g>
   <g id="line2d_53">
    <path d="M 82.964574 227.100056 
L 83.835362 226.936503 
L 85.925253 226.779247 
L 90.45335 226.72948 
L 409.858344 226.779116 
L 605.437301 226.779049 
L 605.437301 226.779049 
" clip-path="url(#pfbb6d1cd66)" style="fill: none; stroke: #2ca02c; stroke-width: 2; stroke-linecap: square"/>
   </g>
   <g id="line2d_54">
    <path d="M 82.964574 226.779049 
L 605.437301 226.779049 
L 605.437301 226.779049 
" clip-path="url(#pfbb6d1cd66)" style="fill: none; stroke-dasharray: 7.4,3.2; stroke-dashoffset: 0; stroke: #d62728; stroke-width: 2"/>
   </g>
   <g id="patch_9">
    <path d="M 56.840938 295.733333 
L 56.840938 166.306667 
" style="fill: none; stroke: #000000; stroke-width: 0.8; stroke-linejoin: miter; stroke-linecap: square"/>
   </g>
   <g id="patch_10">
    <path d="M 631.560938 295.733333 
L 631.560938 166.306667 
" style="fill: none; stroke: #000000; stroke-width: 0.8; stroke-linejoin: miter; stroke-linecap: square"/>
   </g>
   <g id="patch_11">
    <path d="M 56.840938 295.733333 
L 631.560938 295.733333 
" style="fill: none; stroke: #000000; stroke-width: 0.8; stroke-linejoin: miter; stroke-linecap: square"/>
   </g>
   <g id="patch_12">
    <path d="M 56.840938 166.306667 
L 631.560938 166.306667 
" style="fill: none; stroke: #000000; stroke-width: 0.8; stroke-linejoin: miter; stroke-linecap: square"/>
   </g>
   <g id="legend_2">
    <g id="patch_13">
     <path d="M 506.307813 204.219167 
L 624.560938 204.219167 
Q 626.560938 204.219167 626.560938 202.219167 
L 626.560938 173.306667 
Q 626.560938 171.306667 624.560938 171.306667 
L 506.307813 171.306667 
Q 504.307813 171.306667 504.307813 173.306667 
L 504.307813 202.219167 
Q 504.307813 204.219167 506.307813 204.219167 
z
" style="fill: #ffffff; opacity: 0.8; stroke: #cccccc; stroke-linejoin: miter"/>
    </g>
    <g id="line2d_55">
     <path d="M 508.307813 179.405104 
L 518.307812 179.405104 
L 528.307812 179.405104 
" style="fill: none; stroke: #1f77b4; stroke-width: 2; stroke-linecap: square"/>
    </g>
    <g id="text_28">
     <!-- i_q -->
     <g transform="translate(536.307812 182.905104) scale(0.1 -0.1)">
      <defs>
       <path id="DejaVuSans-69" d="M 603 3500 
L 1178 3500 
L 1178 0 
L 603 0 
L 603 3500 
z
M 603 4863 
L 1178 4863 
L 1178 4134 
L 603 4134 
L 603 4863 
z
" transform="scale(0.015625)"/>
       <path id="DejaVuSans-5f" d="M 3263 -1063 
L 3263 -1509 
L -63 -1509 
L -63 -1063 
L 3263 -1063 
z
" transform="scale(0.015625)"/>
       <path id="DejaVuSans-71" d="M 947 1747 
Q 947 1113 1208 752 
Q 1469 391 1925 391 
Q 2381 391 2643 752 
Q 2906 1113 2906 1747 
Q 2906 2381 2643 2742 
Q 2381 3103 1925 3103 
Q 1469 3103 1208 2742 
Q 947 2381 947 1747 
z
M 2906 525 
Q 2725 213 2448 61 
Q 2172 -91 1784 -91 
Q 1150 -91 751 415 
Q 353 922 353 1747 
Q 353 2572 751 3078 
Q 1150 3584 1784 3584 
Q 2172 3584 2448 3432 
Q 2725 3281 2906 2969 
L 2906 3500 
L 3481 3500 
L 3481 -1331 
L 2906 -1331 
L 2906 525 
z
" transform="scale(0.015625)"/>
      </defs>
      <use xlink:href="#DejaVuSans-69"/>
      <use xlink:href="#DejaVuSans-5f" transform="translate(27.783203 0)"/>
      <use xlink:href="#DejaVuSans-71" transform="translate(77.783203 0)"/>
     </g>
    </g>
    <g id="line2d_56">
     <path d="M 508.307813 194.361354 
L 518.307812 194.361354 
L 528.307812 194.361354 
" style="fill: none; stroke-dasharray: 7.4,3.2; stroke-dashoffset: 0; stroke: #ff7f0e; stroke-width: 2"/>
    </g>
    <g id="text_29">
     <!-- i_q* -->
     <g transform="translate(536.307812 197.861354) scale(0.1 -0.1)">
      <use xlink:href="#DejaVuSans-69"/>
      <use xlink:href="#DejaVuSans-5f" transform="translate(27.783203 0)"/>
      <use xlink:href="#DejaVuSans-71" transform="translate(77.783203 0)"/>
      <use xlink:href="#DejaVuSans-2a" transform="translate(141.259766 0)"/>
     </g>
    </g>
    <g id="line2d_57">
     <path d="M 575.434375 179.405104 
L 585.434375 179.405104 
L 595.434375 179.405104 
" style="fill: none; stroke: #2ca02c; stroke-width: 2; stroke-linecap: square"/>
    </g>
    <g id="text_30">
     <!-- i_d -->
     <g transform="translate(603.434375 182.905104) scale(0.1 -0.1)">
      <use xlink:href="#DejaVuSans-69"/>
      <use xlink:href="#DejaVuSans-5f" transform="translate(27.783203 0)"/>
      <use xlink:href="#DejaVuSans-64" transform="translate(77.783203 0)"/>
     </g>
    </g>
    <g id="line2d_58">
     <path d="M 575.434375 194.361354 
L 585.434375 194.361354 
L 595.434375 194.361354 
" style="fill: none; stroke-dasharray: 7.4,3.2; stroke-dashoffset: 0; stroke: #d62728; stroke-width: 2"/>
    </g>
    <g id="text_31">
     <!-- i_d* -->
     <g transform="translate(603.434375 197.861354) scale(0.1 -0.1)">
      <use xlink:href="#DejaVuSans-69"/>
      <use xlink:href="#DejaVuSans-5f" transform="translate(27.783203 0)"/>
      <use xlink:href="#DejaVuSans-64" transform="translate(77.783203 0)"/>
      <use xlink:href="#DejaVuSans-2a" transform="translate(141.259766 0)"/>
     </g>
    </g>
   </g>
  </g>
  <g id="axes_3">
   <g id="patch_14">
    <path d="M 56.840938 454.84 
L 631.560938 454.84 
L 631.560938 325.413333 
L 56.840938 325.413333 
z
" style="fill: #ffffff"/>
   </g>
   <g id="matplotlib.axis_5">
    <g id="xtick_15">
     <g id="line2d_59">
      <path d="M 82.964574 454.84 
L 82.964574 325.413333 
" clip-path="url(#p0bacfcf847)" style="fill: none; stroke: #cccccc; stroke-opacity: 0.6; stroke-width: 0.6; stroke-linecap: square"/>
     </g>
     <g id="line2d_60">
      <g>
       <use xlink:href="#ma0a3d986be" x="82.964574" y="454.84" style="stroke: #000000; stroke-width: 0.8"/>
      </g>
     </g>
     <g id="text_32">
      <!-- 0.0 -->
      <g transform="translate(74.217855 470.198281) scale(0.11 -0.11)">
       <use xlink:href="#DejaVuSans-30"/>
       <use xlink:href="#DejaVuSans-2e" transform="translate(63.623047 0)"/>
       <use xlink:href="#DejaVuSans-30" transform="translate(95.410156 0)"/>
      </g>
     </g>
    </g>
    <g id="xtick_16">
     <g id="line2d_61">
      <path d="M 170.043362 454.84 
L 170.043362 325.413333 
" clip-path="url(#p0bacfcf847)" style="fill: none; stroke: #cccccc; stroke-opacity: 0.6; stroke-width: 0.6; stroke-linecap: square"/>
     </g>
     <g id="line2d_62">
      <g>
       <use xlink:href="#ma0a3d986be" x="170.043362" y="454.84" style="stroke: #000000; stroke-width: 0.8"/>
      </g>
     </g>
     <g id="text_33">
      <!-- 0.5 -->
      <g transform="translate(161.296643 470.198281) scale(0.11 -0.11)">
       <use xlink:href="#DejaVuSans-30"/>
       <use xlink:href="#DejaVuSans-2e" transform="translate(63.623047 0)"/>
       <use xlink:href="#DejaVuSans-35" transform="translate(95.410156 0)"/>
      </g>
     </g>
    </g>
    <g id="xtick_17">
     <g id="line2d_63">
      <path d="M 257.12215 454.84 
L 257.12215 325.413333 
" clip-path="url(#p0bacfcf847)" style="fill: none; stroke: #cccccc; stroke-opacity: 0.6; stroke-width: 0.6; stroke-linecap: square"/>
     </g>
     <g id="line2d_64">
      <g>
       <use xlink:href="#ma0a3d986be" x="257.12215" y="454.84" style="stroke: #000000; stroke-width: 0.8"/>
      </g>
     </g>
     <g id="text_34">
      <!-- 1.0 -->
      <g transform="translate(248.375431 470.198281) scale(0.11 -0.11)">
       <use xlink:href="#DejaVuSans-31"/>
       <use xlink:href="#DejaVuSans-2e" transform="translate(63.623047 0)"/>
       <use xlink:href="#DejaVuSans-30" transform="translate(95.410156 0)"/>
      </g>
     </g>
    </g>
    <g id="xtick_18">
     <g id="line2d_65">
      <path d="M 344.200938 454.84 
L 344.200938 325.413333 
" clip-path="url(#p0bacfcf847)" style="fill: none; stroke: #cccccc; stroke-opacity: 0.6; stroke-width: 0.6; stroke-linecap: square"/>
     </g>
     <g id="line2d_66">
      <g>
       <use xlink:href="#ma0a3d986be" x="344.200938" y="454.84" style="stroke: #000000; stroke-width: 0.8"/>
      </g>
     </g>
     <g id="text_35">
      <!-- 1.5 -->
      <g transform="translate(335.454219 470.198281) scale(0.11 -0.11)">
       <use xlink:href="#DejaVuSans-31"/>
       <use xlink:href="#DejaVuSans-2e" transform="translate(63.623047 0)"/>
       <use xlink:href="#DejaVuSans-35" transform="translate(95.410156 0)"/>
      </g>
     </g>
    </g>
    <g id="xtick_19">
     <g id="line2d_67">
      <path d="M 431.279725 454.84 
L 431.279725 325.413333 
" clip-path="url(#p0bacfcf847)" style="fill: none; stroke: #cccccc; stroke-opacity: 0.6; stroke-width: 0.6; stroke-linecap: square"/>
     </g>
     <g id="line2d_68">
      <g>
       <use xlink:href="#ma0a3d986be" x="431.279725" y="454.84" style="stroke: #000000; stroke-width: 0.8"/>
      </g>
     </g>
     <g id="text_36">
      <!-- 2.0 -->
      <g transform="translate(422.533007 470.198281) scale(0.11 -0.11)">
       <use xlink:href="#DejaVuSans-32"/>
       <use xlink:href="#DejaVuSans-2e" transform="translate(63.623047 0)"/>
       <use xlink:href="#DejaVuSans-30" transform="translate(95.410156 0)"/>
      </g>
     </g>
    </g>
    <g id="xtick_20">
     <g id="line2d_69">
      <path d="M 518.358513 454.84 
L 518.358513 325.413333 
" clip-path="url(#p0bacfcf847)" style="fill: none; stroke: #cccccc; stroke-opacity: 0.6; stroke-width: 0.6; stroke-linecap: square"/>
     </g>
     <g id="line2d_70">
      <g>
       <use xlink:href="#ma0a3d986be" x="518.358513" y="454.84" style="stroke: #000000; stroke-width: 0.8"/>
      </g>
     </g>
     <g id="text_37">
      <!-- 2.5 -->
      <g transform="translate(509.611795 470.198281) scale(0.11 -0.11)">
       <use xlink:href="#DejaVuSans-32"/>
       <use xlink:href="#DejaVuSans-2e" transform="translate(63.623047 0)"/>
       <use xlink:href="#DejaVuSans-35" transform="translate(95.410156 0)"/>
      </g>
     </g>
    </g>
    <g id="xtick_21">
     <g id="line2d_71">
      <path d="M 605.437301 454.84 
L 605.437301 325.413333 
" clip-path="url(#p0bacfcf847)" style="fill: none; stroke: #cccccc; stroke-opacity: 0.6; stroke-width: 0.6; stroke-linecap: square"/>
     </g>
     <g id="line2d_72">
      <g>
       <use xlink:href="#ma0a3d986be" x="605.437301" y="454.84" style="stroke: #000000; stroke-width: 0.8"/>
      </g>
     </g>
     <g id="text_38">
      <!-- 3.0 -->
      <g transform="translate(596.690582 470.198281) scale(0.11 -0.11)">
       <use xlink:href="#DejaVuSans-33"/>
       <use xlink:href="#DejaVuSans-2e" transform="translate(63.623047 0)"/>
       <use xlink:href="#DejaVuSans-30" transform="translate(95.410156 0)"/>
      </g>
     </g>
    </g>
    <g id="text_39">
     <!-- Time (s) -->
     <g transform="translate(321.839141 484.844219) scale(0.11 -0.11)">
      <defs>
       <path id="DejaVuSans-54" d="M -19 4666 
L 3928 4666 
L 3928 4134 
L 2272 4134 
L 2272 0 
L 1638 0 
L 1638 4134 
L -19 4134 
L -19 4666 
z
" transform="scale(0.015625)"/>
       <path id="DejaVuSans-73" d="M 2834 3397 
L 2834 2853 
Q 2591 2978 2328 3040 
Q 2066 3103 1784 3103 
Q 1356 3103 1142 2972 
Q 928 2841 928 2578 
Q 928 2378 1081 2264 
Q 1234 2150 1697 2047 
L 1894 2003 
Q 2506 1872 2764 1633 
Q 3022 1394 3022 966 
Q 3022 478 2636 193 
Q 2250 -91 1575 -91 
Q 1294 -91 989 -36 
Q 684 19 347 128 
L 347 722 
Q 666 556 975 473 
Q 1284 391 1588 391 
Q 1994 391 2212 530 
Q 2431 669 2431 922 
Q 2431 1156 2273 1281 
Q 2116 1406 1581 1522 
L 1381 1569 
Q 847 1681 609 1914 
Q 372 2147 372 2553 
Q 372 3047 722 3315 
Q 1072 3584 1716 3584 
Q 2034 3584 2315 3537 
Q 2597 3491 2834 3397 
z
" transform="scale(0.015625)"/>
      </defs>
      <use xlink:href="#DejaVuSans-54"/>
      <use xlink:href="#DejaVuSans-69" transform="translate(57.958984 0)"/>
      <use xlink:href="#DejaVuSans-6d" transform="translate(85.742188 0)"/>
      <use xlink:href="#DejaVuSans-65" transform="translate(183.154297 0)"/>
      <use xlink:href="#DejaVuSans-20" transform="translate(244.677734 0)"/>
      <use xlink:href="#DejaVuSans-28" transform="translate(276.464844 0)"/>
      <use xlink:href="#DejaVuSans-73" transform="translate(315.478516 0)"/>
      <use xlink:href="#DejaVuSans-29" transform="translate(367.578125 0)"/>
     </g>
    </g>
   </g>
   <g id="matplotlib.axis_6">
    <g id="ytick_10">
     <g id="line2d_73">
      <path d="M 56.840938 440.453352 
L 631.560938 440.453352 
" clip-path="url(#p0bacfcf847)" style="fill: none; stroke: #cccccc; stroke-opacity: 0.6; stroke-width: 0.6; stroke-linecap: square"/>
     </g>
     <g id="line2d_74">
      <g>
       <use xlink:href="#ma8ac90a1b0" x="56.840938" y="440.453352" style="stroke: #000000; stroke-width: 0.8"/>
      </g>
     </g>
     <g id="text_40">
      <!-- −10 -->
      <g transform="translate(26.625781 444.632492) scale(0.11 -0.11)">
       <use xlink:href="#DejaVuSans-2212"/>
       <use xlink:href="#DejaVuSans-31" transform="translate(83.789062 0)"/>
       <use xlink:href="#DejaVuSans-30" transform="translate(147.412109 0)"/>
      </g>
     </g>
    </g>
    <g id="ytick_11">
     <g id="line2d_75">
      <path d="M 56.840938 404.411616 
L 631.560938 404.411616 
" clip-path="url(#p0bacfcf847)" style="fill: none; stroke: #cccccc; stroke-opacity: 0.6; stroke-width: 0.6; stroke-linecap: square"/>
     </g>
     <g id="line2d_76">
      <g>
       <use xlink:href="#ma8ac90a1b0" x="56.840938" y="404.411616" style="stroke: #000000; stroke-width: 0.8"/>
      </g>
     </g>
     <g id="text_41">
      <!-- 0 -->
      <g transform="translate(42.842188 408.590757) scale(0.11 -0.11)">
       <use xlink:href="#DejaVuSans-30"/>
      </g>
     </g>
    </g>
    <g id="ytick_12">
     <g id="line2d_77">
      <path d="M 56.840938 368.369881 
L 631.560938 368.369881 
" clip-path="url(#p0bacfcf847)" style="fill: none; stroke: #cccccc; stroke-opacity: 0.6; stroke-width: 0.6; stroke-linecap: square"/>
     </g>
     <g id="line2d_78">
      <g>
       <use xlink:href="#ma8ac90a1b0" x="56.840938" y="368.369881" style="stroke: #000000; stroke-width: 0.8"/>
      </g>
     </g>
     <g id="text_42">
      <!-- 10 -->
      <g transform="translate(35.843438 372.549022) scale(0.11 -0.11)">
       <use xlink:href="#DejaVuSans-31"/>
       <use xlink:href="#DejaVuSans-30" transform="translate(63.623047 0)"/>
      </g>
     </g>
    </g>
    <g id="ytick_13">
     <g id="line2d_79">
      <path d="M 56.840938 332.328145 
L 631.560938 332.328145 
" clip-path="url(#p0bacfcf847)" style="fill: none; stroke: #cccccc; stroke-opacity: 0.6; stroke-width: 0.6; stroke-linecap: square"/>
     </g>
     <g id="line2d_80">
      <g>
       <use xlink:href="#ma8ac90a1b0" x="56.840938" y="332.328145" style="stroke: #000000; stroke-width: 0.8"/>
      </g>
     </g>
     <g id="text_43">
      <!-- 20 -->
      <g transform="translate(35.843438 336.507286) scale(0.11 -0.11)">
       <use xlink:href="#DejaVuSans-32"/>
       <use xlink:href="#DejaVuSans-30" transform="translate(63.623047 0)"/>
      </g>
     </g>
    </g>
    <g id="text_44">
     <!-- Torque (N*m) -->
     <g transform="translate(20.338125 426.704245) rotate(-90) scale(0.11 -0.11)">
      <defs>
       <path id="DejaVuSans-4e" d="M 628 4666 
L 1478 4666 
L 3547 763 
L 3547 4666 
L 4159 4666 
L 4159 0 
L 3309 0 
L 1241 3903 
L 1241 0 
L 628 0 
L 628 4666 
z
" transform="scale(0.015625)"/>
      </defs>
      <use xlink:href="#DejaVuSans-54"/>
      <use xlink:href="#DejaVuSans-6f" transform="translate(44.083984 0)"/>
      <use xlink:href="#DejaVuSans-72" transform="translate(105.265625 0)"/>
      <use xlink:href="#DejaVuSans-71" transform="translate(144.628906 0)"/>
      <use xlink:href="#DejaVuSans-75" transform="translate(208.105469 0)"/>
      <use xlink:href="#DejaVuSans-65" transform="translate(271.484375 0)"/>
      <use xlink:href="#DejaVuSans-20" transform="translate(333.007812 0)"/>
      <use xlink:href="#DejaVuSans-28" transform="translate(364.794922 0)"/>
      <use xlink:href="#DejaVuSans-4e" transform="translate(403.808594 0)"/>
      <use xlink:href="#DejaVuSans-2a" transform="translate(478.613281 0)"/>
      <use xlink:href="#DejaVuSans-6d" transform="translate(528.613281 0)"/>
      <use xlink:href="#DejaVuSans-29" transform="translate(626.025391 0)"/>
     </g>
    </g>
   </g>
   <g id="line2d_81">
    <path d="M 82.964574 404.411616 
L 135.037689 404.411616 
L 135.211847 335.112691 
L 135.560162 334.97334 
L 140.610731 334.12081 
L 147.228719 333.225947 
L 154.543338 332.464676 
L 162.728744 331.842846 
L 172.30741 331.345764 
L 173.526513 331.296364 
L 173.700671 332.008241 
L 174.745616 360.55456 
L 175.790562 383.602113 
L 176.835507 401.914557 
L 177.880453 416.221081 
L 178.925398 427.169808 
L 179.796186 434.138787 
L 180.666974 439.454637 
L 181.537762 443.367321 
L 182.234392 445.634934 
L 182.931022 447.243564 
L 183.627653 448.281493 
L 184.150125 448.73318 
L 184.672598 448.938461 
L 185.195071 448.924935 
L 185.717544 448.717896 
L 186.414174 448.180581 
L 187.284962 447.157681 
L 188.329907 445.524974 
L 189.723168 442.858526 
L 191.813059 438.264611 
L 197.037786 426.550715 
L 199.301834 422.133791 
L 201.217568 418.85386 
L 203.133301 416.006927 
L 205.049034 413.578678 
L 206.79061 411.709472 
L 208.706344 409.99005 
L 210.622077 408.582706 
L 212.53781 407.445156 
L 214.627701 406.46443 
L 216.89175 405.654302 
L 219.329956 405.015402 
L 222.116477 404.511226 
L 225.599628 404.122215 
L 229.953568 403.876114 
L 236.223241 403.764008 
L 250.678319 403.799021 
L 288.992986 403.845503 
L 344.200938 403.820322 
L 345.420041 399.068976 
L 346.639144 395.252241 
L 347.858247 392.197552 
L 349.07735 389.769302 
L 350.296453 387.859017 
L 351.515556 386.377313 
L 352.734659 385.24929 
L 353.953762 384.411683 
L 355.347022 383.741688 
L 356.740283 383.314379 
L 358.307701 383.055575 
L 360.223434 382.97074 
L 362.661641 383.102309 
L 366.31895 383.552074 
L 376.245931 384.865095 
L 381.818974 385.323492 
L 388.262804 385.619741 
L 397.144841 385.784145 
L 414.386441 385.830629 
L 605.437301 385.824606 
L 605.437301 385.824606 
" clip-path="url(#p0bacfcf847)" style="fill: none; stroke: #1f77b4; stroke-width: 2; stroke-linecap: square"/>
   </g>
   <g id="line2d_82">
    <path d="M 82.964574 404.411616 
L 344.02678 404.411616 
L 344.200938 386.390749 
L 605.437301 386.390749 
L 605.437301 386.390749 
" clip-path="url(#p0bacfcf847)" style="fill: none; stroke-dasharray: 7.4,3.2; stroke-dashoffset: 0; stroke: #ff7f0e; stroke-width: 2"/>
   </g>
   <g id="patch_15">
    <path d="M 56.840938 454.84 
L 56.840938 325.413333 
" style="fill: none; stroke: #000000; stroke-width: 0.8; stroke-linejoin: miter; stroke-linecap: square"/>
   </g>
   <g id="patch_16">
    <path d="M 631.560938 454.84 
L 631.560938 325.413333 
" style="fill: none; stroke: #000000; stroke-width: 0.8; stroke-linejoin: miter; stroke-linecap: square"/>
   </g>
   <g id="patch_17">
    <path d="M 56.840938 454.84 
L 631.560938 454.84 
" style="fill: none; stroke: #000000; stroke-width: 0.8; stroke-linejoin: miter; stroke-linecap: square"/>
   </g>
   <g id="patch_18">
    <path d="M 56.840938 325.413333 
L 631.560938 325.413333 
" style="fill: none; stroke: #000000; stroke-width: 0.8; stroke-linejoin: miter; stroke-linecap: square"/>
   </g>
   <g id="legend_3">
    <g id="patch_19">
     <path d="M 575.3 363.325833 
L 624.560938 363.325833 
Q 626.560938 363.325833 626.560938 361.325833 
L 626.560938 332.413333 
Q 626.560938 330.413333 624.560938 330.413333 
L 575.3 330.413333 
Q 573.3 330.413333 573.3 332.413333 
L 573.3 361.325833 
Q 573.3 363.325833 575.3 363.325833 
z
" style="fill: #ffffff; opacity: 0.8; stroke: #cccccc; stroke-linejoin: miter"/>
    </g>
    <g id="line2d_83">
     <path d="M 577.3 338.511771 
L 587.3 338.511771 
L 597.3 338.511771 
" style="fill: none; stroke: #1f77b4; stroke-width: 2; stroke-linecap: square"/>
    </g>
    <g id="text_45">
     <!-- T_e -->
     <g transform="translate(605.3 342.011771) scale(0.1 -0.1)">
      <use xlink:href="#DejaVuSans-54"/>
      <use xlink:href="#DejaVuSans-5f" transform="translate(61.083984 0)"/>
      <use xlink:href="#DejaVuSans-65" transform="translate(111.083984 0)"/>
     </g>
    </g>
    <g id="line2d_84">
     <path d="M 577.3 353.468021 
L 587.3 353.468021 
L 597.3 353.468021 
" style="fill: none; stroke-dasharray: 7.4,3.2; stroke-dashoffset: 0; stroke: #ff7f0e; stroke-width: 2"/>
    </g>
    <g id="text_46">
     <!-- T_L -->
     <g transform="translate(605.3 356.968021) scale(0.1 -0.1)">
      <defs>
       <path id="DejaVuSans-4c" d="M 628 4666 
L 1259 4666 
L 1259 531 
L 3531 531 
L 3531 0 
L 628 0 
L 628 4666 
z
" transform="scale(0.015625)"/>
      </defs>
      <use xlink:href="#DejaVuSans-54"/>
      <use xlink:href="#DejaVuSans-5f" transform="translate(61.083984 0)"/>
      <use xlink:href="#DejaVuSans-4c" transform="translate(111.083984 0)"/>
     </g>
    </g>
   </g>
  </g>
 </g>
 <defs>
  <clipPath id="p8b7827469a">
   <rect x="56.840938" y="7.2" width="574.72" height="129.426667"/>
  </clipPath>
  <clipPath id="pfbb6d1cd66">
   <rect x="56.840938" y="166.306667" width="574.72" height="129.426667"/>
  </clipPath>
  <clipPath id="p0bacfcf847">
   <rect x="56.840938" y="325.413333" width="574.72" height="129.426667"/>
  </clipPath>
 </defs>
</svg>
